<mxfile host="app.diagrams.net" modified="2020-07-24T19:56:13.242Z" agent="5.0 (Windows NT 10.0; Win64; x64) AppleWebKit/537.36 (KHTML, like Gecko) Chrome/84.0.4147.89 Safari/537.36" etag="O9q1NYdGjdsA5KL9Vx-G" version="13.5.1" type="github">
  <diagram id="RoLnKq29TPOuZTecGyjG" name="Страница 1">
    <mxGraphModel dx="2483" dy="913" grid="0" gridSize="10" guides="1" tooltips="1" connect="1" arrows="1" fold="1" page="1" pageScale="1" pageWidth="827" pageHeight="1169" background="#B0E3E6" math="0" shadow="0">
      <root>
        <mxCell id="0" />
        <mxCell id="1" parent="0" />
        <mxCell id="8-rb0V-c5dHq6XPJ8ipe-39" style="edgeStyle=orthogonalEdgeStyle;rounded=0;orthogonalLoop=1;jettySize=auto;html=1;entryX=0;entryY=0.5;entryDx=0;entryDy=0;strokeColor=#000000;strokeWidth=8;fontSize=20;" edge="1" parent="1" source="vf3SE90x5ZzvNgcNMK4X-1" target="q94nttZm7VbdmEVS4brj-2">
          <mxGeometry relative="1" as="geometry">
            <Array as="points">
              <mxPoint x="829" y="1360" />
            </Array>
          </mxGeometry>
        </mxCell>
        <mxCell id="vf3SE90x5ZzvNgcNMK4X-1" value="&lt;font style=&quot;font-size: 20px&quot;&gt;account-service&lt;/font&gt;" style="rounded=1;whiteSpace=wrap;html=1;sketch=0;strokeColor=#FFFFFF;fillColor=#F08E81;fontColor=#1A1A1A;" parent="1" vertex="1">
          <mxGeometry x="564" y="1030" width="194" height="82" as="geometry" />
        </mxCell>
        <mxCell id="8-rb0V-c5dHq6XPJ8ipe-40" style="edgeStyle=orthogonalEdgeStyle;rounded=0;orthogonalLoop=1;jettySize=auto;html=1;strokeColor=#000000;strokeWidth=8;fontSize=20;" edge="1" parent="1" source="vf3SE90x5ZzvNgcNMK4X-2" target="q94nttZm7VbdmEVS4brj-2">
          <mxGeometry relative="1" as="geometry">
            <mxPoint x="1106" y="1375" as="targetPoint" />
            <Array as="points">
              <mxPoint x="1219" y="1360" />
            </Array>
          </mxGeometry>
        </mxCell>
        <mxCell id="vf3SE90x5ZzvNgcNMK4X-2" value="&lt;font style=&quot;font-size: 20px&quot;&gt;bill-service&lt;/font&gt;" style="rounded=1;whiteSpace=wrap;html=1;sketch=0;strokeColor=#FFFFFF;fillColor=#F08E81;fontColor=#1A1A1A;arcSize=20;" parent="1" vertex="1">
          <mxGeometry x="1290" y="1036" width="154" height="76" as="geometry" />
        </mxCell>
        <mxCell id="8-rb0V-c5dHq6XPJ8ipe-49" style="edgeStyle=orthogonalEdgeStyle;rounded=0;orthogonalLoop=1;jettySize=auto;html=1;strokeColor=#000000;strokeWidth=8;fontSize=20;" edge="1" parent="1" source="q94nttZm7VbdmEVS4brj-2" target="8-rb0V-c5dHq6XPJ8ipe-6">
          <mxGeometry relative="1" as="geometry" />
        </mxCell>
        <mxCell id="q94nttZm7VbdmEVS4brj-2" value="&lt;font style=&quot;font-size: 20px&quot;&gt;customer-service&lt;/font&gt;" style="rounded=1;whiteSpace=wrap;html=1;fillColor=#F08E81;strokeColor=#FFFFFF;fontColor=#1A1A1A;" parent="1" vertex="1">
          <mxGeometry x="937" y="1326" width="163" height="68" as="geometry" />
        </mxCell>
        <mxCell id="q94nttZm7VbdmEVS4brj-3" value="&lt;font style=&quot;font-size: 20px&quot;&gt;notification-service&lt;/font&gt;" style="rounded=1;whiteSpace=wrap;html=1;fillColor=#F08E81;strokeColor=#FFFFFF;fontColor=#1A1A1A;" parent="1" vertex="1">
          <mxGeometry x="601" y="1699" width="180" height="68" as="geometry" />
        </mxCell>
        <mxCell id="q94nttZm7VbdmEVS4brj-5" value="" style="shape=image;verticalLabelPosition=bottom;verticalAlign=top;aspect=fixed;imageAspect=0;image=data:image/png,iVBORw0KGgoAAAANSUhEUgAAAegAAADWCAYAAAAaVxFlAAAgAElEQVR4Ae2dbbRdW1nf+d7v7Rh8bO0YdrTDFjtGFWkrKEVUoLxUa1HAF8AqVECBKoKmSvTehAKBe2/uBZKQG8A0IgQvYyS+dKTeS2MsxhutuaJNChSTb83HfF0dv+X97T5nnrX2OTtn733WzvnPMXbmWnM+83n5z/9+nrn22efkOee/cbvLKxiEA+FAOBAOhAPT4sBzsiHT2pDsR/YjHAgHwoFwAA6kQOcThHyCEg6EA+FAODBBDqRAT3BTcnrO6TkcCAfCgXAgBToFOifncCAcCAfCgQlyIAV6gpuSk3NOzuFAOBAOhAMp0CnQOTmHA+FAOBAOTJADKdAT3JScnHNyDgfCgXAgHEiBToHOyTkcCAfCgXBgghxIgZ7gpuTknJNzOBAOhAPhQAp0CnROzuFAOBAOhAMT5EAK9AQ3JSfnnJzDgXAgHAgHNr5An/ijP+6+41+9pHvuc587e/3Iz72z++z//vrkToTv+fiJmY//9i1v7X7zxld7Hz/953/RvfjVr5nN/ecvXthX38/91c3unR99qPv4H/7RFj/G/E8iSSIJB8KBcGD5HNj4Al2LhkWagk3hnhphqq9TLNCf//pfdw/81vnu+S9+cffPvvOF3WNf+sMtGI75PzWc48/yE0UwDabhwPo5sNEFmie9V7/5J2dPnhZo+nc/fHxLcZkCucYK3FSeoCnIFGbwS4Fe/5txChyND9n3cGA6HNjoAn38D77Ufet3vKAvKP/8pS/t3vDun58Vawo3BXxKZBsr0FPxcacCPRU/48d0Ekj2InsRDqyOAxtdoH/uIw/NCjI/d/7o71+aFex/8C3f0n3k9/7rYIGuT6z87Pf003/a/fLjn+pe9K9f2ev7R9/6Tzv0nfgf2z8m5+fDPqm/+dCvdJ/6s+vdT73/17rnPf/5/Tgfr//shz8yeDgYK9DVH3QP/QyawwZ6v/NlL5vZ5/rtH/xwx/qhNwn+v+6d75r5hu5ve9GLup947/u2xMbPwvnI3bjaHr/RP+a/tj//f251n7jy5V4/dtADli9//Ru6I+d/u+MjdGXtK5748BvP/GW/Fy9+zb/p/u43fVO//gd/+q3bPm53ffrVJYdgG2zDgf3lwMYW6N/4i7/qvv9HXjcrKr/ymbPdZ29+rfvhd/zsbOw/PHi0o2i0JKsF8V9+3/dvWVOLE0X3A7/9xS3ra0HhKf2lP/TvZvbq2pe97vXd43/651vWjhW46g862gLNk+2/+N7vHbSDPHPtz4uPfuGLfXGrPtVrDhKPPvXfe/+WUaA/97Vv9IcFimq1U69/6Gfe1n36+le2YFLx5LA0hieFvsWl3dfc728yCf7BPxxYLgc2tkB/+OLvdTwlUwD4ePvkl6/2if/Q45+aFYjveuUru9NP/9mWggCB2oJYi0h7TfGrT9K1oLSy7f3r3/Xu/tAgae+lQPOE/n2v/eFZTK0N71/1xjd1Z7/yv/pYP/PMVzoOCMzxs+QPX/zd/qBy8st/sqUA/uR/+tV+fBkF+r0nP9k/8erPWP/at7199u11cFkEz6l+O9/9Tb/c5BQ8g+dB58BGFmieink6tgjUxE2hpmAzx9Pcg587v2OB5unsVz9ztuMpkGL1no99YsvTZ/3CWVtQXvIDP9h97PKVvtBxGHj9u/7jzC9+Ps7PySXZvRToeuBo/XzXRx+eFUVi9QmT3idZi7A+/MJjH5/5V79JzvxOP4Me85+4OQy5H6/40R/rP+pmnzg0vPWBB2f+tHvS4vndr3p1d+x3f7//OPyTV691r3jDj8708oQ99nG+8aVPUg8HwoH7hQMbWaB5QqxPlXy87YZ87ut/3f3YL/ziLKnX4q1M+wRNoasfhbcHgFrIakGhAD986Q9mttHf+kZR0+5YgWv9sdDyu9z4b+FrP7LH1g/89Fu6t/zaA93xJ7/UHzC0NdQT188ff2ymr8aF/L0W6F//rc/PdL7w5a/oPvkn12Yxo5eDz4+/570zmbonFU8+EeGTkep71Z0CncRbuZHr8OF+58BGFmiSuk+I9eNtN4unZueHfie6FsSxL5Pxs2cLYy0MtaDwM3B+Fq5deorgm37p0GwtXyRzftECTQHmCV0/2p+Hq3es50tZfKJw6Myn+2+4+8Ut9S2rQP/U+w/PfORwxCGp9akWWmIiNmQqnkN7WefrPrT6c59kHQ6EA/cbBzauQJP83/i+X5oVBIvNvL4+xbKBtUAP/b4vMmOFoY63BU5yUJT1Zy8FuvqJPmxrY15PYeYje/7giH4M9a3/9/oEPRZv9bHiVgvt2Lhrd5pXLn2SczgQDtxvHNi4At3+vHOo8LRj7e9E18LHk/aHLvzOtsK3myfo+iQoMVb5BM1TqHbm9b/+2c/NPkEAC76NzpMt4+/40IdnRXtZBfpnjnxgpnMvT9C1cBtfCnSSrlxIHy4cNA5sXIGuH5W2hXjsvv0YuxZo1rQ/221/Bs2vB/3mza9t+0h26Gem7c+g33fyk7OiuuhH3NjEtnG1fv7Npwm/3L327e/ojnzhif53r9s1PN3y62cSe8wH5u/1CZrvAOjjXn4GnQKdBCxP04cL4cDtbqMKdPulKX7nuRafuqHtk3Ytbm2B5tvRfHObb3DzhSY+HmbMojPvW9z1W8d8Y7n+/HmV3+Ie8pMn2fZXpupTNwcPvtVtXPOeoP/Jt317/4df+m+2P1vgx4o7v75V/4DKvX6LOwU6Sbm+h3MdPhx0DmxUgW7/56r2Z8t1M9ufVfOXqT71P5/pnyTbAm3BGurbJ8L6keuQfB3jm8sUOP0aK3CtP9hwzW5/D5ovw/HrXu0hhm95owM/3nfq9JaDx6t+4o3d2b+8MbPF/1717d/13bMCbiz+HH3Mfwr/L37i5JaP1V3b9u3vhlc8U6CTkOV9+nAhHNiwJ+j6O8FjX+6qm0ry99vc9P5OdFsQ+VOS9YnZorLTXxLDh1e/6c3bChrr1/mXxPD98H/57OxXxfgTp/7pUWOx/4fPe17397/5m3ufX/iyl/d/5lTMxv7zkZ0KNOs5APBnR8Vbe7Xno/h6IGBdCnQSsfxLHy6EA1s5sFFP0Hwka8JvP54d2liemHlydo2/f9sWaIrEI//tyY6/xkWBoeAhW/+CmPrbgsKf8+TgwJ8Mxc46/xb3C17yPf1H1nzErH/2xPOaN//7WTHm74zzUT0/I6+/W43vrqE/9cdP9/MeWPjomo//+Wb42BO063mSHvpb3Bxi+NOjO/0t7jxBb31zimv64BIOHEwObFSBXhZJhwr0bnW3BRpdu10buYP5Jsu+Z9/DgXDgXjiQAr3A7xcDcAp03mj38kbLmvAmHAgHFuVACnQKdD4B+EYSx6KJI/LhTDiweg6kQKdAp0CnQIcD4UA4MEEOpECnQOeNOcE3Zp5OVv90EoyD8dQ5cCAL9NQ3Jf4lcYQD4UA4EA6kQOfpKU/Q4UA4EA6EAxPkQAr0BDclJ+ecnMOBcCAcCAdSoFOgc3IOB8KBcCAcmCAHUqAnuCk5OefkHA6EA+FAOJACnQKdk3M4EA6EA+HABDmQAj3BTcnJOSfncCAcCAfCgRToFOicnMOBcCAcCAcmyIEU6AluSk7OOTmHA+FAOBAOpECnQOfkHA6EA+FAODBBDqRAT3BTcnLOyTkcCAfCgXAgBToFOifncCAcCAfCgQlyIAV6gpuSk3NOzuFAOBAOhAMp0CnQOTmHA+FAOBAOTJADKdAT3JScnHNyDgfCgXAgHEiBToHOyTkcCAfCgXBgghxIgZ7gpuTknJNzOBAOhAPhwEYV6C4tCBwQBJKck5zDgXAgBfqAJPxFwrxz5053/Pjxjj5tfxBIck5yDgfCgRTo/cm/e7Z69+7dvogeOnSoO3z4cHfhwoXuxo0be9YbBdNAIMk5yTkcCAdSoKeRjxf24syZM93Vq1f7dXniXRi+yS9Ick5yDgfCgY0t0BQonh55HTt2rC9W9anSOfqjR4/2H9e28+hwjI90L1++PNPpGjI5hbDq8/qJJ56YPcXyBEujWLIWGdbVe8awaasxqJOn4Z2ehPH5/Pnzve/qotdP4iAedeobMlzrm/L6hF3sO191sw6dxlbxqbZZf+LEiUEdVV9do5/2Dz/8cPfII4/09ob2pPppbOI8hDl6K67Kao81NHAgrnPnzvX+c80ca+nliuvAgzHXMo6Oqv/KlSuzvWjlxR3d6qTnPsk5yTkcCAc2skCT2EzMJEcSKkmbxPiFL3yhT5j03JNAL1261I+1/zDOvIm3JlCSpAkUOfTzUtf169f7e9a2xVJ/qm/axm+TvevUj4w+KT/Wo6dioJzJnp6GfxRMfLfhO7aJF4wsKs5XfxxDjoOQeoyDecawgS3k1OvaeX1ry/h32hPiM0ZsWky1xZhcqDbaOLBT40cnsckf5rRTY8aOslyjx/3kHkzAmVZ94R6dvJzjmvU0/UlyTnIOB8KBjSvQJD4S7lBzriZLkiNPYTQSan1SqUmyLSpVh8ma9SZrdKKbVgtyTdr44xNptUuir0lb/dgci6031PyD/+rVL3Tzqq36zTjz9TBSZbnWnzpeCw7jtei18hWbqmPouq6tmIPPbvYEOQ4OYIGPNrnAffWn+q1sHcMH7IqrWGKHQ4Dj9pVD7bx7UvFHnsOM+4x+ddnDmSTnJOdwIBzYuAJdk6kJtu1r8XOOJFmLUi04NZkrzxiFt7Yx2yZg7JKASfI0n7Krjva6FqV2brf31f9a8FxfDxCMDckoO+ZPG4s6huTBSQzUO9S3a+u+1Zhc65647tatW7Onev2psj7B1rl6jay69JeCif/Iua/IYVt92qh962/litdwA/1V7xhWSc5JzuFAOLBxBbotFCQ7n2JMmCR6n5odq0mRZFw/9mWu/Rll+/SGnvokpl56C0tbCNukPaQDX0jSu23IEy82aTUWrvG74kFB4GVDpn4U67j92HyNvZWpRQ+/sI/MTk3clKt4zdsTbfiRe+sP+iyK7ZwFUpv4ii2a/tATL2vdG+dcR1+5WPnFXMWEa/bFfdA35Oo199pMck5yDgfCgY0r0CTK+lFifSomuXHvR4XIIW/iq3PIOE9ypWj5cXQt1qxlXp30Jtpe8bP/kOjHxuvaWjy5dq61WXXXa4oY6/SV9RYYixGHD/VWe/jnuL1r2xiZFx/XgR94iqPx4lP1p9qsvtfrugb5ap9rXkN74v6LV93z+qU9dNY5fa1jxOg48ujErvzimnHiZZ04iN3QuGvE79SpUz3m2lGHa41HnfR97PkLd/mYPxw48BzYuAJdk/yyrtunmN3q9YmPvv04fLc6lilHsudpbT/bsny41z3Zz9iXaTtPT3l6CgfCgQNfoHlC8umF60UaTzo+KVGY9rPVJ1KfLtflj0+FYLEM23vZk3XFvGo7Sc5JzuFAOHDgC/SqE230B4F7QSDJOck5HAgHUqDvJXtmTRBYMQJJzknO4UA4sFEFOoQNYcOBcCAcCAcOCgdSoPNNyQP/TcmD8mZPnCls4cBmcSAFOgU6BTocCAfCgXBgghxIgZ7gpuSUu1mn3OxX9iscCAdWwYEU6BTonJzDgXAgHAgHJsiBFOgJbsoqTmLRmRN+OBAOhAObxYEU6BTonJzDgXAgHAgHJsiBFOgJbkpOuZt1ys1+Zb/CgXBgFRxIgU6Bzsk5HAgHwoFwYIIcSIGe4Kas4iQWnTnhhwPhQDiwWRxIgU6Bzsk5HAgHwoFwYIIcSIGe4KbklLtZp9zsV/YrHAgHVsGBFOgU6Jycw4FwIBwIBybIgRToCW7KKk5i0ZkTfjgQDoQDm8WBFOgU6Jycw4FwIBwIBybIgRToCW5KTrmbdcrNfmW/woFwYBUcSIFOgc7JORwIB8KBcGCCHEiBnuCmrOIkFp054YcD4UA4sFkcSIFOgc7JORwIB8KBcGCCHEiBnuCm5JS7Wafc7Ff2KxwIB1bBgS0FuksLAkEgCASBIBAE9ozAMgp2CvSetyEKgkAQCAJBIAhsRSAFeiseuQsCQSAIBIEgMAkEUqAnsQ1xIggEgSAQBILAVgRSoLfikbsgEASCQBAIApNAIAV6EtsQJ4JAEAgCQSAIbEUgBXorHrkLAkEgCASBIDAJBFKgJ7ENcSIIBIEgEASCwFYEUqC34pG7IBAEgkAQCAKTQGClBfrMme/pDh16Tv86fvwfd3fv/t/BoBlnvspevvyB7ujRv9PduXNjcM0qBvX3woW3rUL9Np03bvxOd/jw35rFbfz26/JDx4h/3j4hJ0b6SH/16sdVsfK+5Qr28Wleg0NwCazBfN3Nfd4tTmK87v1fNy6xFwSCwHwEVlag22RPshlKpCbPmvC9XndCXXdiNHEb71A/hNn8Lb23WQvfTociMaq+rstHItPPRezLsXXzyZ2gMOPvbguuGO9WXjvpg0AQuL8QWEmBpvAcPfq3tzytMHbs2N/b9kRMEiJ51SS/3wl1nVtswWkLoxi046vybcyPMXsWEfZuXT62vnjAqdxpZaZwv2iBnoLP8SEIBIH9R2AlBZqE5EelJv6xRG6Bbj/+Y9zEX4sB1/V+6MnExM2c8xY87uuTVPVP+aGEX3US24kTL5h9NK2f7XYam3rPn/+xLR/lM6/9Vof2xLHqNuGrt11bZVsfhvS1Muqlr1ipVyzRxY8ikEOHre7PTvu1iKz67cVoaL+Qcb7G0/JMXfTuRZUnLmNQdkiuxQBZcar66nX1e0hnnde2/ZB83QPkKk/gK/ul/SEeqDt9EAgC00BgJQXapGYSIdGQLIeeoGsSHUsarDexjPU1mVWdY/La0scqV3W5TTvpbIvkbnwGpyH71Ze2oMzTWxP0InpZV23W66ECrTy9RUg8wWuej+oW40Vk3Qt790Rdjts7r036Fs95snVdja8WvirDdd0DsWllvK9+D+1XnddP+qG41Fl5OM9P5GtMVX+ug0AQmAYCKy3QJBKLcr1uQx9LJDWZ1qRUE1dNgjU5YqPVW/W1PnCvjaq/ylVbVRfytZBptyZL9CBHYqzjQ4nZZNvKqrfaQu/QuEW02kJ2bFw/WvkaP9dDcuqsmIglMVQ8K4bu1yKy1R/XVf11vl4P+ei8MbW+Mi+2OxWzeb6ow3i1O9bP0zXm69i4uipnlN1pr8f8y3gQCALrQWClBdpkTIIiUVis54Vm8iBZ1qRiohlKlGNzJsbdJiL1jCV842l9aJN/e2+8rq/+GG8dQ95xcDCx41fFRL302qR3batTefSgF3xsO61RToxY374qbsq1WKGnnWvvtTUkOzRX7db5ei0+NWbn59l3z1ob6puHgfrlIWt20/SntcnaeXP6Wvd9TB7dY1zajY+RCQJBYPUIrLRA474JwkRWE6RFYSiJt0lNPUNJy8TU6ml17ATnPBusHbNjsja29l67rq8JVAzqWCtvXPOSao11nk50D/m30xp9wgf3su1rwp+HpTgY1yKy+kE/b12V43ooZmUW0cOaeRgM8bPujTbn9fP8mTc3tIdj8vO4NM+3zAWBILA+BFZSoElIJt95oZioSfQk0NpMgo6baFpZk1I7jq5lJkb06W8bW5v8tdsWXWOq4/pfx8TBmE366q2FsMZZx/Wp1Ts2PuYH8uodi7/6gDxN39t90U4dX0S2V/7sP64TnzrXXhs3GLbNuPBpaB794jhmc2wcW+6b2DCmzSHf5+mq+NW1Y+NjuljrvrZ45D4IBIFpILCSAk1SaH/NaihckxSJcehVE4iJZkiOsVo0TcZjsjUJ7yTbJmZ1Ok6ic4xe3e14lXHtTjG5Rp1gOE9vLQA1Yaun9lWnezOmm304e/ZVW+J0b4bsEN+1a5/sC0C1Wa/rfu2EQ5Xd7X4N+VXtc028NvBo5+u9e7YTZ1kjNuqeF58+7DYudM7Tp5/ItTGBI/7TG1vrqz6nDwJBYP8RWEmBJiwST02sJIt6j4xJFNmhZMK8zaSELC8TDH0tTMjvlOywZdtJ1oSnfe063voyT7e/6uLaVqe6a1/16XOL1bwk28anbXXV3v2o9omP1urR5tAabFigd7Nf4rAb2daP6ivXxjfkVytrbGIwVnx3ksMmewIm2BAb9dLvtGe7jUudQ/G1frY2U6BFL30Q2AwEVlagCZ+EYVIcSlqLQFST+CLrpiRrAbCITMm3ZfuyyH4tIrtsP6MvCASBIDBVBFZaoJcVdC30Fvz2aXxZtpapZ8hv/Odp6X5uQ3GP7dcisvczZoktCASBINAikALdIrLE+6Hic78XZ+AbijsFeonEiqogEAQOBAIbUaAPxE4kyCAQBIJAEAgCBYEU6AJGLoNAEAgCQSAITAWBFOip7ET8CAJBIAgEgSBQEEiBLmDkMggEgSAQBILAVBBIgZ7KTsSPIBAEgkAQCAIFgaUX6GUojI7bXTAIBuFAOBAOhAN75cBz9qog60PCcCAcCAfCgXBg+RxIgf7G8kENUYNpOBAOhAPhwF45kAKdAp2P5MOBcCAcCAcmyIEU6Aluyl5PXVmfk3s4EA6EA5vPgRToFOicnMOBcCAcCAcmyIEU6AluSk6+m3/yzR5mD8OBcGCvHEiBToHOyTkcCAfCgXBgghxIgZ7gpuz11JX1ObmHA+FAOLD5HEiBToHOyTkcCAfCgXBgghxIgZ7gpuTku/kn3+xh9jAcCAf2yoEU6BTonJzDgXAgHAgHJsiBFOgJbspeT11Zn5N7OBAOhAObz4EU6BTonJzDgXAgHAgHJsiBFOgJbkpOvpt/8s0eZg/DgXBgrxxIgU6Bzsk5HAgHwoFwYIIcSIGe4Kbs9dSV9Tm5hwPhQDiw+RxIgU6Bzsk5HAgHwoFwYIIcSIGe4Kbk5Lv5J9/sYfYwHAgH9sqBFOgU6Jycw4FwIBwIBybIgRToCW7KXk9dWZ+TezgQDoQDm8+BFOgU6Jycw4FwIBwIBybIgRToCW5KTr6bf/LNHmYPw4FwYK8cSIFOgc7JORwIB8KBcGCCHNhSoLu0IBAEgkAQCAJBYM8I7PXpmfUp0HvehigIAkEgCASBILAVgRTorXjkLggEgSAQBILAJBBIgZ7ENsSJIBAEgkAQCAJbEVh6gb5x40Z3+PDh7tChQ1tex48f7+7evdvVecauX7/eyzt/5syZLevQg76Pfexj/Thyt27d6o4ePTq7v3PnTse4ss6xDnvYdV4ZxmurdvWlXWdM6q3rh65rrPh07ty57urVq92FCxdmMXLtPT3Ne+2149hHj3Hi7+nTp2c6uRcjZE6dOjWbUyc9OmxgqD7ndhM/OqpOcKwxDPl65cqV2RqxFH99av0RA/0d6usaYrl582YfE9fM0eqeaNsxbSNnXE8++eQWXIzVtfqh/8zvBgOwbf0Rd/3hnrjVrU190xd77aLXNcw5XsdcQ1/jNp70QSAI7D8CSy/QhMQbviZFE6eJgJ4iwjg9icMkwnqTEvPHjh3rkypJ68SJE/0aeu4tIMhzjyxr6rohiLFlwleHvnlfdVLs8BMZXjW2If1iYELlvvrHvT44rv5Wn1jhVxuXaxnXb+S9rn4ST03G3DuPHq7paejQd3Qzx5it3S/Hqz/zfEUe++5561vVg2zrn/aG+roW/XCFF5gQgzHrg/fIsgfIoYP4q39ei614eE8MNPHificM0KFN1lb/sKdObWjTOddjBz3IK+va6k87JwbVhz6I/BMEgsAkEFhZga5vepIESYUEQSN5mGTo2+ZcTbYkI8btXaOsyQob6DfxImdiGnpqQLaOe60t4qBAe1BAvsamH7XXHrJDzfnLly/3uvC9ttYnfKFZOPSR3jhbncxVP8VJOyZunmaRq746h19cG7tr+SQAX2jIVH+0Oc9X1mFPn1jvgcA4qk6vW5z0p/bI4IPYoo9WY1IeH8HvmWeemRVyYmOMmMVEX4f0MGfM6iUuXvMw0B9jswcH/EGnY/bEJj5c65e6HBvzp67VV3SwLi0IBIHpIbCSAs2b3qRiX5MGyYtxk3KFpSYREpxPxSQRdaGfpiz3bTJsCxc2aW3BMZn2k80/6GW+rmFM+4347LbKzwbLhQmVeCouiKBb37nHvvYqHsyBieurTtfQ08SpJmJ0Yefpp5/u+6E5ZFpc676xpu4hfmpznq/GhS58QI/7bBzVnz6IXf6DD/Kk6jBeehvz2L99+3ZfoL0XP3H3nnXt3jJnzMyLNWvnYTDkj36pQ/+rzXot3ozBA/p5/jBPvOJjrx3tpw8CQWAaCKysQNek1SYj5kguJkQSB0mJjyIZ84mNawsQ8r7UXddXOOu6IdttUan3rTx6GbOAVDtj1yZC/LVVn5g3xppQTcyuYw1JtN6LB3oZ9x4ficN75sRJf7zXDvf1Gp3tfRu78+pXp/a9r/G2vqpD3KsN54yjXcv9vKZf6KQY0dPEgPn2njns0duQIwb94ZpWfeUeOey4tt7Pw0B/xAtdXPNiTn5os8bCGA1Z43l2aK4/rV51VB8cqzGpO30QCALrRWDpBZo3uyfz2pNITHaO+zEk9xcvXuwLDNfIktyUO3v27Gzu0qVLs6cAE7yQkTwZc53Jq/p0/vz5Xsa1rU/aR6dJVH11TptjfeuLCa+OM0ac+OJ8jZsDC4UDu48++ugsLhOzfj322GO9DouMa/QXm+jn5RqxGYoTH2jVF9fRox/caiyM4S/zH/rQh2Z2Wl/5Mhuy4o8f6h7Sy5yyY1g7XvcZvd4ba/VXnXWPwccvlmH3yJEj3UMPPTTzT+4wh26bdup4jYv59p61Lb7Yv3btWh8vurhHBl+9x9+qq47P86fGzhpf2ECnTa7QpwWBILC/CCy9QO9vOLE+hABJ3uI3NJ+xICACFH9eaUEgCOw/AinQ+78HK/WgPt3x1FSf/FZqOMo3DgGepOEHn46kBYEgsP8IpEDv/x7EgyAQBIJAEAgC2xBIgd4GSQaCQBAIAkEgCOw/AinQ+78H8SAIBIEgEASCwDYEUqC3QZKBIBAEgkAQCAL7j0AK9P7vQTwIAkEgCEuKfXgAABQ2SURBVASBILANgRTobZBkIAgEgSAQBILA/iOQAr3/exAPgkAQCAJBIAhsQyAFehskGQgCQSAIBIEgsP8IpEDv/x7EgyAQBIJAEAgC2xBIgd4GSQaCQBAIAkEgCOw/AinQ+78H8SAIBIEgEASCwDYEUqC3QZKBIBAEgkAQCAL7j0AK9P7vQTwIAkEgCASBILANgRTobZBkIAgEgSAQBILA/iOQAr3/exAPgkAQCAJBIAhsQyAFehskGQgCQSAIBIEgsP8IpEDvYg8uXLjQHTp0qKNPCwJBIAhsAgJ3797tjh8/3ucu8tcycxi58OjRo92dO3c2AYqN9TEFepdbd+bMmRToXWI1VTES1okTJ7obN25M1cWV+0XsYAAWafcvAhZnHyoopMeOHTvQ3N/E3V5JgZYcntoOHz7cE6MdX3QegH2aZS2nQxMNBVR9V69e7bznmgZBOfFVGcaVYw5ZfEWGcRoJzbFq03WO3bp1q9ePnqeeempmR3v2V65cmZ1q8R+/POU+8MADW2y5psaJj47T62fF5dKlS7NY8f3ixYuzNe6F/jNnfOiuesSuB2LgH3XgBz5WDOadrFtMjaeeyMf2q67F5vXr13v/xWgMH9xvdWL3iSeemOHPPfFXuYqPftJrD70VM3VUuOp8jbGOV92Mj7XdrGllqr4WH/lQcUXevWWexK5/zFV8nnzyyZ5r1Ya66thQPFUPuNy8eXP2HmKOpi7st75WfhqX/uivvWv1w/iY55qGv9pBHz5xX/e6+sMccnUMHerWpr4hX1+tXefEjb7yBR9Z044ZU+3xCTn62oxRW/babGPRd2Op612D/rpOna2fde2YTPU11123kgLdAgup3EzflGy8jXlebDLJgETPmwIZXm60cqyz2DNW712DHnSgk1clKzISTpsmBOZ8Q+qrBY/eU6j2kfdaP/Gn1asM8urlmlbjcq71Qfz6Bc/+U22wTt+YrnPcs16sfKNU+1zzUobrGk+163WNyeud1rgWO8Y05PvYfrEe38CHdfQVP/XTtxi4Dl9p2Gf97du3Z/pcPw8L9wiZtrU2apzI6qt4Ie/ezNNb7bCGBCd+3MvnKsf1PH/0QT3VV+dYL870NsaRp7HefTcG+av8WF/3CH083fuEjw31tnaQ1QY6iL/643WNAx3eG7P+cs/1vPdQi2X1D3vq1AbzNOdcjx18V74XevYfZdBRfWMaefZdvXVde+3aIXnWz+OP/iMjjlW/860f6nXcuFnL9dh+Vd253orASgq0G8gG+3LT2jcB7pw7d65PpsiwiRRo3yiQkjGePOublXXOSWbWoMO1yOhLfTNIXmR56aO9RGIOm5zsW93qvXz5cu8fa12HXdbW+zZuyYtcTa41YaGHVuNs/dVGq7+1jw5t4qs2iYOEyJMoPfZpQ370E+WfnTAootsu9YUJbIEzvTrH9gv5Ggt6ahvDp8qwpu4X2IEjvQ0b+tBiiRw68JWGnNyh16fWF2WwxaFAniKPjoqDfgz1yGqD+RazMX/Uhf/gjT/IVh36aE8MO+GDL7zgD7Ghm/f0bprY+j4SU31k3iY+zzzzTG8Le9jBHlgaS8Wn1cOc7xn16j/6eV8YOz260aGeOsc18viDznYO390brvVLXcbGeF3r3uIPenmdP3++tyVn9H1er211Y4emH65Vznn8m2en9V89VW/V6b7R0+qca9MPI7D0Ai34kqzd7KE3gcXCDa5rGPM19sYitKpX24wPkakShjdJ1asPrHWO4gVhLdSsVy/kx15dx9r2nrHamEcnL65t2gRHG/p5MSdWzFUb+IQu/KK1eliPryQc5pR1v5yr601O+tH2O2HQynuvTfygVd/V6Zzz+IIczVgqFoyzpo5VfPqFzT/iil7WVQxYqw9cM1dfcoa5ihM6GaPRK9eY3hKza/CDolP3vl3HvfLOVczm+aO8fV3X7glzcASfdsIHfyywxMs1Y7tp+Cuu4s06bNY9Z4x5xjjcgJP34iHu3rOmxsE9c9U342YtNn1faM/9G/IHGZo69L/arNfYwDZj6KVnbIw/2CRO8AQjeu4ZX7Rhx1gqPujBD3zQ/xaH1tYYFlVvxcR9wg6tzrW6c78VgaUX6Hbz2LSaNNvNd7MgkK2VYZxNrnrae9f48bj61I8ftPYeOeeY59p7bJhwIDAfcUty7OGP962e9r43Xv5p1zvFurE4q2+u11fj901Q7Ruzeqss8sRQDx/Ko2Ne04cxDMbWYtPkj4w4Y1fbxtXeI88cvrGuTW6u0zfv6assPnCPHmR94lM3PfppFUvukWetT07ihDyJtL1Xjza9R5fx1bHe6Mg/yos5YvjKvXvZ2ude28jasCknmK97Yoz08/DBn7ZooFcftDXWI4dP1R6y+quees+18aoXOeyKj3iitxZd5CoP6j1rKq7Mea/9ih/XvJgbw07/6JFFp01fHcN+y59qD3ntqWOo11cxqHa8Ni7Wo7Petzi0NpivGDKvXmOpmLAH8Ex/kJF3re7cb0Vg6QUa9Wy4p2I/mmFD6peVnKeXHBKrzrnh6OXaOdcwzsbXcU+cyrR6JUr1E93tvaRTNz1rJRz60U2vTPulI9dshf3/J3l01YYPvNnVV98I2mUOmyRGrk+ePNm/YVxT+9OnT/eyviFaDJlXH3vlWvyY1/RlCIO6Z62Ouhf4VG26rsrgj/vV7gf7LPZ1X4xHfIyl7i8y3BuHcYO3Ork+derUDBNl6PUVu45jz7XOD9kUk3aOtcQ4r4EN/MA37aLHNs+fFlfWt7ihlzH2hvn2i4sVnyNHjnQPPfRQL4c8nzQZv3zTr6G+xg9e3otd3Rv11RjwxS+W4Wv1h3tzD9cVI+3UcWxy71h7j/8VW+Swf+3atRlWLXbc42/V5TrGW52VP74v9afarrEM4VpxYz0vMcXuPP60a6utipt66T/4wQ/OsKvjXLtv8zAYiiFjf4PASgr0/QYu5KpE3Ut8vAF4I/JqdVqAeDMuo6HfN+Yy9EXH/iMAf0iwJvj99ygebBICU+AP+a3NfZuE4Tp9TYGeg7YF01PhMkjlSbJ9WmpPrp4857g3d0rfl1Xs5xrL5FoQkDvyseXQWpyIkY1FYL/4Yy6St8vIoxu7CQs6ngK9IGARDwJBIAgEgSCwDgRSoNeBcmwEgSAQBIJAEFgQgRToBQGLeBAIAkEgCASBdSCQAr0OlGMjCASBIBAEgsCCCKRALwhYxINAEAgCQSAIrAOBFOh1oBwbQSAIBIEgEAQWRCAFekHAIh4EgkAQCAJBYB0IpECvA+XYCAJBIAgEgSCwIAIp0AsCFvEgEASCQBAIAutAIAV6HSjHRhAIAkEgCASBBRFIgV4QsIgHgSAQBIJAEFgHAinQ60A5NoJAEAgCQSAILIhACvSCgEU8CASBIBAEgsA6EEiBXgfKsREEgkAQCAJBYEEEUqAXBCziQSAIBIEgEATWgUAK9DpQjo0gEASCQBAIAgsisJYC7X/YzX8YnhYEgsD+IsD78MyZM/vrxIZaN5cdOnSo87WsvMaeHD9+vMPGqtrVq1dnfus//dGjR7s7d+7s2eyNGze6Y8eOLUXXnp25DxSspUCvg3j3wV4khCCwFgRI0stKyGtxeMAIxYS8sspi1pq1OFuQ8YFiRFHapDZURMHSuPYSy5Duveg76GtXXqDZMJKBJIYInthIFIcPH+7vGae1JzzHIU898XnNvDods0cXdrXBOGPqomdtPbX6JqxjyrOeWL761a/2vXbs95r0tK0+fNN//HniiSd6DIiHOLCHLHMkC3rX2iMr9upybggf5+jPnj27BTvnKjbocJwen2kVs0uXLs18xZ+LFy/O1uife4g+GvEYH3odV445xlivXW0yxpzrH3744e6RRx6Z2USu6scf1/TGCw+163jbVz0VB2wzR9Mv5us4c3VPmDt37lzve11T9TLe8kQM0Qc+dX+UrWPYxJa86J3cwz/uCX5SsPQX7BbFp/o5zyV0a4e+YtDOKYeftupzHXd+qB/DrerSFr3ccS/1UXlj9b6uwb7rqs7W1yGZlmNtLPilbebkoP4yVn2aZ7PqGcJ9J1/G+AFWTz311Oz9XTHQZvWRsVu3bvW81uaQP+gBsxo3Y+6N/qBbbOm5V2+Lj/4ojy5sI49u5q9cuTLjq7b0X9y1bazoW3mBxgleNshQPwLBOQNUxr7K4nw9rbbrBMdguRfQKsv10Ca5Dl8FED+4R5fNeEx82vC+xuqaRfoapxsmPnUOnRUfryEp8sTDS/+4Vg9r61yrl3njHvIBnRUT49MH1rQ66xzyrBcrrtkTfKIhiw16GuPuSaunxjXPJnPET29jrT7Qiw82sOec8kO99sFdfhKPutBRseJevTUudBvb7du3+/XMixN+gwljbas29F055sTOdfN0KbNIjz5j932gfXqwmIePeLjW+3k+IFPlhjDXNv7hAzLacE/Ewvt5NpWtXFWe9XWce997yLgvVca19BXDOk6M6mllmJNn6q+YVD31Wl/xxZfrdsIHuVbWe2ygu95Xu2PXdY325Y+YG6f3rKmyXouVtnxPsQ6/WEdDf5VlnPtr1671ctg7f/58d+LEib6H36zXjv55z/p2f6ptbCIjNlxXLrSy3OPPSgu0YBqMwEgKe8EfmneuDZ4AnWNdBZ/7ahv7yF6+fHlGSH1yjnmeXkhmXLOeOX2sPfMkUZMS9mjI101/dnihzjjVhV03lU3Dv+qL9oxjKBHiK3J1Hdcm7pYckg6d7RzBVOyRqXrBhvXGwXqa/jGnDves+qJtbNjavaz2uNbmPHzQ4b6qFxu8sMkbkRccACv2tvrgmrZHhjgqTtzzarHRb/2gH7JRsRMj9OMXvRipjx5bNHFGd8tnfRcn1zh+r32NHZ3yCn074SN/tY08vssTx4f6Fgd07XS4GdLvfg3ZaMdam+6f+6R85Sxj7stYXHV/1aEt96nK1GvkldUfdQz1yFS5umeMt/iLD3I77VeLw5D9dgybrKO1uFVuuU4ffU+T1/G55gJlxV1Z7lsbyLZ4Iuf7q+KBbcdrj//oGMvP2DBOdfg+ce+qPq9XWqAJUidawCSqTjPfyte5dqPqnAGy3lYBr4AgUwsr95IKX7lnQ9hE1tXNUTd96w9j8+Tr2nnXdZONkZ7W2tRX4lcWv42PMV4ViyHbVU87PzQHXryYq/urDzv5yjzrISFvePTgM77v9OZp/dmtzYqrSYa16AM/ijPXzMkH5ndqyta9ERvWj/Gn7lNro9WFHsbwkXXoxAat1UMM+tTyWTvGydplNPSAm0mlckJf2pjwYQgf5I1tEd9YAy714Ix+xsWMvtVv7kB20ab/6icmG/GCCT1NX5xv+6E9Qa/vZeQrhq28cVQfWhveg0GNFzv4ytp5+BgvtmxVXh+qbuXm9dWfNmZ8at9D2tRveKcO+trEXd/Q1+4N8oyDATqVBXvec+Ym5LRdbXhd90ed1XfW7jbnqXPlBdqgNShg3teA6zXB8kZnjNZuFOMSwY1SVoC9pwcYdLQEQId6sMM88uhA3nXOSeR2Tn8Zrw1dLQZ1vr1Wb/Vd/5irG854vUdXSxLGWnwYQ782Wr3VJ2zUhIus91WH8auz9QM9zrk/6qmyzrWy3lc9O8VR8cEGT5SuUQ/xgA840tuYZ263bQhDxsb4455gx9bqEIvqB3HAJ3oauIgj9+irOrGDDLps3IunY7VnbhHO1rV1L+t4GxtzjFXf2/u6vl7jX+U968C5xo08cu0Y9zW29r7aqdfuF7Zo7g3rnRNT57xHfsiXqh89NSbm2r3GtjLMgZ3+sL5iWXXXa31znXYsQi0e9Z411UZ73+pmvmJd/fC6XdPyp42r2hQDMUFWzLn2np498rDjfjFOa+/R4Qt7XNPTWFMxqHuEjL4o671xurbG6Zyyde1KC3R1HqMEyhvJN1N7L+DM4yynF675ko/r6ngNFiLwUk7wtQF4vJxHlp8xeI88r3rf+swc+gQQHfjAuL70k8/+08Zf54au9Q8bkkZ/Hn/88ZlvzFdfh+RZJwbYUrf68B0brHWsXcM65iG2Mq5jbmy/Tp48uWUvXEt/+vTpfm/Fq8YhQdvY8V1f1MW66vujjz4685Hxqvexxx6b7RPriQFbXD/44IPdkSNH+mvGb968OfO9xto7MPBPxUDf9Lf1mXl8s7Vrq70aG+vEptUJh8GSF1/q0wfirxhwTduJkzvN63vbt3tmnG2M+FfxqT7WGFv97X1dN08ncxVX9FRs9bPV394PxdFiip2KvzrGfDUxu8b+/e9/f8fL+7YXp1ZvG6f27ds9Uq/vReXm4VNt6ofr6OvaVm+V47qNXy7jl/tCP5R/3A98IC564+HLtN7T82M/94Z77LqeNfqpP8j441DsK0vsymiLnvGKC2vq/W5ynjbUq08rLdASor4h201axj36BX4Z+najw02YJ+vGzZOZ8pxkXNb+7QazKeOx6b65n+zDWNt0zo7Ftcrx/cg/bTz4MG9fW/lNuJevy8o/mxBz6+NKCzTGVp2U0e+pg37VJPXQUW0OEQg5fIFkm9jGTnT3GkvebPeK3PLW7VRINp2zy0Nq95rWnX/0zPeTeWjVeU+76+qXnX/W5fey7ay8QC/b4egLAkEgCASBIHAQEEiBPgi7nBiDQBAIAkFg4xBYeoFehsLouL2UX1APjsExHAgHwoGDzYHnhAAHmwDZ/+x/OBAOhAPT5EAK9DemuTF5w2RfwoFwIBw42BxIgU6Bzkfy4UA4EA6EAxPkQAr0BDclp+aDfWrO/mf/w4FwAA6kQKdA5+QcDoQD4UA4MEEOpEBPcFNyes7pORwIB8KBcCAFOgU6J+dwIBwIB8KBCXIgBXqCm5KTc07O4UA4EA6EAynQKdA5OYcD4UA4EA5MkAMp0BPclJycc3IOB8KBcCAc+H9nnDTPXWd2agAAAABJRU5ErkJggg==;labelBackgroundColor=#B0E3E6;fillColor=#F08E81;strokeColor=#FFFFFF;fontColor=#1A1A1A;" parent="1" vertex="1">
          <mxGeometry x="3336" y="1689" width="409" height="179.36" as="geometry" />
        </mxCell>
        <mxCell id="q94nttZm7VbdmEVS4brj-6" value="" style="shape=image;verticalLabelPosition=bottom;labelBackgroundColor=#ffffff;verticalAlign=top;aspect=fixed;imageAspect=0;image=data:image/png,iVBORw0KGgoAAAANSUhEUgAAAvgAAAFiCAYAAACDN6xbAAAgAElEQVR4Aey9X8xdV3rep3sDvowBX9a5KRBEhQOk6UwBp4lrGUWQ2o6Tqk2LZOxghDhOp00iJ5lgHFYuPR0xlU2MJEaaUqpMxaXpiUVWY5D2GGYtCRw6Y2KEQajKUzIztkzBgTVsCnh4Mb3YxW/PPKfP93Ltff585ztnf/t7FnC49l5/3vddz3r22s9eZ3+Hj1x+7/0un2AQDoQD4UA4EA6EA+FAOBAOzIMDj2Qi5zGRmcfMYzgQDoQD4UA4EA6EA+EAHIjAzzcY+QYnHAgHwoFwIBwIB8KBcGBGHNhY4P/Pn7vaffd3f/dan49/5vxWyXPpK3e7f/DpZ7vPfOG3D9jFj2L7L/7OT3a/fOerB+pf+/173ad/4ze7n3r+nx8oz1NvnnrDgXAgHAgHwoFwIBwIB447B46lwH/t9/6g+5/+5eXuP/r+7+/+7Pf9+e6Ft75wQKiPCfxXv3y7+5v/6B93/96f/JPdR089daDfcZ/MxJ8FKRwIB8KBcCAcCAfCgXDgWAp8BD3Cnl36dQU+ol67+xH4uQCyCIYD4UA4EA6EA+FAODA3DmxF4H//j/yV7l/86/9zZ7vhywT+2CRF4OciHuNH6sKPcCAcCAfCgXAgHDjuHNibwPd3+HlP/n9753e7f/oLr3bf/1d+tH995k9975/p/tpP/OSB1294l5622oGvud7xb72i4/5qPx5QnvgffmZh92994qe7X/m9P3jogeXUL7y6aNN6t/+4kyHxZ0ELB8KBcCAcCAfCgXDg+HNgEgIfgf2Dj/+XC/HsAhyhjziHbEcp8P/Z//6r3X/wH/65Poa/8EM/1L3ypS8fEPifvfu17q//939vESNiPxfA8b8AMoeZw3AgHAgHwoFwIByYGwcmIfBd0LeO/+u//w+6z/6b3ztSgf/y73yp+5GPPtELeP4A91O/cvmAgD//27/Tfeg//YG+/j/+wR/sXvrirQP1cyNGxpPFLhwIB8KBcCAcCAfCgePJga0I/JYor2X1lZb6ysxf/OEf6c7++m90/ELO/3rr7e4v/42/udgtr+/4L3sHv/WKjgg69g7+Tz13buGzvqbjr+fUOtlOfjwvgsxb5i0cCAfCgXAgHAgH5sSBSQj8f/9P/+nu5699/sCO+Cf/5WsLsb0rge+79P6ajr+e09rdnxMhMpYscOFAOBAOhAPhQDgQDhxvDkxC4LdeefEd/l0J/CEh78L/P/uv/nr3i++8e+BhJBfB8b4IMn+Zv3AgHAgHwoFwIByYEwe2IvCrAF8FoDEBT/+x+qN6RQe/T/3ixcU3B3oVx1/P+bufOtPxP+GuMsa0yWIRDoQD4UA4EA6EA+FAOLBrDkTgv3eQdPx6Dq/n8DcE5Of/1e8sfj2HX9l57vpvRdwXzHZN2vg7yNngETzCgXAgHAgHwoFwwDkQgV/EKr9/z849Ap/37f/ez51d/HoOv7Jz6St3I/ALZk6oHGeBCQfCgXAgHAgHwoFwYL8cOPYCn131T//G9e5XvvZe98t3v9aL71V/Redv/MN/1Pe79H/9m/7Xe0RG/uCXP/xF5CvnOL99v1+yan6SZx7CgXAgHAgHwoFwIBwY5sBWBD7id5WP/1Tm2Dv2TNhY/We+8Nvdn/sLf/Ehn/wEJn3HBP7f/h9PP9Tvz37fnz/wP+byR7T8Ma2Pid/A549tQ6ZhMgWbYBMOhAPhQDgQDoQD4cD+OXAsBT6vyeg/pXIRvorA5z+w4tUb71cFPsT8b5/+ZwfafOQf/5OO13dC2v2TNnOQOQgHwoFwIBwIB8KBcGCYA8dS4DOh/M+z/A+3f+p7/0wvxL/vL/2l7uMv/i/9qzZjO/i8ysOrNv/Jf/6tP6Sl/1/92z/R23OinPutt7rv/dCHe9v57fthAjlmOQ5O4UA4EA6EA+FAOBAO7J8DGwv8uU8ev5Yjge//6dXcx53x7f+izBxkDsKBcCAcCAfCgXDgMByIwLdfhNErOPxU5l/9ib+zeEVHv4d/GKDTNxdqOBAOhAPhQDgQDoQD4cAuOBCBbwK/9Qe4/IoOv6qzi8mIj1z04UA4EA6EA+FAOBAOhAOH5UAEvgl8f3dff4T7tz7xT/uf0jws0OmfizUcCAfCgXAgHAgHwoFwYBcciMA3gX/qwr9Y/NEuP4v5989+uvvlO1/N7r1htAtSxkcWv3AgHAgHwoFwIBwIBzbnQAR+xGseYMKBcCAcCAfCgXAgHAgHZsSBCPwZTWaedDd/0g12wS4cCAfCgXAgHAgH5sKBCPwI/DyxhwPhQDgQDoQD4UA4EA7MiAMR+DOazLk8dWYc2UEJB8KBcCAcCAfCgXBgcw5E4Efg54k9HAgHwoFwIBwIB8KBcGBGHIjAn9Fk5kl38yfdYBfswoFwIBwIB8KBcGAuHIjAj8DPE3s4EA6EA+FAOBAOhAPhwIw4EIE/o8mcy1NnxpEdlHAgHAgHwoFwIBwIBzbnQAR+BH6e2MOBcCAcCAfCgXAgHAgHZsSBCPwZTWaedDd/0g12wS4cCAfCgXAgHAgH5sKBCPwI/DyxhwPhQDgQDoQD4UA4EA7MiAMR+DOazLk8dWYc2UEJB8KBcCAcCAfCgXBgcw5E4Efg54k9HAgHwoFwIBwIB8KBcGBGHIjAn9Fk5kl38yfdYBfswoFwIBwIB8KBcGAuHIjAj8DPE3s4EA6EA+FAOBAOhAPhwIw4EIE/o8mcy1NnxpEdlHAgHAgHwoFwIBwIBzbnQAR+BH6e2MOBcCAcCAfCgXAgHAgHZsSBjQR+lxQEgkAQ6LrcDGZ0M8hO2eY7ZcEu2IUD4cDUOBCBH5m2NgIPHjzoLl++3JEnnWwEpragJZ7cZMOBcCAcCAfCgfe7Qwv8q1evdqdOneo/58+fj/Cbqd67cOHCYp6Zb+Y9KQhkEc2NNBwIB8KBcCAcmB4HDiXwEXkIP6V6rvLkxxuBW7duHZjn4z2aRL9NBLKoT29Rz5xkTsKBcCAcCAc2Fvj379/vrly50tQK2tU/d+7c4jUO7QD/7M/+7GK3//Tp092ZM2c62rEr/Nprr/XnHCMq+XBMG/yR7ty509GPcnLOPckP9WfPnu1t8CqJfFCuD3bffvvthT1/WHGbmxwrDt/pVhnjIumceNy3xq04yYVlHYvKsQdGjMn7CSP50vk6Y7p06VLHtzOy6/NR41k2DvDwONVeZavEN4YP4xL/iNdjFQbk8kcb7KkPeFInvlCufi1bXs+x7Pq8rIP1cWubm0huIuFAOBAOhAPhwPQ4sLHARxTxGUrXr18/IL4lohBAejBQGy9DsFOudOPGjV40cU4dop32JHLEl94F5xiRpYQwpY/bxzfn9JGf6lP9D5Njk/fUNVbOEX3CrMZK3KrDL8d8iNPfd2+18zH7WIWvxqGx63yVXAKeeJUYC9i2Ej41H9T7mHwsLcw15pbdWqa2brO24fz27dsLHta2xEC9kuMDjnCPVPtR5jh7fWtcsj/HPIv69Bb1zEnmJBwIB8KBcGBjge/CuyVcEGASnoghCXEXQBJUXkY/7RTXHVi1d38qcxtez7HqXIi5gKs+XcxWW6ueS1xL8BIndvGreNxWLRO+LiQ5rjv0YOTxuh3ZwA9j1640fVbZKacf9qqYdxyXYVfrOSd5uXbGhVnfYMk/GpvjQ5eKkWy36sBB8VR8qHP+Ou70cZyxTRlt/AF0yRBmUZ2bSG4i4UA4EA6EA+HA9DiwscDX7viQSnHh5W0RQnyqSKSM5CLP2/ixfLoP76f6mnt7r6t9PV5vt86xHjwQothnF1478cLA7XkMPlZixgYJUek7zt5fx95GMVBXx94S7rLheRWybotx+Kso7ttt6Nht+Xix4/io/VA+hA9jRGDjh0Q7/Ci5f8o8hoqPz5H3ox0PVNeuXVv4wRZteGjyhy35nXOeRX16i3rmJHMSDoQD4UA4sLHAr+KuniNqEJiIKO2EUiZR5YJKZepDHcnbcO7CG/HGe+ESc/4qBm2Jp4ot7Eks9w6+/Y8LYYo8Hs7xhZD13WDvX489buIjznv37h14XYexKNVYOedDquKSWD3VcSt2F8HVDuceo9urx7QDR+ypn0S0x1nno9rhHB6IC445dsCjjq1lgzL3O4aP+6v9OPcY3A51wrH2Ex7EyzGJHH6QV5/UYxvxr7H3nWbyT24iuYmEA+FAOBAOhAPT48DGAh99gmDhVQY+vpMr7YIQ83KEotrXHAGEcKQcIX337t3F6ygS6gio+qqEfNU69yuBLp8S6rVc9fIn24xDfVQ2lLtNxeA4YYvkZWonIag4lPvrNN6PevpKYHIuMU4557THp2wpd5tDY1G59/d+PlbZFU6tsdTY1AebmlfiHUotm9jwmCo+1BO/l3NOLNTh980331zgQzu1xe7FixcXdYpXPAXjV155pa/HpuPBuRLHikNlc8mzqE9vUc+cZE7CgXAgHAgHDiXwWyIFkcPrFohORBT5KknvVK/SdpdtJNpcsB2Vf3wgLmuaKjY1zqM+Dz5HjfD69nMTyU0kHAgHwoFwIByYHge2LvB9J30dUcwrEYjpqaUhUTm1OBNPENgHAlnUp7eoZ04yJ+FAOBAOhANbF/j7EBnxGQSCwH4QyE0kN5FwIBwIB8KBcGB6HIjA348uitcgMAsEsqhPb1HPnGROwoFwIBwIByLwZyGzMoggsB8EchPJTSQcCAfCgXAgHJgeByLw96OL4jUIzAKBLOrTW9QzJ5mTcCAcCAfCgQj8WcisDCII7AeB3ERyEwkHwoFwIBwIB6bHgQj8/eiieA0Cs0Agi/r0FvXMSeYkHAgHwoFwIAJ/FjIrgwgC+0EgN5HcRMKBcCAcCAfCgelxIAJ/P7ooXoPALBDIoj69RT1zkjkJB8KBcCAciMCfhczKIILAfhDITSQ3kXAgHAgHwoFwYHociMDfjy6K1yAwCwSyqE9vUc+cZE7CgXAgHAgHIvBnIbMyiCCwHwRyE8lNJBwIB8KBcCAcmB4HIvD3o4viNQjMAoEs6tNb1DMnmZNwIBwIB8KBCPxZyKwMIgjsB4HcRHITCQfCgXAgHAgHpseBCPz96KJ4DQKzQCCL+vQW9cxJ5iQcCAfCgXAgAn8WMiuDCAL7QSA3kdxEwoFwIBwIB8KB6XEgAn8/uiheg0ATgevXr3d37txp1k2xMIv69Bb1zEnmJBwIB8KBcGBjgf/gwYPu3Llz3alTpw58zpw5092/f3+KWiQxBYHJIXDr1q0D1w/XFNfWcUm5ieQmEg6EA+FAOBAOTI8DGwt8RPyFCxd6MXLlypVe1HvZcREoiTMI7AsBrhcE/XF+IM6iPr1FPXOSOQkHwoFwIBzYWOAjith9ZLfx8uXLi11HypR4ANAOP8fbSPWbAwTSslcaEFB8s0Asly5dWhxrt7RlkzLsnj59um8vEaYy9R0ak49dGJC/9tprvT3qr169usBH9mSfttSTFD/Y1h1f2qkvbb0/sXOu/ufPn1986yL/+sZFbRSr5svL3T/93n777R6foViJx8eoePpBjfyjPj4u4fnCCy8snRP1J67qc6jOcRMG5MKhFa54Q5w3btxYzKUwVR/36XXgyZwQo3xSpuTYU686+VUf5bJd630M2FB7z19//fUFN2RHcYzluYnkJhIOhAPhQDgQDkyPA4cS+Nz4ESHs4NeEqEDYKHEsgaKydXMJF9nhHD/EsCzRR/1qzDU22il2xsYDDAKQxAMCPvE9lqj3Bx98IgJJHCOiXHjhTz5rrLRV7PRXffVBjGfPnl3ggR+Pldjpq29cEKa0IVGnMXLumFDOu+FKjEP9FAt1GpdipR92lWo8Km/l9V10bAqfsTkZ8zlWp3EQo/hM+9u3b7fCW5QxB+DoDyPY8rldNO663h52SYzHxTS26EcMfJhLta11ilFzSb3PkfuknHqScMWu2jNGzmnjnHUbQ8dZ1Ke3qGdOMifhQDgQDoQDWxH4Eq4SAS4exspUt2ouEbZqe2/nohQRJbGIkEJk+W4mxxJaCCjGIxFEuYSR26/HLhSpc0w4ZudWoot6by/RJpGHT/ooSaRVUad+akfuZdjQbrHvbHu54yCMwN3LXZTKfitW4vZ+HHtfj7Me41P+sY0txiuciLk1J2M+x+qEKXY1v7JfY/Nz4vEHJepcKFPv/NL4aUM81HtSHMpbdYqx+tF1WOcLP0qaL7+WdG0Mxaq+rTw3kdxEwoFwIBwIB8KB6XHg0AJfYsNv/i4eVN4SLKpbNZc4WbW9t3Nxh7iWiJNQ9LY61tgQPrTHBjnjW5bUV+0cEz/2egStRNu9e/cWO7h13C7IqCOpH7kScXu9x+82lwlZnzv3o+NWrNQJY8WzTu6x+7cLwrU1J2M+x+o8rtbceH09VjxeThkxE2PdhRcmwo7ck+ZFuepa7R0jtSN+/zaBWJjfmnxOVVfHgi09ZKlNzbOoT29Rz5xkTsKBcCAcCAcOLfBbgkgCR2KANr6LSDmCBSGiHU21HcslbNUG8bFMgKit5x5zSyRJ8LoIIn76eZnbrMfugzrvR8w+bvDSjj7x4EvCsAo7P6+CzIUw7bBJG5Li0dgol/CrdmjvWLvYdLyWxer9sEl77K6a6A9uPseOY2tOxnyO1Skm4aPzZTm4+rchjFE7+o4Vdipffb6oZzwaKzm2lTRWnZO38NQ8U1854H19flXufSlr8YI2fBOjOHMTyU0kHAgHwoFwIByYHgc2Fvjc/PW6Bzd83zVEHCAA9HpGraMeoeAiVyJjLK8+ET3rJO/vvj1WjeXmzZuL+IkVMUUf1SOehpLboy9x0k8+Eam86yx8VC4fEoz4ADvaXbx4cYE3NjUWtSUW9Zddjxs7iDrFcffu3T4eCTXFqL6cu39iVB/avPTSS31/+fe2sqkYZVNth3Cr5cTv3OFctnxslKndmM916lblFnEwl4yNOOoYnQsee2u+hBt1jif9xurEn1Y/+nq9Y+h2W3F6P7ftsWRRn96injnJnIQD4UA4EA5sLPC54W+aJF4QGycx1Z3kk4jB0JjhBoKZhxVENvmUk3+jMOU4txEb16sepGQvN5HcRMKBcCAcCAfCgelxYC8CH6Hgu4ASC3PP9WCjndyTiMGyOfZvIab+AOjfeqy6479s/FOth7utB64s6tNb1DMnmZNwIBwIB8KBvQj8qYqYxBUEgsB6COQmkptIOBAOhAPhQDgwPQ5E4K+nZ9I6CAQBQyCL+vQW9cxJ5iQcCAfCgXAgAt/ESg6DQBBYD4HcRHITCQfCgXAgHAgHpseBCPz19ExaB4EgYAhkUZ/eop45yZyEA+FAOBAOROCbWMlhEAgC6yGQm0huIuFAOBAOhAPhwPQ4EIG/np5J6yAQBAyBLOrTW9QzJ5mTcCAcCAfCgQh8Eys5DAJBYD0EchPJTSQcCAfCgXAgHJgeByLw19MzaR0EgoAhkEV9eot65iRzEg6EA+FAOBCBb2Ilh0EgCKyHQG4iuYmEA+FAOBAOhAPT40AE/np6Jq2DQBAwBLKoT29Rz5xkTsKBcCAcCAci8E2s5DAIBIH1EMhNJDeRcCAcCAfCgXBgehyIwF9Pz6R1EAgChkAW9ekt6pmTzEk4EA6EA+FABL6JlRwGgSCwHgK5ieQmEg6EA+FAOBAOTI8DEfjr6Zm0DgJBwBDIoj69RT1zkjkJB8KBcCAciMA3sZLDIBAE1kMgN5HcRMKBcCAcCAfCgelxIAJ/PT2T1hNE4MGDB93ly5c78qTdIpBFfXqLeuYkcxIOhAPhQDgQgb9bPRRvW0LgwoUL3alTpxafq1evbslyzKyDQG4iuYmEA+FAOBAOhAPT40AE/jpqJm0ngcCtW7c6BH7S/hHIoj69RT1zkjkJB8KBcCAc2Fjgawf1zJkz3f3793ulwS7quXPnRl+V4DUK2rD7qr7Y0rHX08aFHPa1a4vI48O5BJ/bJCCPhxjxof5ud5lMunPnTnf69Om+Lzl933///YU9/JPU7md+5mf6tvjTWM+fP9/boOztt9/uj7FFH43LsVMZ8Xq5+6FO8YCb8NAYlWOLmDkXzthxfPoBNP7RmGSLvMbT6LZykeLC7tmzZ/sx0Hlsvi5dutSBp2LyMdHXsRPGywLSOGVLNt54440eM+JUWcVgjLMaH7mP6ebNmwtuOJ6046N4NEbl1E0p5SaSm0g4EA6EA+FAODA9Dmws8BE1/t7zKmJRwgShc+XKlf6UfhJVqvf8+vXrBx4Y6Ed/CSCJ62XxIArpo4Rf9VVZK6cPwhOfJM6xRfJxcE4MEnLETVtvozLa4tv9+ziJzYUc7SgjjcUj+7ThmHT79u2+zzJ8+sYD/7g9msjPQPOVixmjxkUnnyM/pk7zxTgQxI4P8WlO/Jh+4E9b+i1LPifimWzAUfdJPB672/a5rLgTH3Miu7oOOMe+fCgW54/3dX/7PM6iPr1FPXOSOQkHwoFwIBzYWOAjNiQiETqILhcrY6KDvuyssitZd1gRNtqtJJfgwZ7EnepdYI3F4/7Ul9z7D8XrQq+2IR7iQ4SRsEf8JPXzuFSmth6LdnFd0PWGyoOE21C9ctVJHFJ+48aNPj6PY935GpsT+V4393hq37H5ok5iXv1cRDMfjivHYw+QskGOHb4ZoL1zA5+UU6/k8zSGD+2w5zGJIz5PxI0PXVN6iHKc9LCmGKaQ5yaSm0g4EA6EA+FAODA9Dmws8CVOEEKIExciy4SH+tJHu5n0oVxCl/NaL1GF0JIQki/ZbMWzqTCSP/lo5S7EJDxdcCouL8OOxDjH7qeFo2x4u1YsKlNMOieXjRY+3q51XO157K32q5RVm95nbL5a+AiXFi/c7irHcLn10Al+njgHS/IxztZ4fdw6xqdstfzUMo9j38dZ1Ke3qGdOMifhQDgQDoQDGwt8xAk7jogTEiJkVSEigVhFr9ugDvsIJCWvlzhS3Vg8VWTRRzvb6t/Kq2BsxYTta9euHdjJl+DEpuL0sjpuj492YEobEnXaPV4lHvq0xjaGT+9o5B/Nl5poTDrfJK8inrkVlxwP2daYKj6c8woVfUg1Vurpu0pCZPOhD6KdnESZfwvgc+KcbPHD67Hl8XGMH+yTWrhWnPqGE/onN5HcRMKBcCAcCAfCgelxYCOBjyDhlQMJMkTMqq9CqK8EE321Y4pAQvD46wxqh6jSaz30QXxRhz3ZHIuHOrertsu0kmyrL749KWaVe5zq4/lLL720eGWDsSLgNC58kbClPhq/fI7F4/3oL3vqozGrXbUtH8o1NsWinLipO0zS/A3ZHJsvxU9fcUexVPxrvdp5rj4al+zrHOHN35soVsethZHqhTv9sKkxUf/yyy/39uocyadikk/Nncc9heMs6tNb1DMnmZNwIBwIB8KBjQT+FITFvmNAsOkjkbYsJkTtqrvJy2ylfncI+K777rweD0+5ieQmEg6EA+FAOBAOTI8DEfgb6ijtzmrHdRUz7MqyY590PBCou/OrPsgdj9FtJ8os6tNb1DMnmZNwIBwIB8KBCPzt6JxYCQInEoHcRHITCQfCgXAgHAgHpseBCPwTKcsy6CCwHQSyqE9vUc+cZE7CgXAgHAgHNhL4IU6IEw6EA+FAOBAOhAPhQDgQDkyTAxH4701zYnLBZF7CgXAgHAgHwoFwIBwIBzbhQAR+BH63CXHSJwtOOBAOhAPhQDgQDoQD0+RABH4EfgR+OBAOhAPhQDgQDoQD4cCMOBCBP6PJzFP0NJ+iMy+Zl3AgHAgHwoFwIBzYJQci8CPw88QeDoQD4UA4EA6EA+FAODAjDkTgz2gyd/lkGF/ZiQgHwoFwIBwIB8KBcGCaHIjAj8DPE3s4EA6EA+FAOBAOhAPhwIw4EIE/o8nMU/Q0n6IzL5mXcCAcCAfCgXAgHNglByLwI/DzxB4OhAPhQDgQDoQD4UA4MCMORODPaDJ3+WQYX9mJCAfCgXAgHAgHwoFwYJociMCPwM8TezgQDoQD4UA4EA6EA+HAjDiwkcDvkoJAEAgCXZebwYxuBtmFm+YuXOYl8xIOhAObcCACPzItCASBjRHYZNFJn9yswoFwIBwIB8KBo+VABP7G0iYdg0AQyAJ9tAt08A2+4UA4EA6EA5twIAI/Gi0IBIGNEdhk0Umf3KzCgXAgHAgHwoGj5UAE/sbSJh2DQBDIAn20C3TwDb7hQDgQDoQDm3AgAj8aLQgEgY0R2GTRSZ/crMKBcCAcCAfCgaPlQAT+xtImHYNAEMgCfbQLdPANvuFAOBAOhAObcCACPxotCASBjRHYZNFJn9yswoFwIBwIB8KBo+VABP7G0iYdg0AQyAJ9tAt08A2+4UA4EA6EA5twIAI/Gi0IBIGNEdhk0Umf3KzCgXAgHAgHwoGj5UAE/sbSJh2DQBDIAn20C3TwDb7hQDgQDoQDm3AgAj8aLQgEgY0R2GTRSZ/crMKBcCAcCAfCgaPlwEYCP5NytJMSfINvOBAOhAPhQDgQDoQD4cCmHIjAfy/k2ZQ86RfuhAPhQDgQDoQD4UA4MD0OROBH4He5MKd3YWZOMifhQDgQDoQD4UA4sCkHIvAj8CPww4FwIBwIB8KBcCAcCAdmxIEI/BlN5qZPeemXHYJwIBwIB8KBcCAcCAfmw4EI/Aj8PLGHA+FAOBAOhAPhQDgQDsyIAxH4M5rMPHnP58k7c5m5DAfCgXAgHAgHwoFNORCBH4GfJ/ZwIBwIB8KBcCAcCAfCgRlxIAJ/RpO56VNe+mWHIBwIB8KBcCAcCAfCgflwYGWBv/F/dZmOQSAIBIEgEASCQBAIAkEgCGwNgWUPY2sL/KtXP9adOvVId/r0d3R37vza1gKNoSAQBILAvhG4cOFCd+vWrX2HEf8TROD+/fvdlStX+sju3LnTXbp0aYJRJqQgMF8Esj4fnNutCnwE/fnzH+4ePPh6L+51fP/+ne7Mme/qhT/iXx8eBraRsH/hwmO9323Yi402AmM3LW5uXFwPHjzoBdCpU6c6fc6cOdNRnxQEpj/062cAACAASURBVIgAnD137lzPVzgMz0+fPt2fX716dTBk9aMvx1NJLjSnEtNJiQP+sO5lzTspM55xLkOANXQbmyLY2MQOa/Ply5e3tkbr/jB2b1iGyab162K5VYF//fpPL3btEfmXL39kIboR/9Qr1XOVt/Jbtz7T8Vk31RjW7Z/2/z8CXCTcvIaEOrtVEJ/EMReU0tiDgdokDwL7RKCKYjh7+/btpSHVfks77KABsV+/fn0HnuIiCASBIDCMwDbv/axp2Fs3HcUavenDxrqx1/br4rlVgX/lyo917KYjxtmlP3fu0YcEPvW0U0KE046Pdvm9Hzvz2vFX7mJf9d4H2zxA8JqQ+ng88umvEcmO21aMybtu7MkRsi97muWray402mpn33P193p2UVe9oLWbKps8jChpV00PKOyu0Q5fY3X0J2a1Vx/Kqz/51c5drVc8bo8yjZexvvPOO4udZN8Vpp36g4d2l+VTdRpvzeVDsVEP3vTHz+uvv76YE9qqPbm3pb3bGIuFmGp7lV28ePGhMfh4x3zWOudIKx5iWIYPNpmXGzducNgn4cCJz2W1RT+4LTzxJ9zoKywpr3XqI18eK3VgIu457thVX/p4XQsDj3ksnn7gG/yjWIiDh3sfa/WnOvqQ/HqgjvarpJZd55BiqviIg+TuG3vqgx3qyOlPufo51ipzPtdxLRuPj4O+mj+OnXfCzTHy+BWnYydb1HGdEC82SdU2Y6X9suQ2FRN2fRxeLnutep+vVr2wrHWck1qx4Jt4lLyv+Kk6zZ/i9bVEbYZy73v27Nnu5s2bB/hCP5+fT37ykz2X1I8+fPD9xhtvLK5z4lXMzjUfaytO2cUedrHhfTRGctrKB+fCWWPlnHLmhzVRfWs7tR/K4Ri+wEHJ/WKXcyXanj9/fnFvcH4oJsXifZ3L2PDkc6C+siub6qO2LXzdJsfEDTbYwq7PFfWyTV215xh4Hf6ZOzBQrBVz2hCvruMaVz3fusC/d++L/esy5HUHX4IbMe0J0X/27Pcsdv95dceFNsd+7n05HtqpHyqnDz78FSFi4CGBPOkgAiwUQ++TDhHOCe4XgJ7CsaldRnZKOa+JslV2UWs/zrGti4Dcv6Jzu2N1uuAUG225uCjno/dt9fBCvcZUY/J4sOftuOC10LldbOBPCxDn8sVxtVN9+rn7UF+fU9nFJouO4nEbHNe54pxxK8lOxZV6H1uNHTwoayX3SRuPG5ta8DTG6mcVDmncWlh94VVMNWbK1U9zVDmi2GjrdbJJbHCTG4XGQs6HxR77JK6nVedEOMiHctnXfLXiUdt1cuz49eVzqWPHTvNZx7huPBpn9V9jlz/Ka1vicn6Iv7QlPj301X6qpz1JsaicG/7QfPUd7B9hhD/6+U3d/boP694f0g47SowL/mCTxLmuG9rCN8XHOTxVW9lo5Y6Pzylta3ze1ut9TJTXc7dDTEPXkNrRRvPg80m9xJz8C9sae42V9kOJeGSHNuCKvToOr3N/8uVlfkw/eKf5oM7nsmIyFM8q+NCmlYiROvldhyOyR39iU6pxV5t1nMJV/YWbzmteMVT9UHmNh/a6FtV3KGf+uVcIP3zo+vJj+rf8yC5tff3BrjBr9aNM9wrZGMu3LvDv3v18L/ARylXg84oO5b6D/y0ADpYh5l18H4XAr4K+Cv4x0E5SXb0I69jrRVjrOXei6iLlwtDFocUMX5B3TGS17FOGLfUj10Ui/9w4vV6+iW2ornWxq0yLBjFL3GBLgmAsHurkn/hkU+NQHWPgaZ56JS0sGovaqn4o90WnzmnF3W9eFR+wokwJu4hhxaO+tR9xCjP6cq4+5GPz5T5p5/04Vr1wdD8u7hRzKycex1I89ba1jcbhsVOmOOpcEWt9cKCNixD5Ywy+8Msm9RVbjV99va3KyFeJx9uvekw84j1xSxTQXzg6drreW3G2yobikB3840dpDJ9ax5xo3ut1QN2qfNY4sc/44QRYrJKc05VLPrbK5TqfihWfiqfl3+eiVT9WVn0KO/rUOo+Hes0tOHPsyTHwa6Ta9GtI9lrXOz60LrsfHVcetK5BtfXcfXm5jv1+CDbCQJh7XCqjL8eMTR+/pltzqbKxeMbwwWfFVrH6dUBcSrKn82U5c+r9qz+fS2xVfmuM1DluQ34dT28zVE4bHxNYSqR7/9ZxHZvH51yu8+nY1vErHtqQ/NpXDJRhX21UPpRvXeAjnBHLvBLjr8CMvXNfRf8uBD6ASNTj379BGALrJJZzUfpF6hhQrkVB5brp6pycNrWdX1i0EfHdF21WITJ9fIHmQnVxVBdB9z1W5wuMYqw3jdZFuCwe949d96M6LmJh75gQL4s/uffDzlgCR8Uuu2qvMdAG/0qUI1bwRar1aqdcdjh3XClnPNeuXVvY0jjVV2MZ87nMv2yBl2Om8rHc43GsvI+3UXkt877UcT6WNO7aZuhmN4aPbAzZXCUe2VgnZ671kAc3mWvi9FRxoq7G6dh539axt8WXHjCW4eO8xK7HRV9iUnIeeT/aOZ8Vy7179xbXSx2bbNZcfclb8+Nj81i5holByflSx6E2yleNTe09B4eh9cft+rjUX/eGVnxgjV0w1DpFvxYmsqfc50llPl8qqzn48Vmlrfr6HKjMc8UijoADSf187Crzeo4dOz/uDRXh5zZUX3PFVMvrfIEF8SnGatvbV1v1nLhlT3XYEx4q81z8oKyOWzF5+3pc41X9UDn1zD2ivhWv+te8xiY7Gh95K9EPncJ8KKkP59R73xYv6Quuq6atCnz/I9saQBX4iGpe1eE1mnUEPnb06zzyMfQqTi3Hn7/qgy2EPXHX14Zk+yTnIn8LAy44iAYpPUFAF9vciPxcbf1ipqxeNOsQmbZ8ZIddb2JX8nrKfKEaq6tCmPHKj2yDg8SFytwm46rxuP86burAC98kLniNBV8S3LWffI/l2OJTdyk83uqPeJSISXGpzHPsaPFxm+IKfjkmOQacyy/1Yz5rP9pX/F3seHxjx263xqB+ilHn5JUTfl7bM2eUKY3NoV8f3q7GVufE2+LH65fFQ3vsI7Ra16ziHsurf7X18aiM2OCJkmOnsqHc+eU3wmX4eD9s+7y7HeocL++HD2IVn3W+ybXpPt2Hxu1lHqvHhn/mi5zEHFSe+RpU58I5Ir+tHPtDY2zNu8fr9T5m/HCOXezzoZ+Sj5OyOjbKWtc7dnxd4NwxYszMIckx7gtG/qm+6Cs7dFP8cINxKQkLH7vKaOPHsqG+bovx+1wuiwcbtQ1lPh/yoxgUI2MDJ1Idp/oM5RVv2i2bS+qJi1QxUEzUVQz6Dg37Kte4OG+Ng3owpm6VVMdWz90f9qiHixXzGovaKQbqa0xjayRz5d9+YWerAt/FN8eXLv1oHysCXn9AW//olTrefaecHXX66V19iXHvjx3OSV4uu/6tAW30bYLs9x3tH4R97WPVJ/YQMkImSNdKvujUeoimr6aqUICwqiPXAoKNWlfrqx+dEyt+3C4ihdg9FuwzJtpRz06R+tQ6+la7Hmutkz9iqnXyV+ORb3Lif+WVV/p45EexU6c/hKUMO/ijn99chMdQziKpG6naUKbdVzCQ7RqDx+rtvFxzrbi9Dr+cP/fcc93zzz+/wF1t1Je4Wv3xSfJ46esLWq1bFRtxghjYQRS2FWvFSi6+MC6NjXLhRqzCsvZbNkaNn3iwQe62Vd+yi22Nh3rHYCwe+pGw7XPx7eKVMvcrHMDJ41Q5But14nVDDuscy7bzADsqV04cXq75o575fvPNNxd9aKe22OWPaGVHueb82Wef7fvLv48JG2PJ54O26guOwlJzoXNykvdVTGpLveJXHeNVqhjKpupbueyRu2/6+rn8kVPnvohB58KLNrT1Os7xQ2rZ1lhkSz7rOGSbevmTPa3XGpfqW2P3MvWXT8dc7fCr+DWnal/zp59+uoNDlBPT3bt3F+uPxlN9avwtfDyeIXyqPcVEzNjWOfdH7HHudjXOsZxxEz++lFp+NRbNlfpoDVZ97TtUrthVj2/N8dA4aCusFetQrjh4yIIz2Kzcqbh7Pb4Uo3Lik13KaKN24inx0IY4wbaVqPP2tNmqwMcgghkx7UK8FcxUyngAqL/AM5XY9hmHLvZWDJCP+qTtIMCFy1P/USXtKIw9lB2V79g9PgjAQ4QrN6ippqG1p+5KTzX+xDVPBLhmtEPNOrtq8l3rVfscl3bH4X6zTDRPCetN8Ny6wJ8SIGOx8O2Adv2Py8PI2HhSd3wR0M3hKEbgO0h5KDsKhOdjc+yhfj6jzEiCwPYRaO24LvPC2ozAn2saehifwng1X76LPoW4hmLYFMsTK/CHgEx5EAgCQSAIBIEgEASCQBA4zghE4B/n2UvsQSAIBIEgEASCQBAIAkGgIBCBXwDJaRAIAkEgCASBIBAEgkAQOM4IROCPzJ7/8SPvSa/zxzMjZlMVBIJAEAgCe0RAf3je+rWPPYYV10EgCASBrSFw5AJ/7A+3VhXN9Q8idvmHEfz0EP7qzw9tbQZiKAgEgSAwMwQ2+cWHXULg9xSOk44egU3/UPDoI4uHIDBPBI5U4I8J+HV2TvSQ4L82orJ5TktGFQSCQBA4nghEyB3PeTvqqI/TTxIeNRaxHwR2gcCRCfxlAn4dgc5/PsOHG4d2W1QGSNjSrr7vtNNW5bThAYH/dIBjJe3Q045jktpRprYsTtiWf/WvuceieLHDMZjoP45QXKrDjnyoTr7lw+NiHMSLTdJYnfrXfFk8tG/hQ7ljq3gZG/8hE7HpP5HimLZgp/E4RtQTO0nl2AELYaV+faPGPz52tRWWN2/eXNghDpLGLd/yyzhURju3qzGSg4mPXz4boTWL3B92ZEvxuV+PR/3G8JEt4gRzvVbm86ixYJv/xIecfrRXHefCkLIaG32uXbu2aE9siptjYSx7yvGBXZLGQx1jog9lQ/E0wbTC1hixjU0lb8PxsrQMA/2HR8JH42YM4OH9iUXt8OvjFz7EJBuU8R+q6DoYws7LNT5y941f1Xl7YsC+/pM12nhcHu8yrKjHJzYYg49D41Pu16Xmp8aLPfyrD3Ev4zOYk8RF+mouPB7xjbbEy2cseWz05Zzc7ThuXo5t4iB3O46t2tAOTlHnYxAG5C+99FJ/rdKn5VOY1XmmL3HpP83jnLZqP+YTXySPX/1VNhSPcAV/2tA+KQgEgaNH4MgEPgsPC0YrsXBpoW7VD5XpP5IYqqe8/rfM6qNFSDcT2mpBkj2PWQsfdeo7NB71V673O7VAez8WOcQvuftQX+XU+2/kYouFX4ujYzhWJ3tD+Vg8Y/hgT/G7DcoVm7AHV+GuOsXDePCDDZKw45g6/+/G1aeVKxb14+Ym3MnBXHhyzo2OWMbikU3iIC4S7eEYSfX9yZr/aJzYk6DFBOc+z+vgo3EJS87B3edHc4IvjqmjjUQQ5fgEH3IfO3W095u07NEOzDXP3k9jpa/mgHbYUVKsnI/Fo/at3MdJPTE4f5bxuWVTdjT/nDsGxD3ELfwzl8xp7dcX2H+v7nhRRx9hVcelvsp9zattsSO+1jpwlhBVHXipjJj82pS/sRybfJRa4xqKhz7+as+mfB67hmo8jM95qLhbuc8JfYQTbRmz23E+C1tyks8J5/RzzIQBNvh4zOpLGdeb+3Ts1bd3+G2ffs/VNYk9X3/Ub8jnEJ+XxUMcjJ8HVnwmBYEgcPQIHInA5wL2xcSHwUXOosSCsG5q/W+FWljYTeDjuxbYx5fqfDEkRt1AFYeXaQHEPosafVdZmBgfC798+sKNH+xJLPiNmTraqh+591U8itXzsTpv1zomHokgiTXaORbqV8vUnjFXLIdw93KNVXNWsasYKI5WLgxa80Ud3/gQIz7gJh+Ox+LR+HzcPmdj89WKUWV1nMvmWWOr/Rwf6vTgKD/KnXNuS3MGBtzYPWnswggbJGL1to4fx0rCzOMS1zwetfeysXjUvpW7DeoVQz1WX6+vc1mxJSbskxyDMW4JQ/kjr2WaD2zrOqRd5ZljS1uumXr90K/W0UbzVcfLOoV/7+cPepQrvr7Rkn+Y6yrg3CfdJSBliuuQNqrTteC8UVvljFFxKz7ai88qU3tylbl/MCVe9fP2rWP6DmGueNTPY1x1TtRXubjiGIoXlBE741Zyn9TrHkwb5y/nQ/eoMZ+qkz9ylS2Lh7Y1DreT4yAQBLaPwNYF/rKL2G+O6w5Hi7T6saDVHQUWHCVikeihnHMlX+hVpsVK/RCFsl99q0/Ntchiw2NRO+p1I5c/6sDFb+JayKmTTdnwfKzO2w0dOw7+AOXl6uvxUqb2NQb6gjsfxiEchjCR/ZYdbC1LY/OlOvkmJuJhPlW2zH4LC/o4J7DlN9Exmxpn9c+5+Kr+asu5H3PucbkIUN+at+wPlflYNO8uGrDtfWnDeU01ZupbsWosblO2KPN4VF7zalc2aefH6qdx6XwsV1vHwGOl3rmFLecH595evoRbjZ31QGKyCnGtSbKJDaVqR3FTLwy01nhbHXvMrXjlp5Uz18wT/ZTkU+ceD2Wqr30Vj/q18lZ8rTLnoPwTp+5FxLBKUl9fm+nXilXjatXLDnV+PBSD21KboTLGRHIcNE71FR60wX8rtew7N6qPVnvKFA/twak+lLR8pywIBIHtILB1gV8XEw+TC1y7Cl6+yrEvWGqvhUrn+K4LihawugDVWKhn0SfpZqMbacu3fNbc/bQWb6/3BdPb4p+bOjmpLsSca6dsrK7GVs/ruDyeMXwUk8QobYWzbBK7ysgpJ7kPzmmnBx63Q51j0nce+AcbzF1rvtym5tjLxuKRu3pDp1zj1Lgoq7bUv+bOgTpG39HEtuYZGx43597XcaSOc+cQZdijjyfasRvs1w1YEqMSfnnfnnLaK3k8PibVk9e4VIYtYYcd3fhXicft+3GNwfHBh689tCWGVVMLgzp+7HlZXQupd1wZK5wh1dg9LrfpfWhT17xqxzkJHuCscXtbHXvM1bbH1DomTs2j6n0OKPN4ONd4nPcq17qg81X4TFu3Va8h/GOHsZFqfH1h4x/saL1TzGrGOZi2+EwbYav2jkFdW2ir+VH72oZy4tc3n5wPYc/4nPe09XiGxj/kk75KzudV4hnjE/Hz7ZHmRT6SB4EgsDkCWxX4XKR1MVFoLH4sCCyG6yb6aTfLv3LGDguC16keP/oamzb4Z2H3xdP7Ukcb9dNX1eqH3WWLjxapGgP9NAb50bnikV8fi9q2xukLrY9DvpdhLP/uj2PFU30qljpGnYMXf7CJDW7MtOeY2PjoZqT28iucGY/K1Idz1Q+NR7ipnc/Xa6+9tuCAxqVxq/1QPPirdbIhn4pXOXEvS26TMcuW+upcNjXPq+CjsbVwG6rDH9es5ou+ikVjEaaKhXKPk/ZqI4x0rnFo/mXTx+N1q8QjG54Tg3xhW+N1295GfHYbY8cajzDw8WvM8iluqY/iEq4au9rp3GMlFvehtpT7OGQbG17OueLBLuKUtorVfaqOegQf7b3tGC5eR7zYZ9wk+Sd2BKM4VrGnnbBxe+pPLD5+t92qc9yoZ6zeR76EV43HY9CxYlFb+vp8CU/8ebl8KA7ZUZsaq+zj19cK+tNXiXnyeZM91as/mx74UHKbxCz/wsTrq88hPmN7WTz0JX6PRTGRCz/NldflOAgEgc0Q2JrAX3YBs4Dk4t1skrbda2iuWHx912zbfmNveghwQ+fm3Epcr/pIALTabbNsLJ5t+lnVlsZPvisMVo1tau2G1pVWnJpn8qFNoVa/lH0LAf8WoGKiOnAF310k+Rzylfv/EDIpDwJHh8DWBP7RhRjLQSAIHAUCiFZ26fi0dgC5KVPnu4pHEYdsLotH7XaZ7xqDXY7tKHytKuQ01y3eHUVcc7HJQxTXo65b8Pbk9bXO223r2P0RU8tnHuK2hXbsBIH1EIjAXw+vtA4CQSAIBIEgEASCQBAIApNGIAJ/0tOT4IJAEAgCQSAIBIEgEASCwHoIbE3gLzOU+ve7YBAMwoFwIBwIB8KBcCAcCAf2zYFH9h1A/OciCAfCgXAgHAgHwoFwIBwIB7bHgQj897YHZogZLMOBcCAcCAfCgXAgHAgH9s2BCPwI/LxaFA6EA+FAOBAOhAPhQDgwIw5E4M9oMvf9tBj/2bEIB8KBcCAcCAfCgXBg/xyIwI/AzxN7OBAOhAPhQDgQDoQD4cCMOBCBP6PJzBPz/p+YMweZg3AgHAgHwoFwIBzYNwci8CPw88QeDoQD4UA4EA6EA+FAODAjDkTgz2gy9/20GP/ZsQgHwoFwIBwIB8KBcGD/HIjAj8DPE3s4EA6EA+FAOBAOhAPhwIw4EIE/o8nME/P+n5gzB5mDcCAcCAfCgXAgHNg3ByLwI/DzxB4OhAPhQDgQDoQD4UA4MCMORODPaDL3/bQY/9mxCAfCgXAgHAgHwoFwYP8ciMCPwM8TezgQDoQD4UA4EA6EA+HAjDgQgT+jycwT8/6fmDMHmYNwIBwIB8KBcCAc2DcHIvAj8PPEHg6EA+FAOBAOhAPhQDgwIw5E4M9oMvf9tBj/2bEIB8KBcCAcCAfCgXBg/xyIwI/AzxN7OBAOhAPhQDgQDoQD4cCMOBCBP6PJzBPz/p+YMweZg3AgHAgHwoFwIBzYNwci8CPw88QeDoQD4UA4EA6EA+FAODAjDkTgz2gy9/20GP/ZsQgHwoFwIBwIB8KBcGD/HIjAj8DPE3s4EA6EA+FAOBAOhAPhwIw4EIE/o8nME/P+n5gzB5mDcCAcCAfCgXAgHNg3ByLwI/DzxB4OhAPhQDgQDoQD4UA4MCMORODPaDL3/bQY/9mxCAfCgXAgHAgHwoFwYP8ciMCPwM8TezgQDoQD4UA4EA6EA+HAjDgQgT+jycwT8/6fmDMHmYNwIBwIB8KBcCAc2DcHIvAj8PPEHg6EA+FAOBAOhAPhQDgwIw5E4M9oMvf9tBj/2bEIB8KBcCAcCAfCgXBg/xyIwI/AzxN7OBAOhAPhQDgQDoQD4cCMOBCBP6PJzBPz/p+YMweZg3AgHAgHwoFwIBzYNwci8CPw88QeDoQD4UA4EA6EA+FAODAjDqws8LukIBAEgkAQCAJBIAgEgWOLwL53leN/d99srC3wr179WHfq1CPd6dPf0d2582vHluQJ/PAI3L9/vzt37lxHnhQEgsD0Ebhz5053/fr1PtBbt251V69enX7QO44QjM6fP989ePBgx57jLggcPQIR2LsT2PvGei2Bj6A/f/7D3YMHX+/FvY6h5K1bn+mFP+JfH8pqun//TnfmzHd1Fy48VqtyvmcEuLFdunSpGQUi/sKFC2vf9BAQp0+f7rCdNI4AWJ06deqA6EKEUQb2SUHgsAggWnkoh1PkcxGxrFusMT4+xshnjusP64GPTWvHmTNnDrXhAn7YzqbNYa+06fbft+iM/909YKwl8K9f/+nFrj0i//Llj/Ri36mMqG8Je2+DyL9y5ce8KMd7RmDZwq4b6CZhXrlyJTeMFYDTHOghi3OO+XCcFASCwMMI1G8iEKesOUpz3JFnPbh8+fJiXRjbnBEOq+Y8LIBp0jwRiMDencDeN9ZrCXxEOeJcu/Xnzj26ssBnx147+zwoROBPa/EYW9TrDZSbCbti7CC1bgSUafcMu7wSsEygclNm94l+eu2H3HcZtUulNrLpfeXXd+08Xi+XPfdHf8rdptdz/M477yzGT1uS2rfwWHWmsQFWunFji3PEinbsfIdOZYqh5UdxMS7FJjzA4uLFi4u5op6Pt9U5ZY4d2IMF5fooNuHq7VX2yiuvPNTP2zEGtcWubGpsHg/1nJNUTkzihcrAaSi1xqHxyLbHo1hl+8aNGwfGQ1uPR7bIFYfwp0ztNU/YlT/GzsOdbFCnOSdXH+rfeOONxfUjP6on5mvXrh2wQ4zEgQ/ysaR48EMMGju5fChGcvx96UtfWsTjGGk+vR9jpJy+Pn9jMakOO4xXc04549FrSJxTxzVFW+wrBmHJOEgal+ZYfdWHco55fcfb0M4xkv3aX7EKR/VpzdeyOcGWHmKw4z5rPB7rKj7BgXbrJGHnPPC5lF/qPVaV01bzQxvKx+oUm+aQPhVHj0XH2CSBL7hQ7vjIbiv3MWJHNmRT8coXuWKq64zK5afWg4dzwMd59uzZnqv09ZhWHce+RWf87+4BY22Bf+/eF/vXa8hX3cHnvX0+JHb+eTDIKzq6tPefs5Bwk20l3ZT8Bqp23ER9EaKcc39/FbvcXFdJ9NWNmQWt3iB8Uaw3Ib/heVzYZEGknlTH498uUIcYURqLB/98ZJObls7Vf91cNonp3r17PW63b9/uMZFI8XnwMY/5qu2wAZaUk4QB4+UmMTQO6olHiRj5KCl+zmVTdR6/H1PvOKu9cvxRTyJe4hYGPg7ZhG+0U90Qr2VfdolXycfJsdvwGBgvN3HhhU+4r3gdD2w7Jl6HTeePxkJOcj7Xuhqrrh+Nxf24HfrhU7Gq/VCu2GlfOUL8wq/64Jw5kwgiHj/mnOQ2hmJolWNL9lTvmFCGf/nhnJiYJ/rR1ueXeo1V9oiNNYS2GgvH2Gkl56zqWz6x63ymLe2wvSzJP/35eKLOx+R+/Fh9qk+wqjbVdiynH5/K0dqn4uN4E5+vwWN1xOhzz7HPM3awpyS/4DN2T1D7Vi6ssMv14/5p7/W6Jobs6Pom516n2DlnbIq9jpO5bXGEMsa4LEVg705g7xvrtQX+3buf78U5O/mrCPzWqzy8y3/p0o8u42Hqd4BAXUyqy6HFhHa++KpfLas3G7Vr5Sxw2v1g8dQCR14Xy1qGHxZXki/sNR7qVaaFVT7JfcEeisdtEAc3Cxbh1qLbB7TiP7o5kPNQhH998AMmipVyH/OYizrHfiOsGPj4a13dIar1eiCr5dj0+apjqXPt4/Q67Gj8yhWTsNBNHHyYE/JlSX3VTphzjg35Uq6YiMfxor33rfF6W3GwxR/KHqIDCwAAIABJREFUJHKIrYoRx4eYNEbyGqM4xZzomyHZZGz4WpZa8+l9HD+/9hSPeEEf/Ola9rbE4vi4/aFj4vIHKrWTX2HhdjUWL1M/csdJ5T4+zRs++JAYk8+J+KH+Yz41P7TFjwtz9W/lGiNzWudxjLPYWuYT20P4tGJRmebT55i6MXyEjeaKXL7H6nxO5L+Waa5Ur3PlKidvlXm9jh1bjmuSHcasa5g2mi+N0/tSx6eV6pi8TcVHa6G3aR3vW3TG/+4eMNYW+Aj7sV/Sqe/gR+C3LrHplLGYDi0ulGuxrRGzuEgwqK5VNrZAqZ9y3Xgk0lTeslEXRdpo90KLbCsev/n4Mb6qzaF4ZJfda+3syadi3iSXDeKQKFKZY0Dc3CB47YLyVZLGQnsXEcKAMdFGiXPfVaKcesqHkmKVTdrRnljpy7hIPhbOhTv9hKf6ekxj/mUD29xY18FHffvgTABVTFSvXOPVObk/EHs9tnS96HiIP4yBmzViALHIWMCGVLEDE8pIfsyY8CefmhPagjG+Vdd3HvlHfYfwwGa99hQPcYCDksfPuCR4EOo+12o/lhMXNojLk+Pg5RxrLLVc56168UPzJhwYC+3HOLvMJzbgDDZ9nhXPUO5jJD6t04ptqB/ly3wSBzbXSY4NmEjcLsOn4i2s8T1W5+0Up2Pi8aievFVe/Xh7P/a++OK8JpU7z4lV6zntqdP1wrmvEy17tK8J3+uuz7IRgb07gb1vrNcS+P5HtiJLzavAp54HAv/DW17PySs6Fbndn2uhb3lm0WvdPNXWFzsv8x01FjZu4OTLkturC26Nhbjx4wusFne3g08XXNR5fNihn5JscO52huLRjd3byha2EWm68ap8KG/Z8DK/oQkPxsbxKol4eCCoIsLtDo0f+7Sj71AiDm445I4rY6AfYpJy2XJOqD19XQyCnePn8WEH25o/3SQp0xyrbChmlVe73s+PaU+MiBf8MF7HxOOlvgpo2cIG/cb4o9iqHZ8v2shmPaYd/KCeBMbyif+Kdd9o4B/3WbGii8pqrPjmQQK/+KNec1NduY9aN3TOmOo6QFvHpPYV12q5zlu4aMPB6+TDy7DhHJDNZT6xxVyBwapJ/mlfY/A61Utwy/6QT2zpOlbbVXKfPx9vja3i423xIy5xvKwOzJTw79di9at25PTDNmmMk96HY4/Hx6t27tPr/bjlj7mhr5JjJO6pTuOs15rK1U45mNRvlPYtOuN/dw8Yawn8+jOZ/pqN/vBWf0hLLlGv9+5VRz9+KlPv5YuMyXeHAAuEbrwtr74Iej0LiXbdlPsCwiKo3UduFIicVUQ+sdCOPsTGIud23a/KaUd7+tHfz+lPYuGkvWLFDsntaUGljb7mHIrnq1/9am9P7Vo+3b789U4H/nEb+PX+xPRzP/dzi/g1DsQhx8JrwPSiWD48Hp8ryoWVsHOM5Fd1wkflwqPVR7EyD+KD+pGrL8Fi3+s4VsyKz+upUx/Z8XEJzwUQ5UDjoC83U/FJuLotjxU8GQsCU/HIVytO2lCvOsWqeaFe2CpExaY6jZNzxq36p59+unv22WcXcVCPffGeP6TWOf4Vg+zIXyv38eNTfV9//fUFVsTh4/A6YkC04avlz+3TFvurJtrKN308BnxpDlt11Ls/x1ax0v/mzZt93LRl/OBIW/zKfqsvbWs81afGqbnU+VjuNiuHFI9jik+1c7tDPilnPKum6kvYuc8hfPCl9rRRO/r6H4XXOnyS1B4bGjvlui6Gxi4OyzdxLEveB7+aB3xpHBqzzsUvtZU/ctXht2KITSX3Sz8fp/y4XWJTkl/vQ10E9u4E9r6xXkvgQw79Gg4Cndd1ko4nAiwEQwsb5b5QHM8RJmoQYC71yZxujxPceNkFTdofAggYxBBzcVwTsTMGxrKrNORzqHwsrqF7Rd2VHrORut0isG/RGf+7e8BYW+DvlorxFgSCwGEQQNTXnZ/D2Evfgztu2rULLvtBYGyjYj8RreYVYTy087qahfVbLfM59K3t+p7SY8oIRGDvTmDvG+sI/ClfiYktCASBIBAEgkAQCAJbQmDfojP+d/eAEYG/pYsmZoJAEAgCQSAIBIEgMGUEIrB3J7D3jXUE/pSvxMQWBIJAEAgCQSAIBIEtIbBv0Rn/u3vAWFvgj/0G/pb4FzNBIAgEgSAQBIJAEAgCW0YgAnt3AnvfWK8l8OvPZJ4//+GOn8BUkvjn5zD5X25b/9Ot2s4h5xeF+DWhN9/82U4/Aarf9/efDVXZ0Jj9Z0SP6qdD33333f5n/YZiSPl6CLz11lvdI4880n+eeuqp7sUXX+w++OCD9YxMpDVxM4Zt/JIHNp544okFNsLoscce2zs+f/iVP+qe+tCnu49+58e7O1/4Wo++l1HHOXW04fxff/4riz6U6XP2h1/u/vjr3+ht3Pyltxfln/vUb/Zl4ACmx5UTE6FmwggCQWDLCOxbdMb/7h4w1hL4/h9d1f+hFkHrQpbjc+cePfAAsGWeHsoc8ep3+g9j6MqVH+t/LhRh7uPHJg9EZ89+z8o/J0p7MD6K9Mwzz3SI/FUTApbPNhOi54UXXtiKkNxmXOvaAscnn3xyMY5XX321m4KAHRoHIpMHkF0kF7bwB2y8bBcxDPlAkH/2E1d7MY4oV0LQv/qxy903H3yzL/r9L7/ffeYjF3uxTztEu7fR8Tfuf6PvJ1GPfYS/bGv88pM8CASBILBvBCKwdyew9431WgJfYla70xLwVexXAvsONTvdEsIqxw474dTJpmz4twL+2/vqe/r0d3S3b1/q+3GMSCbxG/2yiV0X8/jXjrty1cuuyhWr4tHYqadOmLTEPLFrR34sHtmuAl99FIOwkE36qYx4HB/ZJB/aoWWHUTusCFb+4x6Sl6teYp+cMtr4sfwh6NSHnVzEHQlR/Oijjy7qaOP1xIhIVl/seFJM2OAhgXb4rzHIj9t2O9s4XrZb7xi48Kecc+1wMxZ/6NJYGFutk01yP2Y8YCyb9KVeyW0KW7BUEq4tvOqcYIukcjijOXWbsk17j4VyxaP2mq8f//Ef7/gQB3YVq3x63xY+8jmWS5gj8iXKaS8Rr77s4iPwEey0o97beJk/GMiWyoauO/lJHgSCQBDYNQL7Fp3xv7sHjLUF/r17X+yFLblewUGIIkIRx62ECJWApp5ziVT6ssstYe5tKfP/LZfzodeCsI8tBDeJWBD+OiY+6pVo7zGp3P1T5rFW/9S5qMaHbNZxLYsHX9ivO/g+JtpgH79qvwwf2rWEFsJKgp42CC4XY/RxcdU7/PY/EngShdiRUP3d3/3dxWsJ1S9CdGgHv37DQDzyT1yKTb79nDgoV/L2Kqs5tiUiPdeYanudL9uNBgfGosS57/Y7zt62ikHO67hoj6CWOPYHDWGF34oltsZ28FvzQhlx45NUzyl//PHHF7hXn/Sp809Za1yaL+p4ANLcuk/qGDdlQ3b6ioF/2J1HeCPyEesS4TSXYFdXPQhoR7/Vxu2pH7nb9vi9TY6DQBAIAvtCIAJ7dwJ731ivLfDv3v18L+YRni2BT3ndOUf4akdcuXbqxwQsYlbtlfsuPReIvzbkF0zdiXchTjtsS4x7v7FYqy98+IMD9jQujqlTWhYP7dYV+PgQLsorPtiVgFIs5IgPBKTEbRW2iDMXjd53TDDSRzbJJdbksyXwayzq3xKy2KnC0cfXEpAe+2GPiZW48FPjJo46fsbiu/Euyl20Srxr7Mp9DmjjD2U+FmJSH/dHm7H5op5x1Hlp+fIyP8aGxu4x1XlS3dB8teZOfsj1bYHGSe74yH4rd9HOsd6hbwl1362XrfoQwO6+XuNRG3La8VFqPfioLnkQCAJBYNcI7Ft0xv/uHjDWFvgIcnaQEZQSk4hXiX2RlXYIXOr0GovqPF8m8Fsi3PtX0a06YvS+NQbqvF79ajuVk1dfVeBzzjcMemXI7S+LB/ubCHz34bH6sQsqL/fjKtAQTkPiaUgwumDFtsSZ/LSEJHVD5ernopiyKhxdGDIOPRiofyvHhgtFHdcHnVbfGg/xS/SP4YYt7+t4VaxafofaVDz8GxXsDM2XfLTwb/nyMj/GTuUPZTUu+RuaL8dDbeVHucrXyfVuvP5AVn9Ay6s4LaFexXzrIUA2eVhQatmKwBc6yYNAEJgCAhHYuxPY+8Z6LYFfBa6TtQpYF/iIUOpbaUzgu41WX8qGYuLVFQQzibz+sSsxSRxTr1d/xmKlnb8SQ9v6zQDjPHPmTyzsKe5l8ShOxuPJMeAYf8LS67xPPW4JrSrI6rkLVcSVv2YyJBhph6BRQvRiV6kKSerxQ6r+1afWYQMR7nZpgy12of21ErexzeOKpwv8lkh130MC3214ez8eErmOHf55dYa2Sj5f+KkYUVZ38Ftl/uBQY/EY5LfipHLy1nwRJ6/oiBO0k89V8FH/+pDmr81g08W5xDttSP7+fV/w7fZDu/V61afaoW8La9lMHgSCQBDYBwL7Fp3xv7sHjLUEvgvhKnbZveb1lKFXReqrL9rdVx9EKzb5VgAbEt/kskkuQS2x63X+Sozbog9+9PoMF5X3l01dbK1YVUec8ok9HgxadiXC1W8snjpG7LtNxQM2fFNC/TJ85Jcc4YOgQnAoIci0a01OvSeJJerqH4p6v/o6CHZUj5Ck3gWb++VYidgQZupLrvpahw/VqT+CE191HKrfdu7jJFYfI8c+DuGnsTNO8NV4FbPGoL6ObfUnm4zL54o+4O71tPH+itX7tXzWcShO70cbtVO8db5qLMSjscqmxkHsPKAoHq9XH9XJH31JissFPrvx2rlHjN+/9+/613NUxg48ol4/n6lXd75tsn/dRm3JvV6iXvW+m694iN+vO9lNHgSCQBDYBwIR2LsT2PvGei2BDxklNqso3gdR43N1BOb0qoBEpY9e4o66pOkj0JovyuYkiOFifRCd/swkwiAQBOaMwL5FZ/zv7gFjbYE/Z+LPeWzsfg79geZxGLd2v9m99R3aulscQTXt2Ryar1p+3B/UGA8PKzy0JAWBIBAEpoJABPbuBPa+sY7An8pVlziCQBAIAkEgCASBIHCECOxbdMb/7h4wIvCP8EKK6SAQBIJAEAgCQSAITAWBCOzdCex9Yx2BP5WrLnEEgSAQBIJAEAgCQeAIEdi36Iz/3T1gROAf4YUU0/NG4P79+92VK1f6Qd65c6e7dOlb/3PycRj19evXO2JOCgJBYJ4IsDaxRvH3IBcuXOiP5znSjGodBCKwdyew9431oQX+1atXu1u3bjX5ddxET3MQKQwCIwhw4zx16lR35syZSd9AuUaJU59z587l5xtH5jVVQeC4I+DX/NA9+riPMfGvj8C+RWf87+4B41ACf0zAZ9dg/QsvPYLAUSDALh6CnjwpCASBIBAETi4CEdi7E9j7xnpjgb9MwPvOvnYSfJeTenYTn3vuue75558/sAvKrmirbd0p5QHj9OnTi11J6ulLau2squzixYsP9fMdTcbGuXY7ZVNLgmKnHv961aEVj8ek/uvkHsv58+cXcQkfYatYlRMjCVFHW5WvupPTsiuMPKY6PmFM7r6xJ9wkNoWxYiVe9a92q0/FsgqWrb7MlfsawsfbcEzyeVbsGqvwHfLZwhXf2HFf68SzDAN8wh2/VihTzPhS3Bobbd95550F3xSPt/X+lAsf4mmNxa+VsZiHsKNP9am4ax/i0TVCP9r5GDh2Domb3q9ls47B7Xpdq69sv/3224u5cMwck9qfWJmbobGIh26jdezxgo+/VuYYODatuRR+77///oH1hXLHwf15uWLzesXjc0y92vh8iqfVn+zW3PEUVu7njTfeWIyDsVNHLhy8Pz593hQf5frIB3F4vWMgvN0f/SnX+NTe2xILSWX0acWpMtoSr8fcGxj4x+f77Nmzffx1/Brn008/3T377LO9/xs3bizG73NVY/U6jVP2lCtWx446zklD/Whz7dq1xfUFRiTN9c2bN/tYabcpPr3BY/zPvkVn/O/uAWNjgc+Fo4utcp2Lz28c1NPW23sbLj69y4xdXwCq7du3by9udNRxrgWPc3/vkN999zr3g3/eQ1YaeyeZOtnxuOmLTRYj6jXG6ocYD5M8Vvz4uBS3txFGxMECTR2JvsRK+SpJ46k+a1/Hp7bFt49f84MN4uCmoERsWpApc475MXXE5m1lo+bEw0Iu7lUMajziIXbG4hE2tGMccNZ9DPkcmy9sbRpPHbefg5NfU44BsfuYvQ4bnItvPmbquMbFLc41R95H46XeecJ5K9F3CDtiHePzvXv3Oj5KNV6de3xq67muH8pqW7/OvA/HznXHVXOKLTBQWx1XO2MY1Hg0pmqjdU5bFzWc6xoih+9KXkeZj41zxqdr18fq8y1byquNsXgqzvjCD4k6eKBzcmIHm7FUsaOtc9h9Ys+xqnYrlxmLUsuP6ioG4gb1jEOYco5Nt+s+x+YLO35NMxafW8XSymknTlAvfNymYmacigmsHC/iHvLp15fG6PaFEWXY0LySc065kvzrXDyRXcpp7+uz+6Iem0Oxyu6c8gjs3QnsfWO9kcDnAqwCXhdA6yKkzvvUNtSxU8FTtXYsZE8XJ3V8XKjIrvpSr8Wp9uOCxw8LAolz2ST3C3ysjnbej2PFhG18uB9fzDSmdXO3URd2Lba+oGmRUzzur1Xm9X4sO3VBHMOn4g4+tCcx79wEHD/Nl2OmGFTWsokNnzP1qbnjUutqPM49+fY+XibciQ2xQSzUk8Z8qp+3Ec6Hicfj9ON6ralOPKj1zIfmi7aMj/hI6sMxY/XrTnNKf/owTpLGix/6L0uOS23r/lXnZRU/Fxy0F84eH+Wccw1rDLqel9VVfy3+0EYPSI4l45S/yuUxDIjJ1yD3Sd1Q8jhqm4oH9bWsxuTnfl0IY2yM4TMWD30rPj4n4pSPo1Xm9TqWYJUPrT8615y4v1pX56tVT/ykZRgMrYf0JTbFQy4+17mhrZf53MAVvr1b5drzeeyDt39U5/OGT803sXGuVNsNXV+6fmWf/rrf1fGDgfPdfdDPz8UHYhpbn9fBR2M77vm+RWf87+4BY22Bz0XEReEXsxOei1KLm5f7xVfbaEHiIufiVtLFSTkJG2MLFe25sEm+YFBOzHx1J1taWPrGJkSIRQup7CimZf5lS+PR+WFzX+iITWN0u3U81GmRUzufA5UN5d4W/CTyxvDBluPOucfl80Od4+THikl9sak5UN2qecXA+9V4PPaxeIQNu8XaUXY/fuz+/Fhj87JN43Eb9VixknvyGBUL468P7o6DbubY0U3YbdbjId+1nZ97XF7Oca1bZt/be1vnM8eaQ3zQDjyUnBOUCQ/acS1yrkQ/yj3VOVWdMNe5C0+PW/We4xPBBP/08OD1reM6Dm/TqtM41a7Gq3Jy+uv6VOzL8Gn5dJvuD1sapx+r/RDGqvdc46IP9wSfL/ms3KbP0D3BbetYY1uGQY1bscmOsOTc28q+2pF7X42D8eleS/2ypH5j7TwOtWvFQxmcpv3Y9SUbHr/KiMfnR+XKW7FQJ44Mrc8a57r4yO9xzyOwdyew94312gJfC0aL5LqoW3WUcWHxqSJCC5kuTF3U9QLGN5+hxCLBRUvyBQM7lGvBoV4+ZUsXvfcjDnY/GJdS7YdtiV+1qTcIlZPTnpuz3zC8ftlxazGlj4sv2ahzBQaMb5XkOLhPL2/h4/X4cbzcDnXCnGPqnBfY0VxWHtB+DGPqlSouzqEaj/tZFg+x6cZVeTvmcyguyjeNRzaHcnDFthKx+3VEHQ+/lIOBUh3X2FzSp46b/szxOqna8Plah8+Mg2tM43FeOs4+58Tp/jj3fpyrb8XG+erjxT5jqsmxpM6vhTEM8A/vsFtjrz78vMbBufDhmLlnTCR8sO7pnLIar9tW7I6JH9O24jMWT/VHW/wrOZ/xU9dotWvlsuU2aOfxqo36OwdW8ScOuU1sVQzEJfkRjjUezr0t8Y3NF1gxt8RBcrt9wcA/dU2t8dIN35XPtPOdddo4t3zuhE0NofqmvsYNnpQpOSYqIxc+Q+vzMnzozz0ajOeY9i064393DxhrCXwuKBdhTn4uvioQvJ5j+uvmpDoueL5644LiwqqLher9q0ra6CL0chYV4mj1wS9t/Y96W33pjx2vU2waA4uZ6n1hY3xe11ogiE1xCoNVch+v+wQLxUKOfaU6Fq9Tm5rXMci2fFab1Asfx524GL/q33zzzUWctFNb2SUOldGnYuR1rfo6Dp3X8WhOKm7Y5EO5kvtUPJoHxe140J405JO66ld9avmq8SjWsVwxy6Z8qo/G4GPX3KmPcuFH39pmqE5Yyd9YPoad4lQsPo4ai3xWe+qremLBjsqVg0Wr3Pu15kwx1Vh1jdRy+XPsasyq0xjx623kcwxX6tQfnz4O6nwsirWW00++fBzY9XO1cZsap+qG4nE7xHH37t1+faG/cKh8xs86CTseh8ei65x64eAxaRyq83lQneLE7hAGXo4vPvRnXr70pS8txkw8iF/KqVfc3l+x+DjUTnY1rjGcKq7ep2LgPomFb1gUY+WWYhA+5PQhVfwcuxqP+o3Foj6KwdsSB/YdR8XmY1VM1M0xRWDvTmDvG+uVBT4XChcHF1ArcTHooq31PDHTr+6a1HZzPwcD7SpMdazMYWthq7uKU40/ca2OAHOtj8/50LUOf+vu3ere9tMyfN4P7lPzimjTjvDQJtXUYj4u8QjX4xLvSY9z36Iz/nf3gLGywN/0oqhP0JvamUO/sYegOYwvYzheCMBHdrN89+p4jSDRBoHVEOBBD677zvNqPdNqDAHtiIOt776P9UndfhGIwN6dwN431kcu8PdL5XgPAkEgCASBIBAEgkAQAIF9i874390DRgR+rvkgEASCQBAIAkEgCJwABCKwdyew9411BP4JuKAzxCAQBIJAEAgCQSAI7Ft0xv/uHjAi8HO9B4EgEASCQBAIAkHgBCAQgb07gb1vrHcm8B88+H+7J554vXv11S9v7RKSzbfe+v2t2OQPgp944onukUce6T+PPfZY98EHH2zF9mGMfPPBN7tXP3a5u/lLbw+a+eOvf6M7+8Mvd0996NPdH37ljwbbpSIIBIEgEASCQBA4mQjsW3TG/+4eMHYm8I/iUtq2wFeMb731Vvfqq6/q9NjkiPzPfORiBP6xmbEEGgSCQBAIAkFgdwhEYO9OYO8b65UE/nP/xzvdo4+e6x577EL3zDNf6B555FT/8d34p576rb6MXMfs2CPC2WFXH+pIH3zwoLenctq8++4HvR/K8Hfz5h8caIN/+pG8rWx4vcS/6hRL33nJP2MC/9133+0effTRfoefnHMSfTh/8sknF98AUKbk3w7wzcAzzzzTt1d/tav5nS98rfvod368/3zuU79Zq/tdfdWT1x18xXscH1geGmwKgkAQCAJBIAgEgY0R2LfojP/dPWCsJPCZEAnqKtBd5HOMoEZov/fe/9M9+eSv9/3EROrVX2WcexlthsR47S8RX1/RUTntSTp3P/LfyocEPq/r8AqPXtup54jop556qjdJHccIexLHEvwS3TpvxVDLeD2nCnzEP6/lsHNPoj4CvyKX8yAQBIJAEAgCQQAEIrB3J7D3jfVaAv8HfuDCQ4LdxTiC2nfR6+VUBTr1PDjIrnb1XbAjyrULT+4iXcLd22OTc++j47HYPNYhgU95FeVexn/XrR15hD2iHqHP8QsvvLAQ+/jiYaDa8hjqcUvgI+j9vXzevf/5H3o5r+hU8HIeBIJAEAgCQSAIROC/F4H/EAlciOsaQUhXge8CXO2UtwQ+dfTh07Lnorz2HxP4vOJDzJskhLe/0iLh7mJedr1M7ag7aoHf+sPbvIOvWUkeBIJAEAgCQSAIVAT2vasc/7t7wFhrBx/RLAGv3XZEt1IV4CpXPlSv13/YaXd7Ev70lz/5p6wKfNlvtaXOHxYUUysfEvjsxr/44osHunBOOWlI4FPHO/fa3ac97+HjZ9XU2sGnjF/XQeyTOK+v6PCgwq8CreNr1ZjSLggEgSAQBIJAEDg+CERg705g7xvrtQT+449/dvCPbCWq9TqMXpuRCFe5chfbauNlXC5ukzr9ga+LfH8dx/t7X/lUTEOXIrvu/jOZ+rlM/2NaCWbVaacfAU2ZflqT13M4xx52Jeop0x/jLhPd2qX3P6Ll2N+7R9Sr/vPPvnXgpzI1HsU4NO6UB4EgEASCQBAIAvNHYN+iM/5394CxtsBHOCcdHgHf7T+8tbYFvjHgV30Q+klBIAgEgSAQBILAyUYgAnt3AnvfWK8k8PUzmdoJ9x30k32prDd67eqzi89xUhAIAkEgCASBIBAEdoXAvkVn/O/uAWMlgc+EJAWBIBAEgkAQCAJBIAgcXwQisHcnsPeNdQT+8b1OE3kQCAJBIAgEgSAQBFZGYN+iM/5394CxssDPpOxuUoJ1sA4HwoFwIBwIB8KBcCAc2JQDEfgn6D892JQk6ZcFJhwIB8KBcCAcCAfCgePDgQj8CPyH/lOzXMDH5wLOXGWuwoFwIBwIB8KBcKByIAI/Aj8CPxwIB8KBcCAcCAfCgXBgRhyIwJ/RZNant5zniT4cCAfCgXAgHAgHwoGTx4EI/Aj8PLGHA+FAOBAOhAPhQDgQDsyIAxH4M5rMPKGfvCf0zHnmPBwIB8KBcCAcCAcqByLwI/DzxB4OhAPhQDgQDoQD4UA4MCMORODPaDLr01vO80QfDoQD4UA4EA6EA+HAyeNABH4Efp7Yw4FwIBwIB8KBcCAcCAdmxIEI/BlNZp7QT94TeuY8cx4OhAPhQDgQDoQDlQMR+BH4eWIPB8KBcCAcCAfCgXAgHJgRByLwZzSZ9ekt53miDwfCgXAgHAgHwoFw4ORxIAI/Aj9P7OFAOBAOhAPhQDgQDoQDM+JABP6MJjNP6CfvCT1znjkPB8KBcCAcCAfCgcqBCPwI/DyxhwPRb8yHAAAgAElEQVThQDgQDoQD4UA4EA7MiAMR+DOazPr0lvM80YcD4UA4EA6EA+FAOHDyOBCBH4GfJ/ZwIBwIB8KBcCAcCAfCgRlxIAJ/RpOZJ/ST94SeOc+chwPhQDgQDoQD4UDlQAR+BH6e2MOBcCAcCAfCgXAgHAgHZsSBCPwZTWZ9est5nujDgXAgHAgHwoFwIBw4eRyIwI/AzxN7OBAOhAPhQDgQDoQD4cCMOBCBP6PJzBP6yXtCz5xnzsOBcCAcCAfCgXCgciACPwI/T+zhQDgQDoQD4UA4EA6EAzPiQAT+jCazPr3lPE/04UA4EA6EA+FAOBAOnDwOROBH4OeJPRwIB8KBcCAcCAfCgXBgRhyIwJ/RZOYJ/eQ9oWfOM+fhQDgQDoQD4UA4UDkQgR+Bnyf2cCAcCAfCgXAgHAgHwoEZcSACf0aTWZ/ecp4n+nAgHAgHwoFwIBwIB04eByLwI/DzxB4OhAPhQDgQDoQD4UA4MCMORODPaDLzhH7yntAz55nzcCAcCAfCgXAgHKgciMCPwM8TezgQDoQD4UA4EA6EA+HAjDgQgT+jyaxPbznPE304EA6EA+FAOBAOhAMnjwMR+BH4eWIPB8KBcCAcCAfCgXAgHJgRByLwZzSZeUI/eU/omfPMeTgQDoQD4UA4EA5UDkTgR+DniT0cCAfCgXAgHAgHwoFwYEYciMCf0WTWp7ec54k+HAgHwoFwIBwIB8KBk8eBCPwI/DyxhwPhQDgQDoQD4UA4EA7MiAMR+DOazDyhn7wn9Mx55jwcCAfCgXAgHAgHKgci8CPw88QeDoQD4UA4EA6EA+FAODAjDkTgz2gy69NbzvNEHw6EA+FAOBAOhAPhwMnjQAR+BH6e2MOBcCAcCAfCgXAgHAgHZsSBCPwZTWae0E/eE3rmPHMeDoQD4UA4EA6EA5UDEfgR+HliDwfCgXAgHAgHwoFwIByYEQdWFvhdUhAIAkEgCASBIBAEgkAQMATqznHOp/FtwtoC/+rVj3WnTj3SnT79Hd2dO79mU5zDIBAEgkAQCAJBIAgEgZOEQAT9NAR9nYe1BD6C/vz5D3cPHny9F/c6FpEl/nkAuHDhMRVvnLs9bOpz69ZnRm2qn7cjdh5KqNtFevfdd7vLly8/5OrVV1/tHnnkkf7z2GOPdR988MFDbbZRgJ9HH320I45dJcbCmDQ+5U888UT34MGDrYchf0899VTTtmOtWMjfeuutZvujLrzzha91H/3Ojzc/N3/p7YX7z33qN/s2r37scvfNB99clHPwh1/5o+6pD336gI1f+MlfOXAuH7S7+FOfa9a5vwMOZnAC5+E+87/P5PyDoy+++OKRXe/rjHMdfHwMU7iGNE6uC64PuM71olSvMb+G6rVz9odf7v7469/ou7I+MUdHtR4rvuRBYI4IVGGZ82kI/rUE/vXrP73YtUfkX778kV7sQ1jEtIt6jg8rpumP3fv37/S28amysYuEdvi/dOlHF804poy6XaRnnnnmIXHNzYObyLpiF0G6iSjlAWOXAh9c8ecPNoz1hRdeWGnMm8QLpginVkKcgJvjrrJW+12UITI+85GLC2GBwOCcchLCBZGCOHcBQh3lXqZ29EWwV6EjcdOqw7587mLcu/ZRebhr//DOHzzh3VE+0K87vlXx0fUypWuIsXKdvP25d3qBL54Lg3pNqVz9aM+1UxNzxniTgkAQWA+BCPppCPo6D2sJ/CtXfqwX24hudtPPnXu0F8wS1AhxJZW9//7v9O1oe+bMdx3oR1vaUafdeX9IkC0X+Cojp1w26a8de2zy8HHt2n/XP5Cwe49dPZBUn3oQUflQrBq3YtS3AsJBsfnNUGXcPHwHzHeSEcHscqvehQHHKleOLSV8adecXUvEtOoRzJy3+qn/tnMJh2UY+LcLdfzE6/XE6PiBFQ9Q+ODDsfBrfVvQioU48aH2tAFHPr/6q7/aYwZ2tCEetSOWGq/P1zI8ERYIjPv3/t0BYa9+2pl84+V/1f38D728EOEt0UIZtsgR9wh52ceOkup0jrB32ypfN0cMiVtPPvnk4kGu4lNFk/cDV39A0zyIA85n50AVy+6TOYP7etD0OuyuM1/rYkJ7/BE3eSvVeCo+4iaxMk7iBRfSvvDBL3H4mDQfwlNxM6ef+MQn+ti5NsURH6ePg3qva2FWy3Q9cJ34Qy/t4Lc/RHtf9Ws93LbG6H1zHASCQBuBKixzPg3Bv7bAv3fvi71YJpdgRmgj/mvSjj/1Z89+z2L333fh/Zj+nEtwy15L4CPGeUUIkU3yc46J7fbtSx0x8OFY8dJeDwMcs7svO2OxUoeYJ1dqxcuNr3XDGrqB0JY+Spx7f+q8Xu242SKsuLGSdNNUW2xImA75li3lVXzo5kwuu2rbynWTp718067655x6cqWhHXxsMk6JC+KQwKM/x4qtYtnyTVnFjjJsSKxgRz5adfJHHW35rJIQ4XqFpgoT+kug8wBAvXYa6Vd3KuVPDwWy6zv5qpMdnXsb2Vknd6zox/h9vh0f/zaL+XJBTz9hXuekzu17773X8SHBCewqYUM+1U9zQq462nOuOvVv5bRx/utY8bb6UIZ/2oivrXYej+NDW3+Vh3E+/vjjvc194tMaE2X1Gha2xEqdY+VzVMfsdS28apm+lWo9rOoa8odc9R8T/xVf9UkeBILAOAIR9NMQ9HUe1hb4d+9+vhf4iFwJZo6XCXyvR1xLxLMbrt175XVHHPu0Q7grIcgR7p5UJoFPP2xJlCte+rhf/4PhOhaPlX4u6GWf3JNucl7GcesmSTk3N4kH5VUsuSCQXW7+2qVUmecumLl54YcYjjIppjpWyrUbrjGS+7g8Xo9xqJw2+HHBiL0q3mossk1bMCHVm3trDiW8ls2X7Ldy7aa3BLvENwJFx7Qj0U+inFxinoeAf3vng37H8ve//H7/EKA+9GPHkjZqT+71rRhXKRMWQ20dI+ad+VfyOn+IEnfUruaVQ5q7ygH6OQ/cn7jn11f1c9jzIb65XY+p4kPsitOvkX3iMzQmv05oI8FfryfGrnmijnY+Ro41n45T69h34cVvPcDSHn7rWqn9x8Q/beuDR+2f8yAQBB5GoArLnE9D8K8t8BGziFzEuIQxghrB7EJXIpuc8iGBT7n3e5g633oVZxOBj2++aeDj8VTRrm8a8D0Wq+r1wAAOxFWT3/S8bugmuUwsccPnU9OyG74L41UF/tDN14VGjcPPh2IaKve+Hu8q5bSRaFB7F3YqG8LdRQj9XPQxhxVzzZNy2V81l2h3MeJ9ESYuxDmWUCF3Ye62xnYlvU59hr4J8FiWHY9hUOdgaF7x4W3HOFL56/Pux4rb7Y7FqvatHA5UEbqKEK2xVtseG3Vj+Dh394mPx+HjoVyiHrwk0lsYaJ6oG3uFye23jv0BV9eLXxvU67qB8xzzIECinfP/88++tXgNjvoI/BbiKQsC4whE0E9D0Nd5WEvguxCu041o9p13hK926cdEcxXb1S7n9K8C3wW7+ii+Vp2XERd+ZdtfHxqLVX6IhW8D/BUh1ZHXG7jqhm6SQ+3Vj3o+JG7yel2ldRPlBsuNluTCodW2b7Tlf4ZEyCr+PV7GK7GATW68SuDIawuUSzSoroXlEO70kSjBlzBWuQt+99PyIf/kjJW+vjtNue88qr12FP/v8koO9S5G/Ljakg3EjBKihj61rrXjydhrrLIzlFcMmAu9SgKmwtLnClu1n5+3OCI+1znUvCk+F2bCX9eB+1D7o86rT49/DB9vR4x+vk98PI6KHXOEYPfXBesc0AdM+JAcg2qPc/WvvGy9kuOCnr7iPse0/+wnri5+jYprgnoS14L+hoVzfPoY+kb5JwgEgaUIVGGZ82kI/rUEPq/A6KcxOfZfqYEB2tlnd1/iHmGN8FcZ/dj551wiG8HMuT6cK7lN70M9/dWHXP1kT98wuE/qEPH641zaMCbO9QfB2MKv91Os+FW5/ClW5a2bITe0uhuomx39uEl6PedK2ONGR3294SGs/NUXiRr5U3vZd9Eq+9vKPU5iVSyyX2OtryZ4fY1T48Gu+rk/6r2/sPV+9FW5YpKNlj9h5j7Vz+uo9/lqiROERv15S+0+/trZNw/UIcoRIqrXjiPCRGXkEjJepmN8/frZNxft/VdzZJtcsda50jjHcsdAPKO9MBVuiCbVgz/l+lTcfQ5p43H5XNIPm6p3n/RDcMITzbfHSr3P19gYD1PnPsXZZfjUcXg/+u4DH8cd7ISpsFFMjim84px5og8fn2vxTnXkmkvsql68oYzrwvnNNeXXxD//b35xUa925LTxvl6nawv7YE/M+E4KAkFgdQQi6Kch6Os8rCXwmW6JZwQxQvkkJj0guOivOPiOYq3L+XQQkJBwcUF0nFchM52otxcJ4kw779uzGksnCQE9lPj1wnWFWKbuuCTir+vAcYk9cQaBfSJQhWXOpyH41xb4+yTRvn37txHa5R+KCeHEKydJ00UAAaIdRI6VuNGr3HcdVT+nnLH62Oc0tozlaBHQw7GuFRfHfm15+dFGtLn14/hAsvlo0zMIbBeBCPppCPo6DxH42+V5rAWBIBAEgkAQCAJB4MQgUIVlzqch+CPwT8wlmIEGgSAQBIJAEAgCQWC7CETQT0PQ13mIwN8uz2MtCASBIBAEgkAQCAInBoEqLHM+DcEfgX9iLsEMNAgEgSAwLQTu3LnTXb9+vQ/q1q1b3dWrV6cVYKIJAkFgKQIR9NMQ9HUeDi3wWZBZmFuJxfvSpUutqpQFgSAwUwT4g8Vz5851p06dOvA5ffp0x5qQFASEgHMFznCeFASmjMD9+/e7M2fO9GvbhQsX+lBZ11jfnMNqR1uOt5382vG1dlV/io++h12bq7DM+TQE/6EE/piAh3yQ/yiIve0LJfaCQBDYLgKsDdqZxTKbAEMbAdv1HGtBIAgEgaNBAF1z/vz5xUYFG5jatGC9Q+BL83COBlL9tiPCD/aJ6cqVK71fLxvzR7uzZ88uYiNGxoWtTVIE/TQEfZ2HjQX+MgHvO/vc2HlK9CdL6il77rnnuueff/5APaRtta02ICVPnpTrQ18SeW2vsosXLz7Uz5+8GRvn1aaIr9ip9yffVjy0UUzqX3MuNsZLWwkhjoXBsniqvXqucWOTi9p9UKZPjdP70UZjHSr3OBV7jWXZudv2eMQhxUquxVRz5XNIX31oy3HFeSwWb+t+3IfzwMuH7Do+jIekMrCFl61x4UeJcQgDjkkeq+qUv/766wsue4z0feWVVxZ1rXgOc2Oi7+3btxV2L/YpYyyMFX/iPLFyLiw4r7ESr8bewoP+FYcWPrTjgw/nqMqEG7n8kKtc1wADW+V6d7v48280NZ6W7QVwjQPHib5gtcpc+TjkUxzAxo0bNxbjFDaOKWPxcYPFiy++uOgjm4qJOL0/5bLhuKiMMeB3lbEMYeB2PR7NZSselTEfjpFzkHEP1WkeyWUL32+88caC49SRVO886isG/pFt7MkGTb1c41zVZu3PPeHmzZuLtaCF1Sc/+cl+nuWXPnzqOMFfcyAO4c+vlVacsos93aO8j8ZITlv54Jxj+Tgsf3pDI/+AjY/ROYKgv3btWj9W5hnRLeFd+coYlBgnY8aWxqkxiXNqX/lDO2zzk9zkJPXl2HGVDcr9waTv1HWLWMfikX3FKfyrsMz5NAT/xgJfRBc5PIcgfiMTKZx43kYXA+2w6wuD2+UY0UBfJc5FbMr8gnLSU+d+sOE7jBy7Xdknp04+PG7Z5MKhnvHxqX5c6LhdP67xcLPFTit5PK16LyM2MFXyC1vxqk7YcV7j8Triunv3rrodaAsOFfdFwyUHNdbKMcVbfTjeuMAOH1Jty7hWmQ/6OgbY88Wc2OSDtsTmOPfOG//QDnzEPc6xiy9SxRkeKOHPfVR8Kmd0rYzhsywe+V43xy4fJR8XcftNnvjAgHwsVjACO2yROKef/Di3qXd8fC6pc6wqRzx2+vlaRnzMA33UzmOmvfhFvXOGc81fjcfx6Qc38A9+fcycEw8xrJK0znnMslljFb+9LT6qTx8z9bQXvggX6lv9FAt1tFlXnIFntSubjq9fB0PxEDP+NWbsMleaL3Kv87kED1/zHA+Pow92jW+z8Cf/ige/7k/jpZ5j6palalfXjdv9/9o5f1a7sjKM5xP4VdL7ASa1XVobU1rZCIKkc4qAOCIzFhaTwoEpBAXBQhQCE6xEUIJYiHEGwYwgOCnG4sjvyi88eWftc8+5ucmce++z4Mxae63333rWu/Z+9sq+ow3Hch7mavZlG13XnzZj4A7GFGpiMNateJgrP+Rzz7u/cu74uIz8OQtw4z/ig39Ouz/++OMXcRmjMRMbcpkXaXauVWLAXLznTKywkfPmWt9pn3ba5JpcmnimTq5Z6u6LB0yQ/eCPT3Yl9adB6nMdLkTwc8EzQWi74CRdltSZMozxwOdtMB/86GOHjesbI+20nbrIeEOceiQ2smwOCtfapCZJLfvGkEs92sbkxks/Ply0vVVPn9pEfo5lrFv26M84VnJglXMRO2QnfvnwZzxxyFinXo6tYrBvFevs8waED2/46IMPPwpxcfN1nWc8zFdZfW/ViXvOY/pHf9W3skvcPBiIj33AjZwfbX7gvFqTiQW2Z58PXv16vQ+fffFo5yK1ewFd5pUPOtZoroHy+2JVRuyIHVtgDxbeQ1b45VoynutJjJnPeQ/Kfu2qazy5Du73OeeJ4czLub+mvNeJj33H1GKXMRML/qktGT9tcWZcoqDsjMlr8VGO2r60TywQwPSROrOt/dnP9SrnvW/oO/XsI4b5iQJ4aI86i2P00SYnzA9qYqRQ2z/zJu3Ndq6PY/alb+MDT+ZyXtHGlpyEnnFi95kg5rlu9inrPKmdK2PGmD7t2xdPro1zW+0vbFxW/mSMsy3uztsaOedB7SGE8owjm/iQ65a5dtpyXBy4Zkzy7zh+yPEs04a62hJPdXJd98UzOQNz4n75/uPfleA/vQYEn8XfdyOeN/9VAk0ZNwpJyQa2kLjzxGUmprLUuaEyweknZv/5DFkTXX1vOMSSD9uMaSa+urN2PrN/33XGk5ttXzz77DGWNleyzpmx9KksmPFLLB3LOv1MWeL3IZE6s73CLO1mfPOGphyxmlvYo8x4lJ3+V9fK+lBRZtqkfxW/8tY5B2zzIKBmHSiZv1ynzWxrz/i4TtuOWys38UmdVTzqX6TO3Mp5pU/t0kdsyG3Fiqw2eZgZry8Oc420ba1drlcxgC+khJcvbSKH3nlltTarHJl2mDO/Q2TVFQOvj6lzHfDpvXbln74kEuI3+/Hv2Ixlxpq4Gwv2uMcn7tPOvJ525zjXq5imXsazWkP6uJ+s8En5OZ6+s40OuWV+reK2L+3bl7boy/iVOa+eNqa8flkfchMfFPVct+yb7Ywr22eGxn1Ou46tamPKMeN4XfmTvmy7zvj2hc5nmzEyJmexj3qLU2AbnSTo6qVfD4G8TzpGbVzZN20wJtZb8s5lXzzYMCfSX54at306RP/oE3wJVC6ubRInHwr2W5Mc/KaMN955MyDRGLPg2yS0L2uSmg1AyQTHDv34pU3R59lFJH/qEQ+nOszLMvXmZkDuPLKhrazTbs77vHjSxmzPOBKfiTW6GQM4r7CcPiZGGS+yq5vJtKFc5kXGynjanTaJmxuoueGNbOpxnXPkeqskPrkeyHMNNshQiGee/q3sZtzOL/uyjX7Og7F9+MwY0/8WPulvFQ82sMvDzFxIu1vtxA6Z9KM914pxbOOfshVrzg974J3/RJ4+zgyNzwRy3dMWsujyUKZ/jqUesoznw5i+uc9WcujlKfmh+wtbWfCNLQt2Ekv7V3XmU+4n2vmvFjNWbIERBySsVfpnbGKkb+JyXenLdcYe11u4a2NVH4LBlMHOvngYy1Nn4nNPM19i3drviSV+Eo9sI8cepu+8gv99+x194mFNjykzV4mJuVmYK/HhmxgszoM+fdqHTLa1oW7aIuZ8pp4XDzamDH3E8Trzx9iznuucY7m37Lcv9eb8kWUuzNGintfUrgm2Zkn7jmFzK39YH19CkEd/3wtIxpNtdM3BkvrTIfW5FkcR/Jk0JpMLzYYjebYK+t7QleHGmv+kR7Llw8bx/OctZPDjW7RjJulKB7/I5R/1qketLglLO8fmjZ/4HM9YmV+O5Y3T+c46/eGHb9udF/o5rs+MZ9rL64mRc5z92nX9sK8PsXSeXqtDzXpQVmPaybi22qlvrBNT/RoPMdOHbsaAPn9gqjwxKntITMoaB/ZTD3vazv6tuSXm2Kbog7lAnrSHL7Fwnjk35Iwr7dCf8jk28XnnnXdeyrOUTRvirz5y+0rmKzHy4MIesWEDHHjwMJbzxaZ46Isamdyzztsxxs0/9bXLdcbDOs39pQ42nCv6xpB99K+wSX+JjbZTzzwwZ5xH2k0bsz3jwcd5JXPVWKmNgXFOlV2nVSziKNb4nHbFzHjU0afjzkH/YoJc2tfOrNXXbmKwL6ateLAPcQEDbRqbvtNujrl+xu6av/322zv2mPaowRVd2mKh/VWdts175fSjXTA5pCTW6E672MC28U3M0MlfzpO5zf2Fvekz13iOZTxb62y/65A20vYWHuo7j8yfLR360ZM0Z9t1WsVD3yeffPLS/Q6/yhqLe05biQO+mdeMU13nMXW0xfgcy3zOMW1uxZNY6xdbSSrbPh2yfzDBZ6OTYCzwqpBMW5vLt/t8k1/ZaF8RmAiQU+TWLKsTuinT69NDgAcIZKrlzSGwdW9mHbivz1O5jIz952+1D1P2Krd9Rl3lObxK7O5LaknsIfbMoUNkr4MMHCgJ+puYE5wLv+zVUy0l9adD6nMtDib4F02sPAG4zg+Ii+JTvSJwUxCAKHrq4wnWTZn7qc5TwsK60J6FezZjeco3Za7ydT6fmOdNfUa5N4/Zl74cXuX1P+XYXRPvmaecm0kq2z4dsv/aCf4pb6DGVgSKQBEoAkWgCBSBInBxBErqT4fU51qU4F88p6tZBIpAESgCRaAIFIEbjUCSyrZPh+yX4N/obdnJF4EiUASKQBEoAkXg4giU1J8Oqc+1KMG/eE5XswgUgSJQBIpAESgCNxqBJJVtnw7Zf2ME//nz/+7u3fv57uHDP1zaRtDmo0d/uxSb/NHQvXv3drdu3Tr73blzZ/fs2bMv2Kbv/v37r/2v2mc8xLWKaSueR48ebc4DHWxhE7lXLX/56K+7b3zl27uH3/zZ7vPnn2+aQ+77X/vJ7j+ffvaSzOMPfn+mjw3aWbTN2C++9+scarsIFIEiUASKQBH4EhEoqT8dUp9r8cYI/uvIvcsm+MYI4X348KGXl1bz/1l+8uTJufbwz4sGBB8i/t57773QQf/Bgwcvrg9poI+dVcHXJPhc8wJzbIGIn0fwz7MJgZ8EXx36S/BFo3URKAJFoAgUgS8fgSSVbZ8O2T+I4P/wN3/a3b79o92dO+/vHjz4aHfr1nfPfnkaf//+b8/6qG1zYg8J54RdHcYoz549P7NnPzJPnjw780Mf/h4//vtLMvhHj5Ky2shxyb9jxnKmfM5/ILhbBB/iy6m3BDxN5an47du3z0gyhHx1Es/4JPvKpe0VwedFwbIvHmWOJfjoMf9jT/fzpJ3Tdn70UTjVh/zTd/+rP9j948//NLyX6mMJftrV53xBYD2PnctLQfWiCBSBIlAEikARWCJQUn86pD7X4iCCj4KEehL0JPm0IdQQ7adP/7371rd+daZnRjCuvn1cZx8yW2R86kvi5yc69iNP8Tr96H9V7yP4/7f3fPfuu+9+4ROdPKGHmN+9e/clEp/j0+8Woc6XBkjq6hMdXgxW8ejjIgTfefKykS8c2lzVEnwJNiQeMi/JR4dPc3789Z9eGsGfp/qrF4QS/NVqta8IFIEiUASKwKsjkKSy7dMh+0cR/Lfeev8LhD3JOIQ6T9Fn2kyCzjgvDtr1VD8JO6TcU3jqJOkS95THJtepY3tfbBnrRQk+J/KczEPE+c1/BVgRfAn81icxqxN8Xhzot7wugq/9QwkyRH5+Xz8J+GUTfF8qtk7vnUPrIlAEikARKAJF4PIRKKk/HVKfa/FKBB8iPQl+EvCZRiuCjww6/Fb2kpRP/X0En098eHm4SJkEfxLz8wg1PpGBtCcRn3YyNl4GViR/Enx0pp3z4rnoCT6+wOKYE/w3TfDFkBcJSX6/0xeV1kWgCBSBIlAEXi8CSSrbPh2yfxTBhzRL4D1th3RbJgG333pr3M9/OGlPexJ/9PWnf/omwdf+SpaxfFkwplV9EYI/Cf28xk8Sc3xMQg/Jn9/mT4K/svs6CD42j/k8h/l5mu4nOZzWQ/i9RuayT/DnJzkQ/fmHvuA8cV2te/uKQBEoAkWgCBSB4xAoqT8dUp9rcRTBv3v3w80/spVU+zmMn81Iwu23TrKtTPaRXmmTMf/AN0l+fo6T+qmrT2PaSl1JrZ/YWEsOIdv+ryXn2EoXEp8lP+HZOhXXB+OffvrpGcnWl7V2lbWf2lhX8TCurt/8p64vHI4pm3PYakvuIdcffueXL07TIdwUxz1lt2bcFwH7rLH12b8+e/HHufZT+y8FEPxVv3GK0TFzUbd1ESgCRaAIFIEisB+BJJVtnw7ZP5rgQ5xbisBVQQBi74vLVYm5cRaBIlAEikARuCoIlNSfDqnPtTiI4Pu/yfQkPE/Qr0oCNs4iUASKQBEoAkWgCBSBy0UgSWXbp0P2DyL4LFhLESgCRaAIFIEiUASKQBFIBErqT4fU51qU4GeWtl0EikARKAJFoAgUgSJwMAJJKts+HbJ/MMHvop3OonUtuhbNgeZAc6A50BxoDjQHmgNbOVCC/7TJsZUc7W9uNAeaA82B5kBzoDnQHLh6OVCCX4K/68a9ehu3a9Y1aw40B5oDzYHmQHNgKwdK8EvwS/CbA82B5kBzoDnQHGgONAeuUQ6U4CvTK7cAAAC/SURBVF+jxdx6i2t/3/CbA82B5kBzoDnQHGgO3JwcKMEvwe8be3OgOdAcaA40B5oDzYHmwDXKgRL8a7SYfTO/OW/mXeuudXOgOdAcaA40B5oDWzlQgl+C3zf25kBzoDnQHGgONAeaA82Ba5QDJfjXaDG33uLa3zf85kBzoDnQHGgONAeaAzcnB0rwS/D7xt4caA40B5oDzYHmQHOgOXCNcqAE/xotZt/Mb86bede6a90caA40B5oDzYHmwFYO/A95s++VBp5ByQAAAABJRU5ErkJggg==;" parent="1" vertex="1">
          <mxGeometry x="2795" y="1404" width="561" height="261.31" as="geometry" />
        </mxCell>
        <mxCell id="q94nttZm7VbdmEVS4brj-8" value="" style="shape=image;verticalLabelPosition=bottom;labelBackgroundColor=#ffffff;verticalAlign=top;aspect=fixed;imageAspect=0;image=data:image/png,iVBORw0KGgoAAAANSUhEUgAAA68AAAFgCAYAAABUuU+hAAAgAElEQVR4Ae29bbAl61mep/9U5Weo4qftVDlVKct2UsFAPoxxJJLgBDAfwjYEAbbCR4xjI1eMQZkIxgIPURiQGCNlJA4jgTyR0YwPlREWMIajDMIwkcCcg8AzFvgwp1IVMZVUJfPD+bFS15LuNfe8p3vtNftjdu+9rrdqT3e/H8/zvM97re6+u9fe85obL7+y8sccyIAMyIAMyIAMyIAMyIAMyIAMLJmB1yw5OGPzwyMDMiADMiADMiADMiADMiADMgADilffPPvmXQZkQAZkQAZkQAZkQAZkQAYWz4DiVUgXD6lP2nzSJgMyIAMyIAMyIAMyIAMyoHhVvCpeZUAGZEAGZEAGZEAGZEAGZGDxDChehXTxkPqUzadsMiADMiADMiADMiADMiADilfFq+JVBmRABmRABmRABmRABmRABhbPgOJVSBcPqU/ZfMomAzIgAzIgAzIgAzIgAzKgeFW8Kl5lQAZkQAZkQAZkQAZkQAZkYPEMKF6FdPGQ+pTNp2wyIAMyIAMyIAMyIAMyIAOKV8Wr4lUGZEAGZEAGZEAGZEAGZEAGFs+A4lVIFw+pT9l8yiYDMiADMiADMiADMiADMqB4VbwqXmVABmRABmRABmRABmRABmRg8QwoXoV08ZD6lM2nbDIgAzIgAzIgAzIgAzIgA4pXxaviVQZkQAZkQAZkQAZkQAZkQAYWz4DiVUgXD6lP2XzKJgMyIAMyIAMyIAMyIAMyoHhVvCpeZUAGZEAGZEAGZEAGZEAGZGDxDChehXTxkPqUzadsMiADMiADMiADMiADMiADilfFq+JVBmRABmRABmRABmRABmRABhbPgOJVSBcPqU/ZfMomAzIgAzIgAzIgAzIgAzJwrOL1+u/eX33Pe35i9Re+4b9a/Tt/+t9dfd7nfd7654te9/rVN3/P967+wQv/2+pD/+rB4sXS//iztzax//mv/Iur9//Wby8+Zj/MfphlQAZkQAZkQAZkQAZkQAbOMwPHJl7fdedjqy/5iq/ciL4I197+kT/2x1bf/rYfWP3M7728aDGoePVDf54/9M5NvmVABmRABmRABmRABs4iA8ciXn/qpU+uvuzrv2GrcI2IRcDydnbJyVK8+mFeMp/GJp8yIAMyIAMyIAMyIAP7yMCxiFfEHqIUgcrXhf/7566t+AoxCf3Q7//B6sc/+iur133112zE7X/+V75+9dO//buLFrD7CINz9iQoAzIgAzIgAzIgAzIgAzKwVAaORbx+97uvboTpV3/rt62u/4t/+Sph+sMf/sjq3/4Tf2Ld79//j//sWtCOSbn6z3599fXf9ebVn/qCL1j3Y/uX/9u/uXrHL/7TV/2uLIIYOwhmfi/1H7xwZ/XV3/btaxHNuO942w+uvu6vf+cmrgs/+b5XxYTA/sq/9qZNn7f+1AfWfXZ58/q+33xx9a3f//dWn//FX7wej3j/83/xq1Z/939+z0a4H2V+41iPPYnIgAzIgAzIgAzIgAzIgAzsMwPHIl7f9o8+tBGAiLhvu/i21U9+4p+/SnDOJZo/4nTxH37wiT/ylK8Zs8Xm33j7Dz/xu7ItXhGxr/+ar93EwJhv+d63rN7y3LVN3dd++3es/pd7n3pCwL7z9i+t/uTn/5l1nz/35V++eu7jv7mTeP2hf/yzG4HdcWafr1D/5G/81sbXYeY3lyvrPWHJgAzIgAzIgAzIgAzIgAzsIwPHIl6v/eZvrb70a9+wEYoRcbyVfOPf+burt33wZ1b8XuxcgvkrxHmLmrHjFgH71vf/9MZGi9ex77/3H/5Hqx/9+V9ci1FEKe1/+gu/aHXllz66GU8sf+tH3rGJGbH7M7//B+v2bW9e+cNUX/ifvG4zbvSd42/67u/ZiO3DzG8uV9Z7opIBGZABGZABGZABGZABGdhHBo5FvJK4t/+vH94qQBGfX/Etf/VVXwFGMCIcI/r46m/egH7gk/9i9VffcmHTxld887u0o3hFUF7+uZ9/4m3vaPtvv/PKRrzyO7f87i1++TozX2sOAHPilTeo/80PXtrEg8//6dbPrX+vd4w1X40eY9h1fonFrScmGZABGZABGZABGZABGZABGXhldWzilWTye6D/9fd9/+zXfxGKiFh+LzT/3ytj8naUN6b87movTLf/mT/3Jat3/8qvrttH8YqojM0e379r2+K36/+zv/SXn3gzPCdeW/Ayl/H3aK/+6q+v/otvfOPqb/7wj6ze82t316K243+a+fUc3PdkJQMyIAMyIAMyIAMyIAMysO8MHKt4TTI/+C9/f8VXZfla7n/6dX9p85eI83aVv0h8+Z/8/KQITZ+5LcISP6N45fdQ47+3fF0ZcYo9fr+V33Md36ASZ4+ZE68IZwQ0tqaEaNvI/hjn3LxSn/llvFtPUjIgAzIgAzIgAzIgAzIgAzJwzG9e5xLKH0r6vp/6wBNfK/7W7784KUIj4ua2EXejKEz9VAx8XTj2/vrf/6H1W9YI2qnfhZ0Tr+0zXwue8td1PSYxbNtum0fbdd8TmAzIgAzIgAzIgAzIgAzIwD4xcOQ3r899/DdWf/bL/sJaHPKV4G3iq/9AUv76b4u7/+BLv3T9ddtdFqDHHSQk+UNNiFRE41d887es/v6Nf7z5b3sSR/ucE6/95jVvcXvc1H7H+TTzm7JlnScnGZABGZABGZABGZABGZCBfWXgyOKVt6oIwLxN/IY3/+3VB+//3hNfwyW5/OEi3ram31/5W9+14uvFo/jlLxPvshgtCg8Sr8TD/xeLb0Rs3rpyPP7eKr7nxCtfQX7dV3/NZg7j2A/8zr3V13zbd6y++Xu+d/0HoI4yv11yYB9PXDIgAzIgAzIgAzIgAzIgA/vCwJHFK4lCxEWU8vb1G/+7v7N6769/fP0Hi/j90vf/1m+vvuMHfvCJ333NX/5F4CFkM77/gi/C+M0/+s7NuP7DSk8jXonxrT/1gY2P+Jp7EzonXsffld0WKz7wedj57QuAztOTrQzIgAzIgAzIgAzIgAzIwC4MHIt45b+J4b/BiSg8aPulb/i61U/+xm9t3rDyx5v4I07bxiGK5/6f14PevJII/vud/FXj+On/27WTNSde6bPr//OK0OYvDTPmMPPreNz3wywDMiADMiADMiADMiADMrDvDByLeCWJP/G/f2L1ZV//DVsFKKLxS77iK9cCsBPPG83vec9PrP6tP/7HJ8cjXL/9bT+w+pnfe3kjeJ/2zSs+3vQ/fN/GPjZ/8GdubOx1PNvEK/34y8Z/6gu+YGMrYjhb3sj+yEd+YWP7MPPreNz3RCUDMiADMiADMiADMiADMrDvDBybeCWR/G7p2/7Rh1b8f6ot7tinjt9n5avAc0m/+s9+ffX13/Xm1ed/8RevhSFiFkHMH1j60O//wRPjnla84nPb/+3aMR0kXunLW9Vv/f6/t4kVMfzF/+WXr/7G2394/TXptpf9p5lfxrj1JCUDMiADMiADMiADMiADMiADz+i/yjHRfthkQAZkQAZkQAZkQAZkQAZkQAaOwsCxvnk9SiCOFWQZkAEZkAEZkAEZkAEZkAEZkIE5BhSvLwvHHBzWy4YMyIAMyIAMyIAMyIAMyMBSGFC8Kl6f+F3ipYBpHJ4kZUAGZEAGZEAGZEAGZEAGmgHFq+JV8SoDMiADMiADMiADMiADMiADi2dA8Sqki4e0n7a479M3GZABGZABGZABGZABGdhPBhSvilfFqwzIgAzIgAzIgAzIgAzIgAwsngHFq5AuHlKfrO3nkzXX3XWXARmQARmQARmQARloBhSvilfFqwzIgAzIgAzIgAzIgAzIgAwsngHFq5AuHtJ+2uK+T99kQAZkQAZkQAZkQAZkYD8ZULwqXhWvMiADMiADMiADMiADMiADMrB4BhSvQrp4SH2ytp9P1lx3110GZEAGZEAGZEAGZKAZULwqXhWvMiADMiADMiADMiADMiADMrB4BhSvQrp4SPtpi/s+fZMBGZABGZABGZABGZCB/WRA8ap4VbzKgAzIgAzIgAzIgAzIgAzIwOIZULwK6eIh9cnafj5Zc91ddxmQARmQARmQARmQgWZA8ap4VbzKgAzIgAzIgAzIgAzIgAzIwOIZULwK6eIh7act7vv0TQZkQAZkQAZkQAZkQAb2kwHFq+JV8SoDMiADMiADMiADMiADMiADi2dA8Sqki4fUJ2v7+WTNdXfdZUAGZEAGZEAGZEAGmgHFq+JV8SoDMiADMiADMiADMiADMiADi2dA8Sqki4e0n7a479M3GZABGZABGZABGZABGdhPBo4sXlcWM2AGTiUDnrT386TturvuMiADMiADMiAD+8qA4vVUZMfZcvrw4cPVzZs3z1bQexDtvp60nLcXbBmQARmQARmQARnYTwaOTbzevn17denSpdWFCxfWP+wjeixnLwOPHj1aXblyZbOWrOndu3fP3kTOecSetPfzpO26u+4yIAMyIAMyIAP7ysCxiNeInVu3bm3kAmJHwbNJx5naYR17Lc9U8HsU7L6etJy3F2wZkAEZkAEZkAEZ2E8GjkW8TumF69evr+7du7duQgjljWy2165dW7dF+KaeN37UpWDj4sWL6/FsGccb3bwZPMwb3sPEwxj837hxYxML4hz/zz///Caejp9Y+ek5ZJ5sk4PMddxOjWv79O8+yU/yR3ztj/2DRCljiSv5ZUx8tq/YYS3IAb4Y1/6IhzGUtLHNGPrmAccYa+qTk27HH3wdVNpP4uqYej5dP8UH4/H7wgsvbOaYGLFD20svvbTJG8f4Z77ZJ9623fUHzWWq3ZP2fp60XXfXXQZkQAZkQAZkYF8ZODbxOgqFiJvcdPO1Ym7y6de/P0m/iAD6sp+x9L98+fJ6DG0cR7QgshCSEWrxs+v2sPHgP2OJM7GO80K08ENhTvx0H+by4osvHhgu/fCXEt8cP01+EkPszG2zjpkX/XpN2k76Ukfh+P79+xvTHfu4Xj1/xpGrrCVbjqmnYD8COscd38bhxA42wtu23I0xcHznzp2NRWLKOox2EKHMh9L+iHGbQGX9M27j6Cl29vWk5by9YMuADMiADMiADMjAfjJwbOK177lHIUAbN/wIgBY09OPmPm/Fso3oQ3TQZ6qMY7eJhKnxsY2diJTR5hgPdohtqr5FHX2uXr36KrHTc99VuGA3/tgmN8SSOUzNb4y13yzO9acef6MwJC8RgPFJHQ8WiKcFWOen12Qqt/ii4K/nyH7ihZltDymmxnb8nXPWmTgomcf64LP/dF2PoznHHQ91yUHsUkfsPYf4GHPQ+Umfp9l60t7Pk7br7rrLgAzIgAzIgAzsKwMnIl65AW8hwE07xxRu7vPGsffHm/YeM7bFTt6EcTwluqbGpW5KTG+LJz4QUvwwh/bPPuMRb4gn4ok4i8+purTNbWM37cnrQfmhP/4QSA8ePNgqAGM7Y8a4mVfyxdyxh2ijPvG0jex37LEx1RbbaevtOK7bdtlnfHhLrC1AY2PM59xapR92ycGY24xrv/hgXHLGMTEw76OUfT1pOW8v2DIgAzIgAzIgAzKwnwyciHhFvPUbwhYxubnPDX1EbW7i80ZyvLnnmLeZiAJK2+GY+l3FQATIaKfr105Wq7XwwXYED33ihy31FObBV1vz1q/nPNrK8S7bCK70jd2D8kPMiCXinZpX7I1bxuWr2bSNdljXiLDkJDloW9RtW6+eV+aU8T03Ys+bcdo5Js9sdymxPcbKHJkbZYyVuowbfTAmOSAGfprhzGv0N/aDk7DSPqjjrS18H1Q8ae/nSdt1d91lQAZkQAZkQAb2lYEji1duynm711/7jHDlBrzrs99fl8zNetr6dxvHttzQj/WMbZtzN/2JJ19JzXGPHW0TD3+QCR+IKI7Zpx8/jH3ve9+7qcN3bGQuCJ58lZSxyc9cnNQjfuKLMfmJzfaTtuQH+9Rx3L6Ja5eS+LGR3GSdk7uOj/49Zoyn24gp8Y22My6xJ9b0pz7+0za17dgY28fEQsl84jO563zRxviUtE3FzfjMM+3Udbxpj0+28dsxdV18T2339aTlvL1gy4AMyIAMyIAMyMB+MnBk8Tp1U506btanbsR5q4WgsJgBM/A4A3xeWiw/bpne86S9nydt1911lwEZkAEZkAEZ2FcGTlS8Tt9yW2sGzMCYAd4E5y3x2DZ3vK8nLeftBVsGZEAGZEAGZEAG9pMBxeucMrDeDCw8A5609/Ok7bq77jIgAzIgAzIgA/vKgOJ14QLF8MzAXAb29aTlvL1gy4AMyIAMyIAMyMB+MnBk8So4+wmO6+66y4AMyIAMyIAMyIAMyIAMPEsGFK8vC9yzBE5f8iYDMiADMiADMiADMiADMnAYBhSvitfVYcBxjCccGZABGZABGZABGZABGZCBZ8mA4lXxqniVARmQARmQARmQARmQARmQgcUzoHgV0sVD+iyf5ujLp4cyIAMyIAMyIAMyIAMysEwGFK+KV8WrDMiADMiADMiADMiADMiADCyeAcWrkC4eUp98LfPJl+viusiADMiADMiADMiADDxLBhSvilfFqwzIgAzIgAzIgAzIgAzIgAwsngHFq5AuHtJn+TRHXz49lAEZkAEZkAEZkAEZkIFlMqB4VbwqXmVABmRABmRABmRABmRABmRg8QwoXoV08ZD65GuZT75cF9dFBmRABmRABmRABmTgWTKgeFW8Kl5lQAZkQAZkQAZkQAZkQAZkYPEMHFm8rixmwAycSgae5VMufflUVQZkQAZkQAZkQAZk4LQZULyeiuzQqRk4egZO++Shfy9gMiADMiADMiADMiADz5IBxevRNcSpWnj48OHq0qVLqwsXLqwuXry4unHjxuru3btHjun27dure/fuHdlOGyAu4iRe4u6CL+Ln57j9tp/ztP8sTxT68sIkAzIgAzIgAzIgAzJw2gwoXs+wmkEAXr58eSP2xuOjTO3mzZuvEphHsddjt9k+CdHcvs/T/mmfPPTvBUwGZEAGZEAGZEAGZOBZMnAs4vXatWvrN2q8VctP3v6lrd+2pe7WrVur7Gdc3rzRRl2OER2pe+6551ZXrlzZ+Br70Tdv+aba+m0l7cSQMsYzjs8bwtTT/9GjR+vh7ZN2foh5W5ka0/FsG3uQ0BtjzRvNiNyrV69ucthxjjnoNUi89I991iI5yBox967PPOjH2+H0T322U8J223odFE/sjtuOExuxw5bYRr6YD22UMZ7OHe3JC2PIXTMy2sZP1qVj6pyPsef4WZ4o9OWFSQZkQAZkQAZkQAZk4LQZOBbxys10iw5u7jmmTImVbmf//v37uR9f38gjyihtc7Q12kUAZNzG2Gd3aHvxxRc31devX98IBioRDREtEVYtDNnHH3Z400nMFI6xRRnjwV7EzrrDln/GvuO8p4aO/sY+Y6zE3CKKOUckj2272GZ8cpF8tk3iYV7UdcFX2Oh69uf8xn76Y7Nzy1yn4kn/uW3yzHjEYtvsWMb1aXv0a+7GvHPcjCBW44exrAE56X7YH9ekfWb/tE8e+vcCJgMyIAMyIAMyIAMy8CwZOBbxyk14v6nqt0bchOd3MvP2ihv1vuHnBp42fvKGdrSJOGnhM9rNOG7sx7EdD745jr9sR/sRNthKrKmLeBi3PY/2OfYbj/GdONhyfFBh/nfu3JntNhVr10WQY6DzOnU8OkF8db7nxox26Teufdue6z+3Xhk7FU/a5rYjI2POOxYefBB3yrb16hynf7bbRHCzExbGHMdOts/yRKEvL0wyIAMyIAMyIAMyIAOnzcCxiNe+0efGugVK79OPm/QPf/jDT4iB3IyzRVQxpm0iNBhHW95atV3GRRhElKRfbFJPGYXIunL4h755A5umjid14xafCI4HDx68avzYt49b8Ez57r7ZZ/55o5e6bKdsdPy0R5AzZszleBy72WaNcjxlg7qsSfebqkv7lN9d1msqntic2yYfYy7Sn/Y8HGj7CFdYTOn4YjNt47bXudvmYug+U/unffLQvxcwGZABGZABGZABGZCBZ8nAsYjXUXT0TXyLFeq58Ud0sT8WbuL5PUzstU3qGYegpJ7SdjlOf/q28KRfi430a9+IlI5nSkyMdRwn1vjP12h7/u1nan+Mlz5zIqfHM278Cmof91dtx1iJL8IMm2Mu+5i+2O38TMVHO3nGF4U8k58cJ/YWgqnLtv2mbpf1moon4+e27Wsqpm5v+913zA1zpT1lzPvIGUI4b3zbB+Ox3WtEHTH1m/lneaLQlxcmGZABGZABGZABGZCB02bgyOI1N9T5qmO21I9fr6QNgccWQfT8888/8XVZ6iMaYifbjOPNJuI09dn213SnYopIQAQgsjKObYvbbmubjBvng5+2xzFiK19zbZ/rjsM/CBTm07GM8QxDnjgcxyceOs21dT39+cFnf0W159A5SN+Ot+fY7W0PEcd69zj26U/pnKdP2x3bs17tb2rcE8mqg54fNpITfMYX8RJ3juMzfeOPbfriAhvdljnS1n7pE5tTbZ132pPDzstpnzz07wVMBmRABmRABmRABmTgWTJwZPHKjbXFDJiBk80AIrhFMt6e5YlCX16YZEAGZEAGZEAGZEAGTpsBxevJag6tm4EjZyBvgHnr2+W0Tx769wImAzIgAzIgAzIgAzLwLBlQvLYacN8MnKEMPMsThb68MMmADMiADMiADMiADJw2A4rXMyRWDNUMdAZO++Shfy9gMiADMiADMiADMiADz5KBI4vXZxmsvvxwyIAMyIAMyIAMyIAMyIAMyMB+MqB4fXk/F94PvOsuAzIgAzIgAzIgAzIgAzJwlhhQvCpe/au1MiADMiADMiADMiADMiADMrB4BhSvQrp4SM/S0yBj9emlDMiADMiADMiADMiADJwMA4pXxaviVQZkQAZkQAZkQAZkQAZkQAYWz4DiVUgXD6lPrk7myZV5Na8yIAMyIAMyIAMyIANniQHFq+JV8SoDMiADMiADMiADMiADMiADi2dA8Sqki4f0LD0NMlafXsqADMiADMiADMiADMjAyTCgeFW8Kl5lQAZkQAZkQAZkQAZkQAZkYPEMKF6FdPGQ+uTqZJ5cmVfzKgMyIAMyIAMyIAMycJYYULwqXhWvMiADMiADMiADMiADMiADMrB4BhSvQrp4SM/S0yBj9emlDMiADMiADMiADMiADJwMA0cWryuLGTADp5IBT4onc1I0r+ZVBmRABmRABmRABpbJgOL1VGTH2XB679691dWrV1ePHj06GwHvWZSeVJd5UnVdXBcZkAEZkAEZkAEZOBkGFK9nVPAgKK9cubK6cOHCEz+XLl1aPXz48MBZMf7GjRuHEqZ3795d8WM53Qx4UjyZk6J5Na8yIAMyIAMyIAMysEwGFK+nqz+O5B0Bevv27SdscLzLm1IE7s2bN58Yu+sBPngrazndDHhSXeZJ1XVxXWRABmRABmRABmTgZBg4FvF67dq19du/fut369at9ZvBCCne1OUtIf2uX7++FkAXL17c1Hd73h5iJ/W8aYw92rGTNrbYQlQlnhy3xGD8+MYycSfGHDMu/hmDzx7b8WRsx8M+41MSF/WXL1/evL3cFlPGTm2J586dO+uc8BaV4xdffHHdlTzgo+PN29Kp3E3NZSp/yUfPE7ux2WPSl3lbjj8DnhRP5qRoXs2rDMiADMiADMiADCyTgWMRr4iv/goqomUUQ+NxRB3CJ6KK23vEGEKIQp8WPvTLONrpl7eH49tA6mNnbaz+efDgwYqflI6h92lHBCK0KfjuWDue+Kc/+xSEJMcU5tGxR7zT1j7HXK4Hz/yDbcQiQrLzlO7ts+dBe8eZ/uN2Lodz9WN+en1G2x4fPQOeVJd5UnVdXBcZkAEZkAEZkAEZOBkGjkW8thBCwCBUIyoPEmMRfbmVjzCaEj5jXftt0Tu+yey3gfgZ21tYt8ijHwIQv/yMb3pbNCbuFqKJqePMPHtLe0Ro2+w+U/vxNWWf2COiGTv2ydgpu9Qxvh9IpN9cPe3j+rRAz3i3x5cBT4onc1I0r+ZVBmRABmRABmRABpbJwLGI1wghhCtir4VS70/dtkf00dbCaGpc/MQOffI12bYziij65e1pxva2x3YM/SaxffXYcX8U47RP1fU4fCKg44957lJGu50fcoB4Tuk26sax6ZftmMOD6tMewYo/5mM5uQx4Ul3mSdV1cV1kQAZkQAZkQAZk4GQYOBbxihDiv1TJV1dbKI0iimOEGtsWitzit2BiH3v0oSAex/+2JQJstENf2lLabuqypS3xpI6x/LTgnbLRXwvO2LxtzTHbsR/5Sa5oZz9CL3Pq8XP7Lbrp03kfxfZot8eO8WBrar7Ud27JO2tCXQr7vLHttUub2+PNgCfFkzkpmlfzKgMyIAMyIAMyIAPLZODI4hXR1V91RQhx3H/0CCFDHT/5Ci/iKF/DRTwi8PLV2Qi52Gp7CCb6UxeBlGPG9ZjRJ9KhY+l4WlYgwPhjR8TYJXONXfxGXI9+MwfG91wZm3H4Yc45Tmydu/af/c5BYum5xG5ynbjjBzup63jG+tjuceNcmHeXKUHb7e4fXwY8qS7zpOq6uC4yIAMyIAMyIAMycDIMHFm8Ht+t+OlbytvIfPX19CM6exEgikdBe/ZmcTYi9qR4MidF82peZUAGZEAGZEAGZGCZDCheP6tT+m1mvzU9GzLmdKPs3PG29qA3x6cb7fnx7kl1mSdV18V1kQEZkAEZkAEZkIGTYUDxen60jDPZswx4UjyZk6J5Na8yIAMyIAMyIAMysEwGFK97Jnic7vnJgCfVZZ5UXRfXRQZkQAZkQAZkQAZOhoEji1cX5mQWxryaVxmQARmQARmQARmQARmQARl4zIDi9eXHyRAMcyEDMiADMiADMiADMiADMiADy2RA8ap4XfnhXOaH03VxXWRABmRABmRABmRABmTgMQOKV8Wr4lUGZEAGZEAGZEAGZEAGZEAGFs+A4lVIFw+pT1yGswAAACAASURBVJseP20yF+ZCBmRABmRABmRABmRgXxlQvCpeFa8yIAMyIAMyIAMyIAMyIAMysHgGFK9CunhI9/XJkvP2qaoMyIAMyIAMyIAMyIAMPGZA8ap4VbzKgAzIgAzIgAzIgAzIgAzIwOIZULwK6eIh9WnT46dN5sJcyIAMyIAMyIAMyIAM7CsDilfFq+JVBmRABmRABmRABmRABmRABhbPgOJVSBcP6b4+WXLePlWVARmQARmQARmQARmQgccMKF4Vr4pXGZABGZABGZABGZABGZABGVg8A4pXIV08pD5tevy0yVyYCxmQARmQARmQARmQgX1lQPGqeFW8yoAMyIAMyIAMyIAMyIAMyMDiGVC8CuniId3XJ0vO26eqMiADMiADMiADMiADMvCYAcWr4lXxKgMyIAMyIAMyIAMyIAMyIAOLZ0DxKqSLh9SnTY+fNpkLcyEDMiADMiADMiADMrCvDCheFa+KVxmQARmQARmQARmQARmQARlYPAOKVyFdPKT7+mTJeftUVQZkQAZkQAZkQAZkQAYeM6B4VbwqXmVABmRABmRABmRABmRABmRg8QwoXoV08ZD6tOnx0yZzYS5kQAZkQAZkQAZkQAb2lQHFq+JV8SoDMiADMiADMiADMiADMiADi2dA8Sqki4d0X58sOW+fqsqADMiADMiADMiADMjAYwYUr4pXxasMyIAMyIAMyIAMyIAMyIAMLJ4BxauQLh5SnzY9ftpkLsyFDMiADMiADMiADMjAvjKgeFW8Kl5lQAZkQAZkQAZkQAZkQAZkYPEMKF6FdPGQ7uuTJeftU1UZkAEZkAEZkAEZkAEZeMyA4lXxqniVARmQARmQARmQARmQARmQgcUzoHgV0sVD6tOmx0+bzIW5kAEZkAEZkAEZkAEZ2FcGFK+KV8WrDMiADMiADMiADMiADMiADCyeAcWrkC4e0n19suS8faoqAzIgAzIgAzIgAzIgA48ZULwqXhWvMiADMiADMiADMiADMiADMrB4BhSvQrp4SH3a9Phpk7kwFzIgAzIgAzIgAzIgA/vKwKHE68piBsyAGThnGdjXi4Dz9gZIBmRABmRABmTgrDBwJPF669Z3ri5ceM3q4sXPWd2793Pn7FbW6ZiB48nAw4cPVzdv3lwbu3fv3ur69euHMnz37t0VP5aTycBZOWkbpzcYMiADMiADMiAD+8rAocUrYvXq1S9aPXr0h2vhmv3cVkbYIm6vX/+q1c2b35SmE9sSy7Vrr189fHjvxHxo2AwcJgPXrl1bXbhwYXXp0qUVYnaXgtC9ePHietzTjt3Fvn2ezMC+XgSctzdAMiADMiADMiADZ4WBQ4vX27ffsnnbimi8ceONayHL7eDdu+9ei8jcGiIo+dnHwpuyK1eurB49erSP03fOh8wAvFy9enWFgLU8mwyclZO2cXqDIQMyIAMyIAMysK8MHFq88iaVN5wIVd6uXrny2ifEK29epwpCl76M4adFbWxR1/v4uXTpc5/wQx/GU0973vTmePSddsbwljhie1s8o43DHk991ZO3b7yF440aP7du3XrCfL914+0bb+4QNPwghjOO+pTRJn0Yu4sAwn9sZhvbxJ+6bFuQ561i2nbxGX/YIe7MKXkY55JYev55i0lb9slFbBNPxzk1D/rM+aR/4sDHnN05n72Go48pJrKObBmLeJ1ipOcRO/SnL9tt65E2tpkbOYidnuPUOmY8Yy5fvrwZ17GP+x0v4/jpdek8tc/2lXEZ+9xzz63tjOuO3VdeeWWTN47DF/svvfTS5m32uCZXf/4X/eNl/gE7GZABGZABGZABGVgwA0cSrw8e/NpafLKNGMyNa8TlKFARkQjTFI75SYlQjRjOG97+mnL6RuTmmG1Eddfhj74p+Iv9g+LJmMNsWwhw0x2BMNpCkN2+fXtTzc08woCbbgrHc78nyTjGpzAmv19JG2N3LenfNjKW2PnB140bNzY+sd+x4ztxZ+zctvsy5s6dO5uuzLdjJ5fJX8dH/ShgED0pjIlIyfw65hdffHHtB5vkPD6ZZwQebfhou9iMXbbd1j7Z77ixk+PEOLWlTws5+nROMhfqiRm7iZ1479+/vzHb851aP3IQO80ZdphX+GI/c6Z/x7NxNrOTPEz5b9ZHn8Se+DBNO5yMdohrFMThkri7LbHEXtZkX59gOm+f3suADMiADMiADJwVBo4kXu/f/8haFCI4R/Ha97AtUFvUImz5iZD8zM3kvdnfj22xOiVmGT8lXqfqEt9B8aTf02656ebNGTfe3ERz0x1RiS1utvttUouCFnWjX268e1yLJvr2zf42O6NdjokTUdBiJ/0ilmiPKKCNeXHzn5haJGTs1BY79M04tskB/hFu3TbX3gJvzHHiS96TjxYvCCHGZX4da+qylsScEl/Zpp5t18UndYg01gt7B5UpYZi4iSMPELAVu/hIwU/yx/qkjW2vF32wS+kx41j89LrHz67b5HLkJ/lpO12XOac9xx1PhCvjUug3ziFtsT+uyVk5aRunNxgyIAMyIAMyIAP7ysCRxGt/XXfbXxymHwKSsk1I0t59c7OZbQvWFrJpZztlf6ouY7a1pc9htrnJzpYb5dxcc7PdojNv//DT/Ua/2GpxyA18v5Wif0RC9ltwjfb6uP1O2Y3I634Zz1z4aUGRtrntaCd5on/nY2p8+o5xTvlP37bTOUp9BE2OWyBO2aCOddzmMzYePHiweas7+om/cTvVL3End/hGuGI/Yna0w3HGsT/Gm7ZRVI520m+s3/V4ip/kh21K5pbjOb9Zk3yW5uY1shSfU2uyrxcB5+0NkAzIgAzIgAzIwFlh4NDiNV/nzU1mb0dhieikP4Wv8PbXhHsc+9vEK+3Y5i3v+NeNY2dKjI4+iefy5T+6+Z3dbfHE7tNuuanODXaEDltK35Bzs44gZUsZRQTH+cM9sZd+qV8PHIRvbtLZ7lI6pvYTXxFHo0iIeKDfOG6b39FO+x/bsBPxw36E3ThHcoiIzpyxQ45ynHjaVuqyXjnGTtaLtn572Xa3+UwbApMxY7zxNbUd4+k8Y4v4sIsPfsjJVMFnczKuUXLJ2N7nGLvkijKKQOwQwy6l503srHVKv2EeY6XPGFPGYYN5JYaeV/sbc8NxcjeuyVk5aRunNxgyIAMyIAMyIAP7ysChxWu/BWWf/w4nhf1Ll/7N9VeC+Vrw+EeUxq/qckxBROarxGyn3uYiRGljmzL+0aXY6D7tc9d4Yv8wW26M+6uv/caUG+jxq5vdjlDJVx77a53clNOv27DDH6gZ69MHW9sKN/3p21vsfuITn9jMgX6ZE/P6+Mc/vp5DRF1i7q/xzvltn4ybGovA6HgiUtI3frHVPtt2+iSObsM2tlLG3HYbQgnxnni22U1b1jixtf22Hf/jtvvjN/PPGox+6MP8kp/Emnrsdxt9k+PYiu2MTeyMzXzS1ryOsee47eEvx9vs0o/CNr7Yds4yj+QkfTOPzCsx0p+2T33qU+tt/HeO6bOvFwHn7Q2QDMiADMiADMjAWWHg0OKVG8wIwlEM5ubV7ZNvDE8qH3mbxM14F8TC+LXibmefm/YIhm5DsI32un2f9ufe/u1TDvZhrmflpG2c3mDIgAzIgAzIgAzsKwNHEq/7cEN72DnmLVPeHiESLWcrA/1mbnz7d7ZmYrS7ZGBfLwLO2xsgGZABGZABGZCBs8KA4nWXu1r7mAEzcO4zcFZO2sbpDYYMyIAMyIAMyMC+MqB4Pfe35E7QDJiBXTKwrxcB5+0NkAzIgAzIgAzIwFlh4FDi9axMzjj9IMqADMiADMiADMiADMiADMjA+WBA8fry+VhIP5CuowzIgAzIgAzIgAzIgAzIwHlmQPGqePW/CJEBGZABGZABGZABGZABGZCBxTOgeBXSxUN6np8eOTefjsqADMiADMiADMiADMjAbgwoXhWvilcZkAEZkAEZkAEZkAEZkAEZWDwDilchXTykPona7UmUeTJPMiADMiADMiADMiAD55kBxaviVfEqAzIgAzIgAzIgAzIgAzIgA4tnQPEqpIuH9Dw/PXJuPh2VARmQARmQARmQARmQgd0YULwqXhWvMiADMiADMiADMiADMiADMrB4BhSvQrp4SH0StduTKPNknmRABmRABmRABmRABs4zA4pXxaviVQZkQAZkQAZkQAZkQAZkQAYWz4DiVUgXD+l5fnrk3Hw6KgMyIAMyIAMyIAMyIAO7MaB4VbwqXmVABmRABmRABmRABmRABmRg8QwoXoV08ZD6JGq3J1HmyTzJgAzIgAzIgAzIgAycZwYUr4pXxasMyIAMyIAMyIAMyIAMyIAMLJ4BxauQLh7S8/z0yLn5dFQGZEAGZEAGZEAGZEAGdmNA8ap4VbzKgAzIgAzIgAzIgAzIgAzIwOIZULwK6eIh9UnUbk+izJN5kgEZkAEZkAEZkAEZOM8MKF4Vr4pXGZABGZABGZABGZABGZABGVg8A4pXIV08pOf56ZFz8+moDMiADMiADMiADMiADOzGgOJV8ap4lQEZkAEZkAEZkAEZkAEZkIHFM6B4FdLFQ+qTqN2eRJkn8yQDMiADMiADMiADMnCeGVC8Kl4VrzIgAzIgAzIgAzIgAzIgAzKweAYUr0K6eEjP89Mj5+bTURmQARmQARmQARmQARnYjQHFq+JV8SoDMiADMiADMiADMiADMiADi2dA8Sqki4fUJ1G7PYkyT+ZJBmRABmRABmRABmTgPDOgeFW8Kl5lQAZkQAZkQAZkQAZkQAZkYPEMKF6FdPGQnuenR87Np6MyIAMyIAMyIAMyIAMysBsDilfFq+JVBmRABmRABmRABmRABmRABhbPgOJVSBcPqU+idnsSZZ7MkwzIgAzIgAzIgAzIwHlmQPGqeFW8yoAMyIAMyIAMyIAMyIAMyMDiGVC8CuniIT3PT4+cm09HZUAGZEAGZEAGZEAGZGA3BhSvilfFqwzIgAzIgAzIgAzIgAzIgAwsngHFq5AuHlKfRO32JMo8mScZkAEZkAEZkAEZkIHzzIDiVfGqeJUBGZABGZABGZABGZABGZCBxTOgeBXSxUN6np8eOTefjsqADMiADMiADMiADMjAbgwcSryuLGbADJgBM2AGzIAZOOEMeDO3282ceTJPMiAD+8LAkcTrrVvfubpw4TWrixc/Z3Xv3s+d8CVM82bADJgBM2AGzMA+ZWBfbsacp8JDBmRABnZj4NDiFbF69eoXrR49+sO1cM0+F9Vr116/FrUIW/aXUhDbd++++0TCYZ6XLn3u6uHDeydiX6Mnk4Hr16+v7t2bXrNbt26t7t69ezKOtWoGzIAZMAMHZsCbud1u5syTeZIBGdgXBg4tXm/ffsvmbSsC9saNN66FbK5EiLibN79p/fM0gg5xeVICM7Gd1Jb5Ps1cTyoO7e6WAYQpAnWqIGgRthYzYAbMgBk4vQzsy82Y81R4yIAMyMBuDBxavEaoITR5w3rlymufEK8Rodly6UPY8XYyb2PztWO2lH5ji01+WsjytpevKFOfryojnPGdY+yMdT2u7dGXY+zhu/fbTmJJ3LRR0j/jk5PPNrtZcAYePny4unbt2urRo0evipI62uhDQeReuHDhVT9XrlzZjEcEp0/XT42lLz7olzFsL168+MRbYPxfunRp06ffAre/2CDmFPZTP9ruse1zKlbG0v+gMsaaMTwEwEfHclB+2meP71gzv/ghvtQxj7l4ul/HhO2XXnppsyYdI3b5Sd5YEx5sZHzWZcxf6pO7bo+N5oA64sYX+6+88srWeGJ33LbN5Kfzkbim4tmWn3xDIXlg/om5xxH/lL+uY+xUHMkpNii9/uNcGN9zyFi2zz///CZ3HePa6AH/dP5iMzZ6Du0/7Ziey09ihbUbN25s+Mm80h6fHFOSg/Af+zAKs9QzJnYSY8anP31i44AUbD5LiSXb+GA8a5T6rBf14zzo05+nqfa2O8bmzdxuN3PmyTzJgAzsCwNHEq8PHvzaWvSxHd+8RsjlDWwuSOMxAjDi9TMXvuk3r4xDpLKl9DHj28bYvh7wWbGJv7FgC1EdAZ63ytjs/u2nvzaNPdr82vCY2eUeP+3XhW/fvv2EsOSYm9zPrP2t9Y1cZsvNWd+M5SaSdsZw48q292njJhW7FG5AL1++vPFJ34iCdYfVat2XMfS9efNmqp+wQyVt9KHQv98oU49d7GeOHceLL764iWHj4ICd2Eq3tkdd/PR+94lP6shBYu9YaSOPmTfH3CB3ruO/42E/+R/joA0fscl4cpMb8x7bsbPfsXFM314v4hpv4MNI+6SuhVC3jfFwPFfGWOnXzM/F0+Om8jP6y1pR32M5Zk1opzCPbTwTT69dM9tt2CE/6ZsY8cU+JTGN8awbd/znwYMHK35SOob2RfudO3c2jKZ/toklx9vmlc8hfYl95Cdzpp250ofSsY35Ida5z/t68Mw/Y+6wyzxTiC38Usd+x5eYRjvjcfrF7tR2X27GnKfCQwZkQAZ2Y+BI4vX+/Y+sxSvir8Urx4jXlAhZjse2XcUr/VpIYit1bHkrGhGa+qk3paONqZgSN+Pz1jXbUeCmL297E0Pq3C4zA9ww9Y1XRzne7KWtbzr7BoybuhY79B/r8Jc3FGw5Tj9uxNPWoiU35fHPdqxLTOONJcdtt0UTN53xl238xl7fUG67Me/YyGfsse38jvMnhpRtPtOWvmxTl1zkJp76vtmfi6fXJrZYT+xQeu7Yu3r16qat8wwnLaxHf+Qgb7mal55L9rGVt2cZk7Zt8aTP3HYUq1mTbfEclJ+RrbBDDGMbOSB+StarY+26MX+Jlf5ZJ+yTc9aFnHVb5ynMjvF0rB3H1D454nMTpvszhK/Us22723w2Z5lL5jHOH7vNwtje8WzLD7nqWMd4p+ZOHfFhN4U48xnp/al26rK2Pef07Zh6jmkft97M7XYzZ57MkwzIwL4wcCTxiljkjSPCrr+2i0CM2Ms2ovEkxGvegt6580Or69e/ai2c+y1pLoYRtTnOdowp9S26U5dt3s7mWPGaTCx7y00ZN0/cVI2FOtro04X6vK2jvm/spm7k+ka67bDf/Xufth6XG9KMH2OgnhtE6kc7tDEPfrqNvrkBjd2pbW48p9qm6rixxlfK+LZptDfOjXFjn6n5dt5jA6HCWNYna3RQPPibst9xMB/s9JqQy4hMBAt9wgoxYHOq9BpMtccH/fKmMv2Sl6l40mduG7vEyPjEd1A82JvKD3bGt6fElzLaTey0Z73Sd7Tf7d2Wfd6Cxnf3jb32lboxHvLBmh6mtM/2lfjYHpQf2uEmwpQ1IUYKNrExV9o/djimxP9UfmjD7mHKVO7IHyVctd3OCfX9ACGxpj/jyQMx5zObtqntvtyMOU+FhwzIgAzsxsChxeso3vqiM4q+Fofs84YSscc+X7VFaKa0wIwoTd9+m0v/+Ilw5O0vYxCwly//kc0flJqynTq2HV/XE0vH1m3xkzr6+rXhZGO5234bNUYZsTLW980ibX1jR9soDHhbN3cjio/cQI83gW13jAUfuXkkho5ptMNY+lPGtr4Jjh1uNLvkxrPrtu33jStx8VaIbcros/unz5TPXivySV7JUc+dY+q5Ec5Nctufigefczf22CD+rFHbSqwZ3zfeY7+2Twyd4zGm5IcxbRM/u8bTsWU/eeo80nZQPPTp+Ed7OSZHyRN121ijX/PbPM/Nmzj5oW+E61RffE/xM8bTn6/MYZctMTTTWS/G0sbxuM/xmJ91p/qn7WzjZ5xzz+Og/LSPxNgsVjhP7I656/jwD1Mp9M35hrqOt2OljWPWkrg7d7FFXR4Mpc6bud1u5syTeZIBGdgXBg4tXltYtpDLV23zJpY29nkDm6/cdh8EJ22IP0oELXWjGMxb3rzNbWGJzdgfheQ4jvH0p4xtiXvduH6D9eRXhzNuHItv/rugxJDxbpeTAW6y+ma7IxtvyNJGfd625YY7X8PDHoVt6rjx4gaM0mPTnps84khdtv0VOm4AuWFOW+KOr/TNMX4/9alPrW/8EkN8pO9UTN0WW6PP9WS2/JMbzoxjm5v9nkPaqWN+lG0+R7v07bzETuaJffqM4xJPfLIGiaXnn/rkOnbjJylIP2yk75RPYknpMe0zPrJmjEl7xsRH+o7xxMfUFhsZ3+2xzRziL+3b2hJD8seWmLue49jIvHrdDsob7YxPThNf28ic8NWxpL7jSXtiyTzntok946b8Y+v+/fubN6mMoUz5JcYu3SfjMtf4ZMu4rmfdeTNPPLR/6EMfWvufii95GM9B6dvxjPsd39Ra0r/7hMf2xbgcx2fy2m3MI7FiN2O6bl9uxpynwkMGZEAGdmPg0OKVC01E6Cgyx4uhx2bgtDPATSA3TxEwHQ91tNHHYgbOegYQAHlT1m/Izvq8jH8/M+DN3G43c+bJPMmADOwLA0cSr/t5KXXWZsAMmIHlZoA3W7zR2vVN43JnYmRmYLXal5sx56nwkAEZkIHdGFC8endgBsyAGTADZsAMLDID3sztdjNnnsyTDMjAvjCgeF3k5dqgzIAZMANmwAyYgX25GXOeCg8ZkAEZ2I0Bxav3BmbADJgBM2AGzMAiM+DN3G43c+bJPMmADOwLA4rXRV6uDcoMmAEzYAbMgBnYl5sx56nwkAEZkIHdGDgV8fro0f+3etObnl+9732/eWxX5tj86Ef/1bHZfN/73rd6zWtes/5505veNPmXao/N2Qka+uhHP7qZB/N57Wtfu/rkJz95gh53M81f+X3rW9+6+vSnP73bAHvtlIF7v/J7q/d9543Vv370rzf9/4/f/T9Xb/3CH139tX/juzc/HFN/2uVj//ATr4qXmP6fP/x/V+9+4wcWEeNp50j/ZmBfM+DN3G43c+bJPMmADOwLA6ciXk/iInwS4pU4EVg//uM/vnr/+9+/CMG3LXeIwHe9612TXW7cuLGJn36Ixqn/NmZy8ClUdryn4P5Mu5wSr0wIoYoYRBRS6Hf5K967OV7apBWvS1sR4zEDzz4D+3Iz5jwVHjIgAzKwGwNPLV7f+U9fWr32tVdWr3/9tdXb3/4rq9e85sL6p9+ivvWtv7SuY5t93rQiMHkzmjG0UT796Udre6mnzyc/+em1H+rw97GP/cETffDPOEr3jY1uj7BNW2JZDz7gH95QRkix7YIIfP3rX79+q8nbTEQubzkpCEPe1ubNLW09HvGYNvYpsZfjvPllG3vYjM9+Gzy+XcV27GA7c1g7Wq3WIhd/7Tfx4I/C3JnX29/+9o1PfGccfRIjYzueHk8b44gnYzNutJd5Jha245vijB19Jn/Y/J3f+Z21z9hPfpKTzG2MeT3x4R/eDPYbS467jO0tCLe1IR5jN29BEWyMz3H65Dj2PvKOj677Mf5nf/AXN+GwH5vZJt5RvI7iML4yjuO8sSUmfKYtNnHMG17e9Kat4xnb6JOxmSt1nTNsjrHQp98mJ674pH9KcsA2+4y9+f0fWcdI37bf8WIjrOSzHLtuzYAZePYZ8GZut5s582SeZEAG9oWBpxavJCZicRSfLWDZRywiIl9++f9evfnN/2Q9Lpc+2jM+dRx3HX3mhOY4PgJ1/Npw6ulPyXH7if+pbUQfogoByvYzdh6t3vzmNz/xNhOhlBteRFL2I8giCtlmH1t9jADrt6fYSF/a3vCGN2x8Uh8f2BnHrgP97D+ZB4cIN2LPXBCn1KV07Nhv8dhjaYsYZOx4zDyIicI4Ys9xfHWf1LHteLt+9DEe05eYEjN+sYVfhGr777y3j237o+BDiLXwQhTleFsb4uuHv/y9m6/EMi4CdfQxHiO24iPikPEp7LfQS/0oXrGTfh03/TueCMWIvIjOiFDq05Z4ckyf7GOX/Yybiyv147y7nvlnzokvx/TDR0Txwwf/1+qD33trnetP/OxLm69TE0vHFvswxYMRthYzYAZONwP7cjPmPBUeMiADMrAbA4cWr6973bVXidEWmojFfvs5Xv5G8Uk7ojh28za2xSiCM29P2bYAjSjt/tjkuMdkf1tsiXUUrC2oIorSt7cIpBag3TbapK3rxrHcQLd4bbvdhp1xbPvFRt5m5m1kfCPq0pZtRCk+sh97ycOU8Ow6xsYeW47H0v27LT66jv2p/mPdeBwbLVbJ1Shm02/cRhzlLV9EZoTaKMYYv62N9inhFGE3irbxOP0S53iMiIsoTR+24zxGAZz59Za5Ma6FNraox8fL//yVV7XRP19PJpbRXseUuNK/28Z5py2+yXEKdeQhhePML3VsiY03yNhuAdx93DcDZmA5GfBmbrebOfNknmRABvaFgWMTr4jEUby2uBwvhVPilT6M4WfKXgvOcfw28crXjhHGT1sQqLzBawEWIXnWxGuLQeYQIdnCeSo/9Muc0x5bUyJxqo5xiEVEMP66zPWPj+7L/lT/sW48jo0WrMxpFOXp19uIHMQQpQVVBGq/8cvYbW30GQVn17WP0Wf3Y58y2tomXiMSI2SZV2Jt8fdZ0+vNlHiND8RrbGZMi9fU4ScidvQz1Z9xYx7a1mgD+103HmcsW/q96xt/elLcdj/3zYAZOP0M7MvNmPNUeMiADMjAbgwcWrwiCCNO85YUQZkyisvUZzvXnq8k84a07UXUMj7+4p+6UbzG/lRf2loIJ6ZxOwqoFnrsI34QRCkcR+iNX8VtsTTabSHcIo993pLGJscIs5RRWHY78fXXmtvn2Ib9iNnYzpb68U1tvj5NW49r/+y3WB2PY39OaHa8+IjQ3ObzIJu0Y4f4OzcZN7UdhRuiKG9e6c9xv+VswbWtDfHXdvq4bcRH90V8YTtlPI6wRJS2rVEkts9xXozjzST1jMN/xGG3jcJ3PB5jG3PCHMa4Mq+OnbrYSjzEn/HEl2Pq8JN4153qn4yfa4eRfO28hrlrBszAKWTAm7ndbubMk3mSARnYFwYOLV7f8IYPzv7BpgjGfEU3xjJUOgAAIABJREFUX+WNwEx9ti0k06fruF62Tdryx6JawPZXhHt8j43PxDR3LUbQ5Y0rggnxhYijLmJufDMbkfmZeB/3Z0zE11Rb7CUW+jKGG2iEFvu/8Au/sPkDUPhp3y0gM5YxqWfLMT+JkfGve93r1nYQs+NXh9OPsQi9fgMdu+O4vuHvfOG328ZxiS12yUPPj9gYQxnHtt0eE5uZR3KbPr0eaZvbIoTy1jB/KGkUk2lnS/8UBNJcG2IrbW2Psd0Wn4jJX7r6q5sx9OnYIt4iIGObPhFsqUvfxDfaol9EecTlYf5gU+zHb3+Vt2NPO9vERh66T+Khfm4+tEVcx2bb6/axnrZw2yxSbzEDZuB0MrAvN2POU+EhAzIgA7sxcCTxiii0nO8McBM/CsCzPGPFydOvXsQrovA8FERri+ieE7w/zYONHuu+GTADx58Bb+Z2u5kzT+ZJBmRgXxh4avGa/yonbzD7zefxX7a0eJoZyFtK3mKOb4dPM67D+B7f2J4nQX6YfOw6ZnzDOfdV213tnWa/fovLW9l+k3uacenbDJiB+Qzsy82Y81R4yIAMyMBuDDy1eCWxFjNgBsyAGTADZsAMnHQGvJnb7WbOPJknGZCBfWFA8XrSV17tmwEzYAbMgBkwA4fKwL7cjDlPhYcMyIAM7MbAocSryd0tuebJPMmADMiADMiADMiADMiADMjA8TCgeH35eBIpkOZRBmRABmRABmRABmRABmRABk6OAcWr4nXlB+zkPmDm1tzKgAzIgAzIgAzIgAzIwPEwoHhVvCpeZUAGZEAGZEAGZEAGZEAGZGDxDChehXTxkPqk6nieVJlH8ygDMiADMiADMiADMnCWGVC8Kl4VrzIgAzIgAzIgAzIgAzIgAzKweAYUr0K6eEjP8tMhY/fppgzIgAzIgAzIgAzIgAwcDwOKV8Wr4lUGZEAGZEAGZEAGZEAGZEAGFs+A4lVIFw+pT6qO50mVeTSPMiADMiADMiADMiADZ5kBxaviVfEqAzIgAzIgAzIgAzIgAzIgA4tnQPEqpIuH9Cw/HTJ2n27KgAzIgAzIgAzIgAzIwPEwoHhVvCpeZUAGZEAGZEAGZEAGZEAGZGDxDChehXTxkPqk6nieVJlH8ygDMiADMiADMiADMnCWGVC8Kl4VrzIgAzIgAzIgAzIgAzIgAzKweAYUr0K6eEjP8tMhY/fppgzIgAzIgAzIgAzIgAwcDwOKV8Wr4lUGZEAGZEAGZEAGZEAGZEAGFs+A4lVIFw+pT6qO50mVeTSPMiADMiADMiADMiADZ5kBxaviVfEqAzIgAzIgAzIgAzIgAzIgA4tnQPEqpIuH9Cw/HTJ2n27KgAzIgAzIgAzIgAzIwPEwoHhVvCpeZUAGZEAGZEAGZEAGZEAGZGDxDChehXTxkPqk6nieVJlH8ygDMiADMiADMiADMnCWGVC8Kl4VrzIgAzIgAzIgAzIgAzIgAzKweAYUr0K6eEjP8tMhY/fppgzIgAzIgAzIgAzIgAwcDwOKV8Wr4lUGZEAGZEAGZEAGZEAGZEAGFs+A4lVIFw+pT6qO50mVeTSPMiADMiADMiADMiADZ5kBxaviVfEqAzIgAzIgAzIgAzIgAzIgA4tnQPEqpIuH9Cw/HTJ2n27KgAzIgAzIgAzIgAzIwPEwoHhVvCpeZUAGZEAGZEAGZEAGZEAGZGDxDChehXTxkPqk6nieVJlH8ygDMiADMiADMiADMnCWGVC8Kl4VrzIgAzIgAzIgAzIgAzIgAzKweAYUr0K6eEjP8tMhY/fppgzIgAzIgAzIgAzIgAwcDwOKV8Wr4lUGZEAGZEAGZEAGZEAGZEAGFs/AocTrymIGzIAZMANmwAyYATNgBsyAGTADZuAZZYC310cSr7dufefqwoXXrC5e/JzVvXs/94zC1o0ZMANmwAyYATNgBh5n4N69e6vbt2+vK+7evbu6devW40b3tmbg4cOHq5s3b677kMfr169v7W+jGTADZuC0MnAk8YpYvXr1i1aPHv3hWrhm/+HDe6tLlz53LWoRtvm5cuW1676nNdmT8st8r117/TOZG7kmj+SUBwcWM5AMbLvh4Mbk2rVrq0ePHqX75JabvQsXLrzqx5vAyXRZaQbMwIIywPntypUr6/MX24POdwsKfRGhcI3g/H/p0qUV1wyLGTADZmCJGTiSeL19+y2bt62Iqhs33rgWcC3mEFh377571XVLTMS2mIifnyUVHhyQf4sZIAPcpHHjMXfDwVN0xO1BBTs3btzY3PT10/iDxtpuBsyAGTADZsAMmAEzYAZOMgNHEq83b37TWpQi7HgTOPVmNeK1J5H+vK3sffr0m8Xx7SK2eKObN4/jV5X7jS9t2M9XmbsNu6MYTRyZx/XrX7UR3NT1T4/FR8YQe5c5n6nnTTVxMh47KdtykD6K12TCLRngzShfk5sqT/P1OcRrvnaHrf4aHsfY6jezHCNweVKPeO43t/3mA7t5I8L4bsv4tnvx4sUDxfbUWwL8t+2Olxgj4rHf/tjvtw3MO306lm2xZu74p1/mSz1lHEv8Yz3xJmbieeWVVzZ2el6Mzfj4ZQ4da/IT//hKHT7mSuY+lY/EMOczsY+5TQxjDjqOtpnxmePIT+rn5kD9OCY22cbvXDyZR+aLvdThe7Td/TKP8Ba/8Zl26nu9Uo+tkZ+sSfp3X2KhpA67HU/WPHFkmz5zOVgb3fJP+4vNrMuYn9RjLvGwbd/kJzancsDY7o/P5DRr03XkjDVge1CJX8Y396mfimdbW/xlrtidygH1+cnaMja2O57OKfG8+OKLm3MU84+vMf65dU48YQtf+KUkz8lv5jNuE+dUfujb69Lzi318ck4mZvax89JLL23mNRVP5sm27STWOZ9jPPjLmM4t9fnpXHaemAv+89lrnxmb2Mec5bjtZQzb97znPet8YD/5pT7ryPgxXvqmsE9/tmN+pnz22J7H3Hr1WrP/sY99bJMvxsd/9xvjp0/8HhRT5uXWDHQGjixeHzz4tbXwYps3r+1gSrzSHgEXwdtvcVscIiIjQBmHyMMmhXraU9oG9i9f/qObsQjCF1/8zO9wsI8d+sROvvLMMf4RyWnnuGOKv2yxN86dOmwm9vGYeuKLj3Ge7W9sS8y+ec0K7PeWk//c7ydx8eIikYvsQZmif37vib5cjPihjLawiW3q+eFCnwsS/bnw5gLONnZiN22xHb+IZ+Z0UMF/vyXGXl/g8Tcex2fPCz937txZz4F9fF++fHlzPM6b47lYqaedwha7KRHOOe6c4LMfGnQ87Y+x5Dh5HteevrSRG9rIT2LlmHz0OiSWccsYxjKGQuxtt3lrn1k7xmU+3GRzTD/yGpvNT/xn/DjntGdLP8YfVEY7+CYeyrZ4whbzpF9izbx77bBFTsNWxia+zIl++I+NxJC8cryNn5HZzgG+w8QYT/xm3vEbxg5aE/rPlcxtzPPYv2Md89Nrwri5HGxbL8YlFvaxyfmI7dOW8Jpxc/HQvq2N9QgT9A0zPf+OuXMU32w7njHPzI9xlLbLMf76/Ad3nY/EQ99mCx/kbpfzBGO35YD2FHw3g6NP7KSMbR3POM/Rbmyw7Tbm1Z817HBMfec186E9ucVOXxM4zud4jKdj71jG/fRr34mXum3X09FWszPGE5sZwxrQJyXzzXG24ziOkw/y1mxRT3tK2+z50c5YflK6b/tIu1szMJWBI4vX+/c/shGCo4DD4TbxypvbqZK3mbyRHN+u5m0v4xB+9EUYUhCEeZPJ2Ihc2uiTN7a0tTht0bs2NPxzGPFKLKO47Lrex92Yp205oP84fgjZwz3JABehXICnpjzesEz16brx4tEXJW52eILaP3k6y7irV68+cVHMRSsX4h7Hfl/AGJ8bm76YdWzjfseaGzXGUsYL+Di250Vb++z9jOu69hsBEJ9c0HuexEVhDLnqNvbTzo1Mt3HjQt4ouclhn5yR576J6HHsZ2zmyJZ8MIdtrKydfVbU0TdrwpZxu/hMnjrm5CjxxA/bsS6xdo7pN+an2Wl74/6UHWxRRt9dl3ERDozBJ9uDeKadOVOw0ze92JhbL9Zojh9sjZ+/3Dzij7x3GeuIO/OmX4635aDtze0fZr2m8pfYtuVgW6z9eU/OyTW+DipjPPn8MG5bPNvawk/7Tl2vTT4v2GJ+lG3xxEbsZh057rbxfEjbtvNP4sA3vJI7xhxUtuVgbMu1IjZzXuAYfzkXcrwtnjE/fJ7m+Gmf4+eHcWlP7og5D0Txk89x4kns47Y/17E59hmPw3N8057zDXVz11P6Md8+j+A/ZVt+6INtYsz45P2g9Wqf/RnBZuenc0hbM0qcff2ifVyXrCVtFjMwl4Eji1cEJMJrSmjidBRlCYRxU+IVodiicxSW28RrbLNFrPbb1TGOtjP6aDvsP2vxelAOiEnxOq7Sfh5z4p872VOfC9Ou2ekLDWP6opQb1Slb4zj6xD8XywjTqbHU5UKefS6AB5X4ZI5cFPsmoPen7PS8+mLb+xnHzQD9U3o+bWfsl/gYl5uS2Bi3Pf8xhrQxx6w3tulH21xJbNyA0Y+bstyYzY2hPrljPozDL9tdfMYu/bHTJfGkbpxn569zjN8INcZ2W2zNbXsN6NNxbYsn4/BF/sjBhz/84bXvg/zTnptDbvIYy9wOWq+eP7Emhsyt4+2++GNeXcaxPe/u1zapH9ek+477Ywz5jON723qN8XZsbRN/PY9tsWYcthFfDx482Il1xtGfcZRxjWI3c+94trV1v4ztecbX+Hk8KJ7RbttM29T5cNv5J2tOzpKLMdeZw7idywE2YYCYUoiV+hQ+FxFQLWgOimeOn4N8jv4TR2/H+dA2Vddj2GeefNZ35a7HZ912qcv5/7Cfr/bBfuZ2UO7oG9ZGlrJebNvm+qDGsd6Jv7lgPckd2125i223+5uBI4nXg0QfaR1FY1I9J167P336q7+MbdFJe968jmJ1PO6v3iL8+iu7HPfXj0e/LV7p218xJiZ8jW+dp+o6X6P47Hn3/hhL8jeOT73b/ckAJ/t8dWmcNRclLha5oIztc8e5QNE+XpS6Le3UUbgo9dNYYsuT41wg1x0/+09fALt99Nljxn1844N5UvomAJt5ak4bx1zw2Y4+2j99+201ffHBfFKSh9EOfZIP+qYf+2MbdcSHb0pftMd4aCN2ckxpuz2ONsbGLm2UrAU3VqlbN8z80/bJLXntujmfbS4xdF1uXFIX2zluH72WvT+1Hhk/tW2btHfs2+JJv/aXunF9sNs8dxwjI7GRPlkvjkdGOvbRTvfFRn/Ws96MSRn9pn5bDtJnbtvx9Rr1fucvdrqduo6t50Vb+9gWK+PIAeKLfEytUfz3duyHD35StsVzUFufm5kz8XUhN8yvy0HxdD4Y17mjbe58OMbK2HxG8Znc0W9kreMb90e7iW+0MTX/ttVMHBRP98VGcnCQz8QWv3P5Jy9dxn4c9zWBHDwtd21/6twBg3PX057/GAt2u53j5Kd9Zp++OXf0g5TUpx9+0j4yOh6PTOB/7vrF2DwwaR/xy5Y+5KIFe7e7v58ZOJJ4bSHH/igA+7/Lye+2kmbEGW9q89NfDUasZRz1CMV8xTfjsEW/fA04AjbHsYvoTCG+fKUYe/TlB5E5xtTx0NYxJZaxPj57LP5Tz5Y4x3ERxrRnbPujrnMw2mRcz2PtwH/OfQY40XPR4cQ+VVqATbVP1XHBzFepuKByseA4F41cRPK0nC0XOQo3Blzc0tYXXtpjO+3YxF58pD7bvoHcFmtuCImDse2XttjLV7l6DvhmnnlLFp/dh/HYJt+JNRf7HDMu/unPMT/sxy9z6HhoG+0Q+/3799dzSHvGJLbYxTcxcaOQ+OOPP3iS2NIv4+iTNZvKa8+D/c5FbE35pI7S4/GVuGnrHHbbOIY2frKW47hum5pD6pI78jPF82g3sSZXWbueLzYp6ZNYk5v4Zhv/9InttkV9fHQO6Bv7tH/84x/fMIGfKWZ7fPJGDF3fcSTOuRykfWo72kwO4ne0SXvaMi/qsJMc0f7CCy9sPq9jDsjbaJc+lOQ0PppZfBxUOqbMhXE9zzEe3sKn79hGPJS2O/KReWMjDCTOHhcfYzypZ8u8c+4Nn4k9OcF2+2Qcx8lVYugcE8e2Eh/YmspBtyfe0WbWLvP41Kc+tZ7PXDydG+xnTpnnNp+Za2JhS39Kzzux0D+l/fa4+MdOz2WcZ+z0tvtjE1sp266nY6wdb8c55ie5pX9+msttucs80x8/5Lz/oGBsZkufjEs+Eh92nn/++XUc1PXadB7IB+3xm/y4NQNHEq+kD0GGgGpRZ1rNgBk42QxwQs+Fd/REPe3Psmx7ujsXBxcsLlRcjLtwUecG3bIfGZhjmRu4kY39yMiyZ+l6LWd9+HzkjdhyojKSo2bgMNfTo/o8zvHcg8zdnzyNH+4R8mb2acbZ9/xn4Mji9fynyBmaATMwl4HxKfCzFs1zcVlvBsyAGTjvGeDmHqFjOR8ZOC/X0/Er2oddnbkHZYe157jzkwHF6/lZS2diBsyAGTADZsAMmAEzYAbMgBk4txlQvJ7bpXViZsAMmAEzYAbMgBkwA2bADJiB85MBxev5WUtnYgbMgBkwA2bADJgBM2AGzIAZOLcZULye26V1YmbADJgBM2AGzIAZON4MHNfvNB5vVFobM8AfRDyOP5w02j0rx/xOOH+pmK3lfGVA8Xq+1tPZmIHJDHDynvrLvul8mP9aJ2PdmgEzYAbMwPnNAAIo/wUKW//rkt3WeswbuRv/K5jdLL26F7aflTDl/oH/GqcZWAIHPkR5NRf7UqN43ZeVdp57nYFt4pQLoH8leK/xcPJmwAyYgckM+PZqMi07V7bA4q8JX716df1/wu5sYKZj253pcqzVcHDnzp2NTeZCDKdZzvp/KXSauTvrvhWvZ30Fjd8MHJCBbeL0oDeybZonxuOTV45b+Haf8Qlz/6fs/Cf0tHMBnHqqm/+kHv/Yj9+u79jGfeacMdkmnthrW6l77rnn1m8VMqa3eco9zoNjyvjfHGQs4zImPuMvbzDGsanHbnLKtnP1sY99bBPr2D9zjd/EwjZtY85ynDE8accfJXXxk/ixlznRbyrv9KE/peOnPjmlrW3Sxk9iHfOT+rXRLf/MxcM6Y5+bMeYUf4lzKta09RywHx/JV45jk23GYrfb53JH/+ScfX6wQ3/+D+TETB7Sr/0kRnyNPhNXx7TuNPzTcY7xpCv+Yy9rkniSD/qm7p3vfOfqx37sx9ZjElvWlrm9613vWrf1WHwz35deemk9//jLFr8da+ziEztsO86M69wnhrThj3Ede9rYZq7Jw9Nsk4u2xz6x8n+2Ehdz4Dh9MqfMYyo/zGGudH5iM3NotjLn1NGHsQgu4spY6mJz22cofRjX+U6c3c6ceMga390/dVPn5+6H3bbZbbHB2vL5yGeI+h7DPoVcENMLL7ywmTt9KePna1058w/5oX9KRGd8sg1/HS+577wTb9Y4c8l6sE3csUVd1hjf8cf/m0pbWJvqE7uxyXjywbmHuUQ03r9/fz0tbDCGuJKbjrdjoh9tYS1xtc/YwG7PtW3GZ8Z17rDNMW09h6xBt/c4/JIf8h67WfOM3bbtmNhP6frYjd+eH7EmH4k7x4zLGOyOOY1dmH3ve9+7jr/PE4nhAx/4wCY3GdN5xXbH1DZo63gYnzi3xUNex7HY5fOekvgSU881fXqreO1suG8GzlkGOGlwUuDEMlW2vZEd+2ODC15sYbufxOKnT/Ts58TGxYKLQk5iHPeJi/r8f4W5uON/qt+2+XTM+I5/6nPBHfc57rl1LLQRAxft7Pc86NvxtJ3R/3jMPJPLzhV+6Jtcts3EkHjGWImFn5SeM/PY9Uk541hrxlBYq8xz25pk7doXsXJMrOQuNpkXNqlPyfhxXmnPtnOXuqlt7E3FQ47Hi+/cWxFixVZK26NuvEHFdsq4fqlni52sJceJl/lzcQ8DtPVajjabrYxNDNv6dixT+9viYe06vmZ4Gz/EBVvJJ8e5mR1jxWZurDLHZqPzl1iZB/Xkj23b7D7s08YPPjpfzWXnHXuJeypfu9ZlLunf/DDnvnFjvsTHtufC2M5PbM1tR589r95nfPvBR9/A0pb8YHPXz1CvFT4Ym7XNMb4o2+Lp2Oi7bU1Gn22XfPb1q9lgXPhJbMRLYRxtOV5XbvknnNFlnHP7nJpXX2vGa3XPZcr9VF7IL2tHW2zHDvOijTgovc6JPcIi6xS/Hfvol7a5z9c2n8kzMaXgN77bZ9rHbec3bT136sYYkqOpttiY2hJnYqOdfda74+x4mousAbHx2Z9ji/ZcL4ibcZSMx1fs9r0afbr/uEYd19pg/ZPrd2zMMdL2x3gYO7LPcfI1xpPxFcardhWvr0qJFWbg/GRgvOD1zPrk0fVz+31yok+fcHo/47vuoJNR9+0bOU6UuWBm2zdS8TW15cSYMWxzoszFNG3U99w6FuySJ34oU/PourbTJ33GjvHkxo0xzCnxZJuL9lR74unY6I/44kKUMvrMuLRPbTMH8pA5YDt2t61JctFxZT2nLpBjHcesz9QaJC9sk5up+LtuWzzkhp8uHfeYu+5Lv45nZHJs55gystcihfbObc+RcX0zkjVK7Jkn9dyUMpYcprTd0Wf6TG17XMczrg9jU5fYOJ7ih1gfPHiwucniHMXPuO7km88I/SlhJX6oi/3OD+3JAbEkHvonT/THHqXXfF0x/DNykLUcuj3VYeaSQYmLY/I8+kj/nvuYn9ia247z4JhCLshzeKY+OaONeDjuknjoGztpTz5Hu80dbc1zxrIdx3U8tBNLny/7szeOHX32PJlvYu94Rn7wmfXBd9ii30FljCfn/IyLXY6T87SF7Rx334437eM269D1sRGO2g65CAPZdv6y5lN28UE9axFRHL9z/Wnf5pMYuZ4RY0rnqPfTPm4z364/qI55xucuPrCdfLaf1LWN+MY+fijsN5dhcqqt1yP2GZ/PEr5yve3PCGuQ/tjlOGvMts/t2Oix/fk6aL2SuzGejnE96eGf0ef4ORm6rw8Vr1NZsc4MnIMMcILqE2FPiZMFJyxOKruWPvkxpi9KvR97udjhi5P2toJtLtaUqRP8trFzbbFDe588Ox7qyQOxMgfKOJfMo23EZ9uijuM8zc+49O14elzPPX17O+a97WafObDWY+yM5eLDtv23/XE//ogR+50fckDdQSVxdb/R/5jPuZwwp76YEV9Yafvb9neJh/F52EMumXfKeCPZ9sZ5ZEy2ySf9mEc4ox071FPaTtfT1rnhODZ7HIKQG0faxlzjEw7okxsLxm4r2+IZOcNOcpLY5viJf/qzz5Z4KbGb/MdWx5k+XZf80J8cTM2z59Njx1x1G/vYfNrP0GhjPG6fHVfvZwx1sMgcM/dt+cm4cTvnM7mjf3yxJviaiod+sZVt++IzxFe8t7E+ta6xsS0e+oxjkxNi3eaz7WIn49hP2xQ/ycG2z1diH7exS31sU0eJXbZpJ+8pESEcj33bbvqPW2zhM6VtZO5th/6JJWN6O671aB9fiKs+bzJ+HNc2t/lMjN2fOtin4I/xc6Xnmz5TdZ0D2tvmQT5idyrWMT9Tvhkf/6NvjrfxHN8Zn2O2HTftrMmHP/zhDQ9jbFkj+uYagp0xJsZRt60cFM/cWGLkp2Of60u94nVbdmwzA2c0AzlhzZ1ocpP+NNMbT9B9AuSEg80U+uYiNp4AOR6/nhlbtOXmFls5qcYu84o4TN3UdrTTtvrkSD/ixCf1lMQSux1D521qHp2jHjfG0zFMnexbLLXNnkf2ucDlgt6xYzcXotF/5ja1bRvkBv9d1/Ni/NSa9I1XfBAjtlJiO8fto+fc+1M5z/ht2zEe7JC3MMpY4pvLI32ZZ0rnYGr90q/tjmvAvNp/M9Fzxka3cdzt+MfO3Fozljb6HRRrx90+21/imfu89zpmjVM32qS96+jHuSF5Gf3iuz8biRcbycHcPMk/9scystEcYGsur7FDjLy9CDupn9uOHPSasI9QblvJIfZ2yc+U39EnfcJw559++OvzYZ/zGEc78dF37jM0+iNHjEthnn0e5zifsYPiGZlI/4N8pl9iCJMc00Z8U58TYksb/UY/sTe1HX02W2Nbx4MtjvFFIQbWK6XH0me8ntJvtEc/6rqt7WzrPzXn7t/r13PE17bPV9ugb8eIHT4L2KYQa7+JbQ7a/7rzhOBPffM85g47zWX7yPipLbHNnQ/Tv+eWOrbto/Mx5px+/RmKjTHm0SbtjCM+9in57MdG/NLenI1rmX4ZNzWnqXjGOo7zeccWfjK3zkf8kF8ejNAvRfGaTLg1A+coA32CHqfFyaFPAmP71DH98zWTnEQ57otL9+HExIktpdsYhw3a6ccxJ64+Tnw5acV3f20mtsctJ0biyphs8YHfHGfLDQv7jMkfOsAPN8mJL/MZbWOPgm1spF+O2fYY2rGLffpnnmN+Yqfrx7wn1tEGY59//vmN/fZPPNtK54f9HpuYtq1Jj+/54bPXt9vGMbTxE7bGcd22bS60jbaTK2xyg87NUPx1bnreaWf+1LNNDPzBkrDG+DE39Gu7Yzy0E1P74zhzZmy3JZZsf/mXf3ntP5+LjItdxrOP344teZjLX/sc48kY6hNH2Oj5sd923vGOdzyRK+wkPuLnD4lgL/mKrXDQ8Xe/1Kdf+8RG+2FccpV5ZHzmEv+ZH9u2mXbGJ9/02aW0HXI2ngto59wdxogpthNP/I/5mfPfPjNHttiJja7v8yFjx/GJ56DP0JTtjCVW/Mdv1mRqTMfDZzZjss1YbE6Nx2fXc8wP4xmbP8g0xc9Bn6+5nI+xZM3CGvGMeSWefI6SG7bdj3GUrmPcXH1y1H/cj7ljl/kyjhzMxTNXj93kK7HSN5+HjilzTiz0Txnn0eMQSr3e8ZexbfcgBnrs6JNK/DM8AAAHKUlEQVS4KV1PHT89z/id24YpxmQd0zc5oq1j7TngLzFgi5IYGJeftHWuacscO46MyWeo/2Be2th2vFPjiYOS+Hps2ubiWQ+c+bzH3hh756jzEF/UKV6TWbdm4JxkgA94TnDjlDhZcCLlRGMxA0vIAKz2RSkxcfNyUpzyOegnzPF5lrbjU/CzFPt5iRVu+8bvqPPiZpZ1PQvlPHyGzkKe9zXG8e3gvubBeU9nQPE6nRdrzYAZMANm4BxmoJ92j094z9J0vbk73dXiwQoPAhFxx1EQwnmjkTcRx2H3JGycl8/QSeRGm0fLwPgGb+5B/NG8OPqsZ0DxetZX0PjNgBkwA2bADJgBM2AGzIAZMAN7kAHF6x4sslM0A2bADJgBM2AGzIAZMANmwAyc9QwcWrwy0B9zIAMyIAMyIAMyIAMyIAMyIAMy8KwYeM2zcqQfoZYBGZABGZABGZABGZABGZABGTgsA4pX3yL7Fl0GZEAGZEAGZEAGZEAGZEAGFs+A4lVIFw/pYZ/MOM6nejIgAzIgAzIgAzIgAzJwfhhQvCpeFa8yIAMyIAMyIAMyIAMyIAMysHgGFK9CunhIfVp2fp6WuZaupQzIgAzIgAzIgAzIwGEZULwqXhWvMiADMiADMiADMiADMiADMrB4BhSvQrp4SA/7ZMZxPtWTARmQARmQARmQARmQgfPDgOJV8ap4lQEZkAEZkAEZkAEZkAEZkIHFM6B4FdLFQ+rTsvPztMy1dC1lQAZkQAZkQAZkQAYOy4DiVfGqeJUBGZABGZABGZABGZABGZCBxTOgeBXSxUN62CczjvOpngzIgAzIgAzIgAzIgAycHwYUr4pXxasMyIAMyIAMyIAMyIAMyIAMLJ4BxauQLh5Sn5adn6dlrqVrKQMyIAMyIAMyIAMycFgGFK+KV8WrDMiADMiADMiADMiADMiADCyeAcWrkC4e0sM+mXGcT/VkQAZkQAZkQAZkQAZk4PwwoHhVvCpeZUAGZEAGZEAGZEAGZEAGZGDxDChehXTxkPq07Pw8LXMtXUsZkAEZkAEZkAEZkIHDMqB4VbwqXmVABmRABmRABmRABmRABmRg8QwoXoV08ZAe9smM43yqJwMyIAMyIAMyIAMyIAPnhwHFq+JV8SoDMiADMiADMiADMiADMiADi2dA8Sqki4fUp2Xn52mZa+layoAMyIAMyIAMyIAMHJYBxaviVfEqAzIgAzIgAzIgAzIgAzIgA4tnQPEqpIuH9LBPZhznUz0ZkAEZkAEZkAEZkAEZOD8MKF4Vr4pXGZABGZABGZABGZABGZABGVg8A4pXIV08pD4tOz9Py1xL11IGZEAGZEAGZEAGZOCwDCheFa+KVxmQARmQARmQARmQARmQARlYPAOKVyFdPKSHfTLjOJ/qyYAMyIAMyIAMyIAMyMD5YUDxqnhVvMqADMiADMiADMiADMiADMjA4hlQvArp4iH1adn5eVrmWrqWMiADMiADMiADMiADh2VA8ap4VbzKgAzIgAzIgAzIgAzIgAzIwOIZULwK6eIhPeyTGcf5VE8GZEAGZEAGZEAGZEAGzg8DilfFq+JVBmRABmRABmRABmRABmRABhbPgOJVSBcPqU/Lzs/TMtfStZQBGZABGZABGZABGTgsA4pXxaviVQZkQAZkQAZkQAZkQAZkQAYWz4DiVUgXD+lhn8w4zqd6MiADMiADMiADMiADMnB+GFC8Kl4VrzIgAzIgAzIgAzIgAzIgAzKweAYUr0K6eEh9WnZ+npa5lq6lDMiADMiADMiADMjAYRlQvCpeFa8yIAMyIAMyIAMyIAMyIAMysHgGFK9CunhID/tkxnE+1ZMBGZABGZABGZABGZCB88OA4lXxqniVARmQARmQARmQARmQARmQgcUzoHgV0sVD6tOy8/O0zLV0LWVABmRABmRABmRABg7LgOJV8ap4lQEZkAEZkAEZkAEZkAEZkIHFM6B4FdLFQ3rYJzOO86meDMiADMiADMiADMiADJwfBhSvilfFqwzIgAzIgAzIgAzIgAzIgAwsngHFq5AuHlKflp2fp2WupWspAzIgAzIgAzIgAzJwWAYUr4pXxasMyIAMyIAMyIAMyIAMyIAMLJ4BxauQLh7Swz6ZcZxP9WRABmRABmRABmRABmTg/DCgeFW8Kl5lQAZkQAZkQAZkQAZkQAZkYPEMKF6FdPGQ+rTs/Dwtcy1dSxmQARmQARmQARmQgcMyoHhVvCpeZUAGZEAGZEAGZEAGZEAGZGDxDChehXTxkB72yYzjfKonAzIgAzIgAzIgAzIgA+eHAcWr4lXxKgMyIAMyIAMyIAMyIAMyIAOLZ0DxKqSLh9SnZefnaZlr6VrKgAzIgAzIgAzIgAwclgHFq+JV8SoDMiADMiADMiADMiADMiADi2dA8Sqki4f0sE9mHOdTPRmQARmQARmQARmQARk4Pwz8/5M1zW5YMDQCAAAAAElFTkSuQmCC;" parent="1" vertex="1">
          <mxGeometry x="2612" y="872.48" width="775.63" height="289.52" as="geometry" />
        </mxCell>
        <mxCell id="q94nttZm7VbdmEVS4brj-9" value="" style="shape=image;verticalLabelPosition=bottom;labelBackgroundColor=#ffffff;verticalAlign=top;aspect=fixed;imageAspect=0;image=data:image/png,iVBORw0KGgoAAAANSUhEUgAAAl0AAAFCCAYAAADL6mj4AAAgAElEQVR4Ae29baxl133ep+8F+rEF+DFNgRQoIiQFitruS5qwUl76YrtJIbHpi5M0ImO0DtoKRB0rYMXSjsRGDFO5rMemU2qmKcuYJlkb4CQuyxBhaJYO5TQlFcEYmnFojQpUGqFASwLph1P8jvwcP7Nm73PPzLl333Pv+S3g3LX3evn//+tZz1nr2WvfufOxFz+4ufIjBnJADsgBOSAH5IAcOFsOfEyAzxZg8RVfOSAH5IAckANyAA4oujzp86RTDsgBOSAH5IAcWIADiq4FQPYJxyccOSAH5IAckANyQNGl6PLpRg7IATkgB+SAHFiAA4quBUD26canGzkgB+SAHJADckDRpejy6UYOyAE5IAfkgBxYgAOKrgVA9unGpxs5IAfkgByQA3Jgq+j6i7/48uq+++6b/fyO3/k7V//yH/4jqz/5Y59b/cybv7J64R9+4w6l/FOv//Lqn/9Xft+sjSn7tKdfE/S5X3tv9WM/+9+v/s3/4D9c/Z7v+Z6Nve/7xCfX/v/bv/m3Vi/8xm/e1qf7ey3Z5YAckANyQA7IgfPkwF6iqwUTAuzPfukvrX7+H3xwm/DZV3Qh5L7w8y/uJNz+6GceXH3l7/4ft/k/T3D17ZdbDsgBOSAH5IAcCAdOTXQhwBBef+5nfva2E699RBeC65GvXFv9s7/3n9ucbLXQm7r+Az/wg6srb7yp8PK1qRyQA3JADsgBOXBQHNhZdN3/g//26n945+9vgkcQ/dWvfX316F999rZTqN/7vd+3euq11zftou46byE29SoxbRFP3/uvfWIjuBBfnKYRB/55nchrzX//sw+vBV9E2Kf+kx9Z8Toydsx9ypADckAOyAE5IAfOmwP3LLo68Cf/xv9y22nUf/yFx2877eq2XO8iun7+N35z9ac+9+dvE1yPv/SLk0KKV5p/5rGf2LTlxI1XkqNf7/3CyQE5IAfkgByQA+fFgVMRXT/367+x+uP/2X++ET1/5I//e6v/8e//2qzo2UV0PfOr//vq9/3r/8bGJgIMITYHFKduf/iBf3fT/of+iz+3tf2cHcv9MsoBOSAH5IAckANnwYFTEV0E9qM//fRG8PwLv/8PrH76l/+3WYG0i+j6y7/0yuqf+d2/e2Pzv/6fp0+5GpSH/qvHNu0/8cf+nfXrz6732i+RHJADckAOyAE5cF4cODXRhSjK71Rt+z0tBrqL6LobewGvhd+/+Af/4Opnf+XtWeGXPuZ++eSAHJADckAOyIElOHBqoqv/ptdpiK4WUCfZC1D30id9zf3CyQE5IAfkgByQA2fJgVMTXXdzMrXLSddPPP/CzidnAahFlyddfnHCC3O5IAfkgByQA4fAgVMTXS14TuN3up54+a/f9mcgTvqdLv6ExGf+y0c3Qs3f6fILdghfMGOQh3JADsgBORAOnIro4l8V8q8F8ztdZ/GvF//Ej/7YHX/tPoMgf+ZX/97q93//929i8F8vSvLmh9fyQQ7IATkgB86bA6ciuv67v/W3b/sDqWf1d7q+8MJLk3//y7/T5RfpvL9I+peDckAOyAE5cBIH9hJd/H0uXvvxX+/klGuXX3rf5Xe6CHwUc//07/pdqx/+ib+w/v8VeZ2I2Lryt99c/cCf+o82/onjj/2ZH/Yv0vtfP/gvV+WAHJADckAOHBQHdhZdEVXb8qn/e3FK9e0quhBWd/t/L/5Lf+gPrf8kxZRfy3wKkQNyQA7IATkgB86LA6cmujiF+k//0l/e+ntXGeSuoov2CC9eK37P/fffdpo1Jf448forf+dXD0rVZszmfsnlgByQA3JADhw3B/YSXZxs/av/1vevfvjH/8LqZ3/lqzuLnbsRXSHoX7vx/uonfu7nVz/4pz+z+j3f8z0bAfZ9n/jk6k/+2OdW/AV7/gPstDc/bmI7/86/HJADckAOHBoHtoquQwvWePwCyQE5IAfkgByQAxeVA4ouf8nQ00E5IAfkgByQA3JgAQ4ouhYA+aIqcuP2aVIOyAE5IAfkwOlxQNGl6PLpRg7IATkgB+SAHFiAA4quBUD2KeH0nhLEUizlgByQA3LgonJA0aXo8ulGDsgBOSAH5IAcWIADiq4FQL6oity4fZqUA3JADsgBOXB6HFB0Kbp8upEDckAOyAE5IAcW4ICiawGQfUo4vacEsRRLOSAH5IAcuKgcUHQpuny6kQNyQA7IATkgBxbggKJrAZAvqiI3bp8m5YAckANyQA6cHgcUXYoun27kgByQA3JADsiBBTig6FoAZJ8STu8pQSzFUg7IATkgBy4qBxRdii6fbuSAHJADckAOyIEFOKDoWgDki6rIjdunSTkgB+SAHJADp8cBRZeiy6cbOSAH5IAckANyYAEOKLoWANmnhNN7ShBLsZQDckAOyIGLygFFl6LLpxs5IAfkgByQA3JgAQ4ouhYA+aIqcuP2aVIOyAE5IAfkwOlxQNGl6PLpRg7IATkgB+SAHFiAA4quBUD2KeH0nhLEUizlgByQA3LgonJA0aXo8ulGDsgBOSAH5IAcWIADs6JrZRIBERCBc0Lgoj7FGrcnMHJADmzjwKmKrlu3bq1eeumlc1qmL5fbxvLGjRur55577nIN0NGIwBYEti1a1rmpyQE5cFE5sJPoevnll1ePPPLI+nP16tXNUvnhhx+unnrqqU0dbd5+++1NvRf7IQDWYPr444+vEGEmETgWBC7qgmrcigE5IAe2ceBE0YXgaqHFdYQVdXxMIiACInCaCGxbtKxzU5MDcuCicmCr6Jp6rUXZq6++uuKUCwHWJ11cU44oy8kY+SjMxhOy9GPRpm36Yie2yPH92GOPberTrkXh1MLf/RILJ0ecIF2/fn1ts0+T0j5xdUz4pz79ieGNN97Y4ICd999/f22bOmIjf/LJJ9cfruOT67l4purAYJcUn/FLvxFz6vh88YtfXH35y19ex884Uh48gn/ue47A5xd+4Rc2fWib9uTBMTaTE18wDcbYTdw//uM/PhtP444PUvxkbtaF/rjQCFzUBdW4FQNyQA5s48BW0YW4YkPrxKbH5pzNL6KBNmyC3Kcf99kY2wZtujz90obfC8N+NtO0JedDXX53jDbvvvtuus7m6UuDxB672HrxxRc3Y+X3pxAACBXs9+9T0bfrGGtEBLaxyfjoRx2px5OybfFsq1sb3PKjY6EZsRNLY5Z4GB/xRJC1ACIGbJE6Hu5HTGKPcoQP7btf+6ZN5gvf3CfRD+xOiqft0Zf2xEq56XIgsG3Rss5NTQ7IgYvKga2iK5tpL+PZgLNBdl02w2984xsrPmygOd3Ihk4bTk1SnjwbfDbclGMjKZs0G3XECxt4b9xpO+YZC/45dcIf/RIz17FFXexznViS59QHDCjL2PAZe8GJ8SDoyFNGu7l4Tqobx9X3jUuXc526jodYI6AZA/dJ3Y6+EZ6Ug0nack/fYHM389Ucwh52scf1tnjGGPCJLdPlQeCiLqjGrRiQA3JgGwfuSnT1ZtcCIkt9NvbcR1hwn42RNjnpSLvO2XDph68In67nesr32KbvsYXwQQgiuIghsSVm/OIvggsf22LAPu1ph62k2KOO64wn7SnbFs+2uviYy+Nzrp7yjiftEnPuySlroRXhmHlM29jbhtXcfKUvtnIiF9+MpVPHQ3nGOpZ3H68vLgLbFi3r3NTkgBy4qBzYKrrYYBEhJDZVTh/YQEnjZsc9goaNNO2zUXOfzbo32nXD1WpzwsR9b9DZWNMueU6kcn9Sjk/GEcEVYROhQOwk2uC//UacxQe2OB0iUYeQox/l2Hv66acnRV3a025bPNvqEsNcPuLCWDJ/6YP9xJ8y2vXvQ9FmPGkCEz4RYt2X/qTGLfXkY1xdB4b0gx9Ju8TDnPG7ccE+fXfJsc/JXPvcpZ9tlkPgoi6oxq0YkANyYBsHtoquCK28OsrmmqWXTSt1eeVGHZv2+AqRTRx7pO5H/9SxkbL5U4av2Mnm2PW0GQVF4uo8NiIqekzPPPPMJv72NxcT5dj52te+to6Ze8aJaOCaz5tvvrmpS1nnX/jCF9a/vD4VzwsvvLC2N1UXDHps43XGGn/BlXY9bup7vhg7Ahm/1MV/2wf7FtXU9Xw0fom167E7NV/06zixu0s8GQ9t7yalX2K8m762XQ6BbYuWdW5qckAOXFQObBVdyy2xx+MJgcbGf0hp7oSKGHPS16//9o2d8SPyEIlTJ1Xb4kFk5XMvwom+o8jbdzz2P30ELuqCatyKATkgB7ZxQNF1+vvFrEXEBoLikBKiJydj40lUToWovxeBMzfOPpEbT6q2xYM94iCeexFOjGdK5M3Fafn5IbBt0bLOTU0OyIGLygFF1/ntK3oWARGYQeCiLqjGrRiQA3JgGwcUXTOLvsUiIALnh8C2Rcs6NzU5IAcuKgdmRddFHZBx+2WUA3JADsgBOSAHDpEDiq4PJOYhEtOY5KUckANyQA5cNg4ouhRdq8tGasfjQi0H5IAckAOHyAFFl6JL0SUH5IAckANyQA4swAFF1wIgH6LaNiafAuWAHJADckAOLMsBRZeiy6cbOSAH5IAckANyYAEOKLoWANkniWWfJMRbvOWAHJADcuAQOaDoUnT5dCMH5IAckANyQA4swAFF1wIgH6LaNiafAuWAHJADckAOLMsBRZeiy6cbOSAH5IAckANyYAEOKLoWANkniWWfJMRbvOWAHJADcuAQOaDoUnT5dCMH5IAckANyQA4swIFZ0XV+/9WtnkVABI4dgUN8QjUmT07kgBzYlwPnLrreeuutFR+TCIiACASBfRc2+7s5ygE5cIgcWFx03bp1a/XAAw+s7rvvvvWHa8pMIiACIhAEDnGxNCY3cTkgB/blwOKi6/nnn/dkKzuLuQiIwCQC+y5s9ndzlANy4BA5MCu6Hn744fVJFCKJ1CdUvA68cePG6v7779+cWHFyxT3lJPrlNAtbH3300br82rVrq+vXr2/q+qQLu/R54okn1m3JuX/99ddX2+J55pln1u1o89prr21sJ/a1sZkfPa7ES55Xnomh6xIfJsf6rptxeUcfbAcHcMpYKY+9lFP36KOPbsaYOPEV/OjXc0HdtvmK7YwxuDU2lMU+tt99991NnIkxPogx8z2HQdrGZ8c8F0+PMT7J6UtsiW+sa/7QZsRjrI+dXcaRtj2O4Dc39tH/2Dc2r169uvmOJZbGLWPBHzbiN5i03WDS/Zsj1OMDn/SDj1euXNnwsrnQvhhL/BFP2tH/m9/85okcSezxSX/SIS6WxuQmLgfkwL4cmBVdLH4spr15sqhmoWdh7PvxOot82uWePBsIdWwCiIj4QZRl4SXnnnRSPLR777331rbTn00D+ycl2iAESX3NPXGxEZGPMdAWH2O7dcGWHz0umjV2bEKNMffZTOnHZpZ7YgI74hhj4x6cyZPaT18nhrRr3EY8ul/7TCwjZ2JzKm9bfb0tHurmOLKtDvvBLbF0WeKfwjLt53LsYouEnXBprn3KaYe/9AvPuMdmhDj32M93qOOm/4MPPnibT2KIrZ6jkRN9D6bEgw+u4UCuadecIB7qMmbq6ZNEedfRlpiCce6JPd8f+nKftWDfhc3+bo5yQA4cIgdmRReLYC+evZBPLa7dtjfFtE1Z8pST9+bDgjz1hE679jHGk369sdK+79tnX7PYZ6Psa9q0HzaXbBjU9WbT7dr21HX3o77HlXE0BhGp9BuFVOIl5+Si+3GN7aT209fUt98+AcFuNkb8IwRik/vgAc6cMmazj89tecfQ19viGesYIzEk9Ti6DvuNTfw1PzK+Hn/sbsuxMdre1j51zfuRP9js2OiT7w6xU0cfxst9+Eu7ttVzlDHHP/lYFvxa8GEP3vUYG9vg1vXYJbV/Ym6O0Kb7cB3sD3GxNCY3cTkgB/blwFbRlUWdhXNcnMcFu+uzOaxX3d/6kbLkXdebT9fjl/ukbfHQjhh68+mYYmMqj3Chrq+5n9vAYoeNJBtHxFHq5vJxXB1nj3/s3xtY6hJv8pRP5e1nvO4NvuejN1w2REQVfUmJ55133lkLs8Zqyv9YNsYQu+Rz8WCjMRqxnKtrm4kTAdB+sMVJC/MInrsmbCR2bOf08aT+I84tWNtm7GRsGUvajHOf8ZFnjrimX+KMzS6LHfxQHrHd9tKv83EO2mb8T3Gk27U9rvdd2Ozv5igH5MAhcmCr6GLxy+LLEzCLb6dsAmlH2/Ga+16UWXx7QxsX9LbZ/daGt8RDv5s3b66f/OmH3XvZ/LLxJK7Y5D4bCNck2n76059e52mfusQ7lY/j6s2H6xYC3Z9+fdJEXTZu/DJHtJlLjW37zOZNP/o/9NBDt81R2+t+tEWg0J7ru8EAm/caT/fDL/dJc3WNa+Js0dVzeRIG8ZW88aNs5HjajXnmjvLERE7CZov4Hidj4ZUi803albNtY91xmINgl7xfKY5jTH/y0e6uHKHf1LqCzUNcLI3JTVwOyIF9OXCi6GIB7MU3iyybf054kufVABsHG8ZYPteXRZrEwk4f+rIgxwblncZ4uh8bHnFgZ+zXNrge40y85Pnl6qkxRdxEALWdbISjr9x3W+Jjw8RH/NAOGx1LbIIJQhKRk/rU0S+2Uheb9Ns2X11PH3zQnvKktk2b/CJ9fHTcLRbSv/P2l1jJY6vrx3h6rmnXHJmre/bZZzft4o8xYpv7V155ZYNPBAPlIwY9hlzTPjaTnzR++qZffGTOM5+MJWXYDTaZh/horDLOtG2utd3ESY6ftOM6GBIXMWKLPG3m+sZW4qPfLhwJDrEbPPZd2Ozv5igH5MAhcmBWdLGY54mXvFPquozrfnIf6/a9j8/k+9qjPxtJv9KJTTYCPoeWGDubJ3HfTZrD7Czna1t8hxbPtljPqw7xc4gcXAqPQ1wsjclNXA7IgX05sFV08dSZp+alFts5P2zUhxTPXJxnVT6eNBzzhnxWGB+KXeY2Jz850TqU2JaKY9+Fzf5ujnJADhwiB2ZF11KLq35EQAREYETgEBdLY3ITlwNyYF8OKLrG1d57ERCBc0dg34XN/m6OckAOHCIHZkXXIQZrTH6J5IAckANyQA7IgYvKAUXXB5L3opLXuOWuHJADckAOXCQOKLoUXf5NJDkgB+SAHJADcmABDii6FgD5IqlwY/WpUQ7IATkgB+TA2XBA0aXo8ulGDsgBOSAH5IAcWIADiq4FQPaJ4WyeGMRVXOWAHJADcuAicUDRpejy6UYOyAE5IAfkgBxYgAOKrgVAvkgq3Fh9apQDckAOyAE5cDYcUHQpuny6kQNyQA7IATkgBxbggKJrAZB9YjibJwZxFVc5IAfkgBy4SBxQdCm6fLqRA3JADsgBOSAHFuCAomsBkC+SCjdWnxrlgByQA3JADpwNB2ZF17n/j7cGIAIicLQIuOCfzYIvruIqB86XA4quo93WHLgIHC4CbgznuzGIv/jLgbPhgKLrcPcdIxOBo0XABf9sFnxxFVc5cL4cUHQd7bbmwEXgcBFwYzjfjUH8xV8OnA0HZkXXE088sbrvvvtWDz/88Oqjjz5a3bp1a/XAAw+sP1xvS+lLfz7333//6saNG6u33nrrNpvYSNv4yX36klNGSn/KiCVxYBsflNPm+eefX1/T5qtf/eptddhJPflJ6V7iAS/Gk3EnvnGMxNq4vvLKK1vxef311zf19MNexrxtHMEt8dA246Iu9dji0+12sZt+ybGHffC/cuXK2iZ1wTv+2k/HE0xiLzn9SMGT8tgI5tiJLfB59NFHNxyO3+6HvfSNrdin/7vvvnsif9I/cZJnrNvws24eARf8s1nwxVVc5cD5cmBWdLGRsHlF2LB5sgnlfn65/O4m1n3ZxN5555315tbl2Bj9cH/16tV1eV/T9ubNm+sP19gkpiQ21GzKlF2/fn3dhmvKswnS78EHH1zXp++2vGPoa/psiwc/xJDU8YDhtWvXUrWOjxixfxI+tKMNiTH1mDcGJy66LX3AYK4v8b322msTVu4sYhzhRI+LscCXxEpPruPzpHgaP/pk/vDRPMz9N7/5zTVv4E4+CK5cU49/4iKlHzmp/XHf89X+p/jT9djruV0b98ddI+DGcL4bg/iLvxw4Gw7sJLqyqfQGu20VzYabJ/+cSo3l2TzZDLP50WZOdLHhcRoRu72hJ0biot2nP/3pO0QXtrPxtyA6aSz3Es8Ya05R8MVYwSTjICf+XfChPwKEPj3+bWNIH3zgm36IKu6TOqaONfVzeXMCGxEcjAXRAw5JXR/RNRcP/TJHPbdcd9zY7rLGEH5xTxrnI9jH1ljfGNCGeLE1xZ+OtceYcZvfPQIu+Gez4IuruMqB8+XAiaLrvffeW280bDi9wW5bRrM5sQGR2JTYgL/zne+sbaWczYzNn40sZfSdEjmjzXFz4z5Chhwb+CVl08xG35vkusGWH/caz+ijT07G2ImPzzjGKXwIlXGAGZ9dU8bO6SCxxedUf+LDNvGclJoTPa5xLNjp+pPiafyIlfakqbi7jGs4xfyTp1/bmxrTWN/zFf+JeWyLPfCKkLubeZmKxbKVf6TRvx8oB+TApeTAVtGFUOI1FJsMqTfYbRvD1IbLJraL6OoNDTsRYKMQYAPctrmNmybjSPv2sW0c1HXbu4mn+2Gn42nxQV1Ew4hbBARx04fEdcZxEgbrDr/1g7ZgQE6Kz26T6x5nyuby5kSPCxucNMUf/dvnXDzBjbbp29ftIzElhsRNG3hDHuxGbNM3efzmvucL/9v4Q31Oc6fiI4bUx775dgR8Gj/fp3HxF385cDYcmBVdbBR57cXyyAbI/S6bR/rmyZ+c/mxOXYYtNmbKyJ999tnb6tMWex1D2tM/G3OW8PZBfX6RPq+a2BQpx8bYNzaSZ8yJI/lJ8bQP4klM+OV3izJm7LPZ8yqLzwsvvHDb+Gmfto0P1/hI3UnjiP/EHZ+Mh7qpcVJ+Ukq/qXgichIjvrimfFs8YAAWaTvGSkzxm/ngPphjO/zDBqddeVXYtuib8vQNHolvF/5gM6+y2w4xkRgvceT+JEyt/y4CLvhns+CLq7jKgfPlwKzoOo/Fv08X4p+NjJOM80iHFs95YHCvPiO6mL9jToiyhx56aHNSecxY3M3Y3RjOd2MQf/GXA2fDgYMSXXezKNv2sBHIaROnR8d8ypOTt8OercOLzgX/bBZ8cRVXOXC+HFB0Hd5+Y0QicPQIuDGc78Yg/uIvB86GA4quo9/eBEAEDg8BF/yzWfDFVVzlwPlyYFZ0OTHnOzHiL/5yQA7IATkgBy4XBxRd/i2US/m3UFyoLtdC5Xw6n3JADlwGDii6FF2KLjkgB+SAHJADcmABDii6FgD5Mqhzx+BTphyQA3JADsiB/Tig6FJ0+XQjB+SAHJADckAOLMABRdcCIPtksN+TgfiJnxyQA3JADlwGDii6FF0+3cgBOSAH5IAckAMLcEDRtQDIl0GdOwafMuWAHJADckAO7McBRZeiy6cbOSAH5IAckANyYAEOKLoWANkng/2eDMRP/OSAHJADcuAycEDRpejy6UYOyAE5IAfkgBxYgAOKrgVAvgzq3DH4lCkH5IAckANyYD8OzIquw/svcI1IBETgWBBwYd9vYRc/8ZMDh8kBRdex7GKOUwQuEAJuGIe5YTgvzosc2I8Diq4LtBEZ6m8jcOvWrdUTTzyx+uijj367cLii/oEHHljR9qzTLvGcdQwn2SdG8ACXQ08u7Pst7OInfnLgMDmg6Dr03cf49kLg2rVri4iuvYJcsDPCC0wOPblhHOaG4bw4L3JgPw5sFV15Mr7vvvtWfN56663NWs3TcsqTP/zww1tPHtIZO93nypUrq1//9V9fP4W3nxs3bqzuv//+9edzn/vcuk/8Pvrooyv88eT+zW9+c31NW/qkX8fz/PPP3+azT0im4mHssZNYk9M+ccRHsNr1ZGUuni6Pv7YZv6kjpyzlU/F89atfXWNIW2KPj9gFC/rFJvVJYx1+krbhQ5ux79WrV1fXr19P93Us8UmeeDYNZi7GsXaznkva7SK60of44BCxBEdspx57fR2/U/GED/AUm9jGZjjadqfGnjki72v6xR+xkMb6deHMD+KK6Eq/jDVjI56OM/PYZWMMM+7uudiFfb+FXfzETw4cJgdmRRcLLRsGGytpvM9mxkLNh8WchZh22xL2sJt29M1mSx0CrBObNOW9WbRvNg4SbXpDTz/q8EFsSX1/UjzYIVY2TXL80Z9rbBIXibjZvHIfX1N5+6e+7xN3xjP66Vga87HdGA8++CTFT+67jr74J2W8acf9iHnH1O3BJ3ZpAz7pO8Y7xhN/c3n7TJtxLvEVbqXNXD62Je7mDFhjKwJljHcunoceemjz3cBm5pU4bt68uf5wTfnIfcoQOomjeZ8y+uK7v6tzY6SccUR09RiaS2nXfAafzN1U/Taf91LnhnGYG4bz4rzIgf04MCu6enPIotllvQGwmYyLdvqMeS/0Yx33Xd8bRF+372wE2aB4Sh+f1NO+/aWs/XU91xlvb6j4Y7yUsfERF/eUx+ZoZ7yfapeyxNO+4wc7HUtjflI8iTHj+vSnP70RVpThYwq7Lk99hEfHOIrSnq9x/LnPmLnPuFN3Ut44pO1oozFJm7mc+QuX0qbjO2k8U/EEH+zFVpdxjagKrmDdqdt2Ob5aZDG3Y99u39cZB+27zxhLYsI2iX7bRFj7OI1rF/b9FnbxEz85cJgcuGfRlYWVRTkLc8q25ePGOLZlcWczYGPpttksaJ8NDL/ZKMcNqvumfftKWbfr+r6e2lApI8733ntvE29sdt+p66l2Y9k4ntjpWBqrk+KhLSc1bKbkiCR8kBpH7huTMa7E0XnHlPKer5SNeW/0/epqbDd1P+Wz46ZPMCGWkxI8GnncYz9pPFPx9BzGVsrG2Kbsp+1U7MSa7wliaIx9qg9l+GH++TQu23zFVoQp/TjBo89ZJTeMw9wwnBfnRQ7sx4FZ0Yl5DQUAACAASURBVDW1iYybGgsui/2uCz7tWaj7NcrUAs7ijigY27FxkbKB4XcX0TXGiM/Y2iWeKSwo47ThwQcf3Gw+iWsd5JYf2+JJt3ETTAy8kspmyzhyfbfx9Fy24BjnozFObGOe2Mg79WtKyvFDvCTaIhYyfx1P25i7nvI5ziWxj+Jizh5x5ASPNs2RqfvRzlw8jIsUbmRee+6ob2xiO21z33nmCfv9ur7bTF1nXNjufsTP3FA/l+iD2MJn5jFt6QfWY3nq7zZ3Yd9vYRc/8ZMDh8mBWdHFIsmmldcM5L2gZpFN/a6bG3bZYNJv6oRjagPAd/qM+SuvvLJe8CmPoOE6MWGPDTX9Rp/b4uk6+nNPSjz46zHF57pw5se2eObqUp7Yc09MxLJrPD2nibXnEvtsxqljCLEd/LhPmsOH+rabONMvMXMfG+0z7cZ8tIndYNK2KGfOGUuLqdFe7omhxzlnc/Q3Fw//eIHx0B7MsU0c77zzzjpeyjLuxEp7ykgdC/VT2KR/OJixzOWJFdsIKMaY+OjTZZQ3BrFJ36ly+o6vrNPnXnI3jMPcMJwX50UO7MeBraLrXhbLffqwcOfEIycEJ9ljw9l10znJlvXHiwAC5qLxiHinxNhZziI4TYlYyhFkp5Vc2Pdb2MVP/OTAYXLg4EQXT9FLbySntVFo52IigHjhZIfPlKA4tFH1idTUqdNZxNsYTX0/EVynKVrdMA5zw3BenBc5sB8HDkp0ncVmoU0REIGLh4AL+34Lu/iJnxw4TA4oui7efmTEInDpEXDDOMwNw3lxXuTAfhyYFV0Cux+w4id+ckAOyAE5IAfkQHNA0fWBhGhCeC0f5IAckANyQA6cDQcUXYqulV+us/lyiau4ygE5IAfkQHNA0aXoUnTJATkgB+SAHJADC3BA0bUAyK1yvfapRw7IATkgB+TAcXJA0aXo8ulGDsgBOSAH5IAcWIADiq4FQPaJ5jifaJx3510OyAE5IAeaA4ouRZdPN3JADsgBOSAH5MACHFB0LQByq1yvfeqRA3JADsgBOXCcHFB0Kbp8upEDckAOyAE5IAcW4ICiawGQfaI5zica5915lwNyQA7IgeaAokvR5dONHJADckAOyAE5sAAHZkXXpf8fdR2gCIjAwSLQT4Zee1IgB+TAZeGAoutgtx0DE4HjReCyLLCOQ7EgB+RAc+BMRNcTTzyxuu+++zafBx54YHXr1q3VRx99tHr44Yc35WmTerYY2nFP3f3337+6cePGQe88jInxEvdcYgyM5fnnn59rYrkIiEAh0IuU125ackAOXBYOnInoQohcvXp1LbJYRxEdjz766Oo73/nORqC89dZbaxHSooVr2kVokT/00ENbBU2t0wd9yViuX79+0DEanAgcCgKXZYF1HIoFOSAHmgOzoguRwOlMTqPIOdHZJY2iiz4Ijogp7iO62t6uZd2Ha/xxgpaTscROGXWpz1h6HJw+pTx5n7yNvvo+fafat0/iYvyKrkbPaxGYR6AXKa/dtOSAHLgsHJgVXSyHowhCNCAmTkq06ZOu2MJe0mib8lGYUcZru2vXrqXbbD6eJLUtxFH75p4PKe3Sn9hPel04BkF84+tFbMRnXpnG59jfexEQgdsRuCwLrONQLMgBOdAcOFF05fSHfFfRcF6iq0/mcurFUo4A6nFwnVOwsxBdU0JxSmTevs14JwIiEAR6kfLaTUsOyIHLwoETRVcLrT69yeI4lU+JroibtJ8SIXNlOTFK36k8J1Wpa39TJ1Fpl3zsn/Jd8tG+omsX1GwjAvMIXJYF1nEoFuSAHGgO3JXoQpi888478yvlb9WMogsRgmCjPGlKYFHPCVREFv52/UX6UTS16JrylTiSj/1Tvks+ii76XLlyZfM7bBlXC9iUTf0+2C4+bSMClxmBXqS8dtOSA3LgsnBgVnQhQvp1Ha/kdhUI4+u8ftUXsZHXfaPN/P7T3fjrPggsPmP/MSbuSWM8Heu2TW3sl/FEMHZM1PE7bthOffqP49/m0zoROBYELssC6zgUC3JADjQHZkXXsSzujlMERODwEOhFyms3LTkgBy4LBxRdh7ffGJEIHD0Cl2WBdRyKBTkgB5oDiq6j394EQAQOD4FepLx205IDcuCycEDRdXj7jRGJwNEjcFkWWMehWJADcqA5MCu6upHXkkYOyAE5IAfkgByQA/txQNH1wX4ASkDxkwNyQA7IATkgB3bhgKJL0bXahSi2cUGRA3JADsgBObAfBxRdii5FlxyQA3JADsgBObAABxRdC4Dsk8F+TwbiJ35yQA7IATlwGTig6FJ0+XQjB+SAHJADckAOLMABRdcCIF8Gde4YfMqUA3JADsgBObAfBxRdii6fbuSAHJADckAOyIEFOKDoWgBknwz2ezIQP/GTA3JADsiBy8ABRZeiy6cbOSAH5IAckANyYAEOKLoWAPkyqHPH4FOmHJADckAOyIH9OKDoUnT5dCMH5IAckANyQA4swIFZ0XX0/+OuAIiACJwbAj5N7/c0LX7iJwcOkwOKrnPbVnQsAiIwh4AbxmFuGM6L8yIH9uPAVtH1xBNPrO67777bPg8//PDqo48+mlsrLT8BAbADw8YVnE3TCNy6dWv1wAMPrHbB6Pnnn78NV/rR33TxEHBh329hFz/xkwOHyYGtoguBcPXq1bXI4pqNz01s/w0MDK9du7YxhFh46623NveHdkFs5xnfiNc2fMA1HL1x48bqypUr25pbd6AIuGEc5obhvDgvcmA/Dtyz6GJj4yQhJzYIh6SxLm1eeOGF1f3337/uk008pxPkbJKpTx9y2sYm9bSbSrFFn0cffXQjGGk72t5mJ7bxi62cspAnHtqknrK7OVVhLC26iO369etrt+NJWHyPMeGT8VLPydmzzz67xg5bwapjShn90jc2yRs77CW+jDn9yDN33X/qeg6fxMIcZb7HcbZfsEk8U366rEVXPzTQpuOZmv/2SWz4DW8Qb+F744rdtAGbtgumtM3JZtfRLzikH/6xNdZRj61jSi7s+y3s4id+cuAwOXDPootNKBsEmwEbRm/G1EVIUJ5No69p8+CDD27apU9vlvSLXfJcjxsQ5cSQRD82O2yROt5tdtI/eW/ibJK9+d+8eXPFh0Tsu56qjHYaux4vdrnnQ6IfbTMmrlsARCTQljbU04fU4+e+fY7x4I/6pLvBK33It+EDXg899NBkfD1mxsE8djztY7zu+WpOjNhxj93gE+7FHv6CO3ZaMNEWUUZso53xvu2MHOn5oh940Ia0bb4S42XO3TAOc8NwXpwXObAfB+5JdGUj5Am8P70x9ibGptUbGNcRBdRFnKUPdXmtSVvakMjbX2xS15vt1GbUGxx2YnOqbZcxpvY5jpHNOPVd1zbGazbYnJrQt8cx+qM+4nGMOxhij9Rj7DqusZE4k3e87beFHHZHv+N45u6Zzzl8Mtfpm3nuuU8dbXcVtD2O4IadMZZgEB6MGHVf2jRW2AvWU9h0WfOSecIOvqZiCg/GWBLrGMPayCX94cK+38IufuInBw6TAyeKrggiNgIWfTYOriOK5tb83lTZhLKh5DqbbLeLrTn7vZl1PPTrzS12Oh+FDrZ2SW0XG9yTRv9dd5Ldbst1b8Ttb7TT45+KIUJgrJvDc7Sf+8xR3++KV/qchM847+HDVKy03VV0NX59WjT6S5xzeeKhfsSDsmA9zknaB6+OZ5zr9t14TWHQbY/h2g3jMDcM58V5kQP7cWCr6OoNpTcFFv3elHoTyObWG9V4zSvFPLWnfduY23S2xdM+sIXdfn2Fv/hsO+136nrcNLknjRsoeMT+lJ0ua9FFOfGk7ziOsd9rr722KaJtn0r1nHA9V7cx8FsXo8+pe8pI4JpXa6Odvj8Jn3Hex9jjD5s9d+1j6nqcL06siGXk79i3/VPX98TSWDY/x7mkb8fQ143JGM943/7HWI/h3oV9v4Vd/MRPDhwmB2ZFFxtdXmt0ntcubBJcdx0bBZspr5TSLve0yy/Sp45NiM2MOvqSyEeblHfb1KdPNqGOuTdJ2sUnGyj9+3d00n/MEwt98U8+Fyt1+BxjGm02bh1jC4seB/64T+o6fHKaQ2ykxhphRD0ffLbfEb9gkvL0ic/GvmNO/Vwe/LCLzeDT9vAd/5mTMVbGmL5zvihvf9gkkSfmxoeY4m/sS11jjg3wpH0wiv2pvuFA4mHszR9sj2PEbtucqo/d9cAu+Q83jMPcMJwX50UO7MeBWdHVT+hZ39kITnqtmLbmyyAwNU/LeD4eL4ihYxI8hzCzLuz7LeziJ35y4DA5oOg6hB3mHmJACOTUZTyZugdzdplBoE/HcmI209TiU0TADeMwNwznxXmRA/txYFZ0neL6qSkREAERuCsEXNj3W9jFT/zkwGFyQNF1V1uBjUVABJZAwA3jMDcM58V5kQP7cWBWdAnsfsCKn/jJATkgB+SAHJADzQFF1wcSognhtXyQA3JADsgBOXA2HFB0KbpWfrnO5sslruIqB+SAHJADzQFFl6JL0SUH5IAckANyQA4swAFF1wIgt8r12qceOSAH5IAckAPHyQFFl6LLpxs5IAfkgByQA3JgAQ4ouhYA2Sea43yicd6ddzkgB+SAHGgOKLoUXT7dyAE5IAfkgByQAwtwQNG1AMitcr32qUcOyAE5IAfkwHFyQNGl6PLpRg7IATkgB+SAHFiAA4quBUD2ieY4n2icd+ddDsgBOSAHmgOKLkWXTzdyQA7IATkgB+TAAhxQdC0Acqtcr33qkQNyQA7IATlwnBxQdCm6fLqRA3JADsgBOSAHFuCAomsBkH2iOc4nGufdeZcDckAOyIHmgKJL0eXTjRyQA3JADsgBObAABxRdC4DcKtdrn3rkgByQA3JADhwnBxRdii6fbuSAHJADckAOyIEFOKDoWgBkn2iO84nGeXfe5YAckANyoDmg6FJ0+XQjB+SAHJADckAOLMABRdcCILfK9dqnHjkgB+SAHJADx8kBRZeiy6cbOSAH5IAckANyYAEOKLoWANknmuN8onHenXc5IAfkgBxoDii6FF0+3cgBOSAH5IAckAMLcEDRtQDIrXK99qlHDsgBOSAH5MBxckDRpejy6UYOyAE5IAfkgBxYgAOKrgVA9onmOJ9onHfnXQ7IATkgB5oDii5Fl083ckAOyAE5IAfkwAIcUHQtAHKrXK996pEDckAOyAE5cJwcUHQpuny6kQNyQA7IATkgBxbggKJrAZB9ojnOJxrn3XmXA3JADsiB5oCiS9Hl040ckANyQA7IATmwAAcUXQuA3CrXa5965IAckANyQA4cJwcUXYoun27kgByQA3JADsiBBTig6FoAZJ9ojvOJxnl33uWAHJADcqA5oOhSdPl0IwfkgByQA3JADizAAUXXAiC3yvXapx45IAfkgByQA8fJAUWXosunGzkgB+SAHJADcmABDii6FgDZJ5rjfKJx3p13OSAH5IAcaA4ouhRdPt3IATkgB+SAHJADC3BA0bUAyK1yvfapRw7IATkgB+TAcXJA0aXo8ulGDsgBOSAH5IAcWIADiq4FQPaJ5jifaJx3510OyAE5IAeaA4ouRZdPN3JADsgBOSAH5MACHFB0LQByq1yvfeqRA3JADsgBOXCcHFB0Kbp8upEDckAOyAE5IAcW4ICiawGQfaI5zica5915lwNyQA7IgeaAokvR5dONHJADckAOyAE5sAAHFF0LgNwq12ufeuSAHJADckAOHCcHFF2KLp9u5IAckANyQA7IgQU4oOhaAGSfaI7zicZ5d97lgByQA3KgOaDoUnT5dCMH5IAckANyQA4swAFF1wIgt8r12qceOSAH5IAckAPHyYHbRNfKJAIiIAIiIAIiIAIisEHgNAWyomsDqxciIALHhMCrr766unHjxjEN2bGKgAjcAwKLiK5bt26tHn/88dUjjzyyunr16jrMt99+e33/2GOPrRcrFiyuaUPdSYk2Y7sPP/xw9dRTT93mB3/YpJz6ban7v/zyy3c0ja2M4Y4GFhwdAvBk5GFAgNPPPfdcbs0vEQLMOetKPrusL5do+A5FBETgHhE4c9GFkHn66ac3T4FsQnkiZOF68sknVxE4iLM33nhjp6HMPVniD1GEXeyRsJnrXYwTH/anEnZeeumlqSrLjgyBbaIqPLwb3h0ZfBd2uMwpIsu5vbBTaOAicG4InLnoyklAngz7iRBhwwdRxibFJvbuu+9uwKDv1JNkl6c+pw0RRQivlOED+4mBnHtiyUnbxulqtW6Xvl3O9TZBNrb1/vIicJKoCu/3QQAu54Q4fIR/cJbP9evXN98P/KWOa1L353uScupyapvvT74HsdHtU/bFL35x9eUvf3njkzbpl3HmOzZVN8bTJ8ZjPFP946Pz9CNv+8FrWzxtZ+oavIiDT69b2GTNYuypjz/stM/U9/ykjLwx6Pip2zZf1Df2HWuXjza7X7Dr9sEhc5662G8cUobNLsdG1lfqUo/NKWyox9a2eBLXVJ5Y4ys53x3GT+pYU04Z4yOmfM/oOzeXwQJ7GUePO2WMY2r8lHXfxJn8mWeeWWPFIQF2U06cSfFBXceTevPDR+BMRRcke/HFF9dCikXqG9/4xm2nRJwYUZaTMAjFh5QvYSCkvMlH33yh0oacLyAii/YhPzGE8NTRhpT4Uhc73SZlyTvGlJkfHwJwMVwdRw+/Tuu1Ihzvk1W4Cq/D/XCVezaO/o50XPSjbRLt33vvvdxuvjcUTHE8fsbvTL5vG0N1QV0/RPUpN82CYduMH+q5pm5b6r60G31232113Y5rYgPnJDAJtuTZuKknhszJGM+IJXj0mObWMdpkvtrmFD6Mq/nG3GbtIz7uw6HuT92cf+rG2Hs+tuFDvIgG+pO4Dz7xT8xck8CEe9K2eNYNZn6MsW57u9H+GEeLF7AidvIxNX8yJ+BO24wx84DdjB87XFNG2oYB7RBU6Yvd7I/b4hnrvD9cBM5UdOXLDoH6AxwhLTlk5JMvQ/o1bF3WfbsN1/FDe748iLp8uanvL3XbbDvdpsu5zhdmLPf+eBAYN7keOdzMBtPl93o92hsXc3zliZjrTrRNHTn3nbpvi4jux3eIGPKd4DvTpwLdj3a0j8/ezMCM+9Qlx1d/D+MHW/297bj7eowHu71hzcXTNsbrjid1KRvnI/W9LjSujQFtRxx6Thp3xpG6+Kb/FD7tL7j2vOAzWLYY2TZf+BrjCRc6noy/y7IGp67zxN9tEtNJ8bSd8brxpy5+uCa2Oc6CXfgSm7G1LZ5gmj0LG7E1+sucUN+xTWEA5pn3xJN22+JJW/PDR+BMRVeI2SQMofpLSjvUPGSnPP0avhCPsu7bbbjOF4ZrSM49X2oSpO1Tryk/Y5t1x/rRX+Yq9vJIEIAf8AoOTiX4DVdPM4XT8DVP0thvrtKG+yTiyCJPWTaH1I95fFDeHMcOdZSRxu9Mvpf4ZlPusXdMJ/nHdo9n7WyHH2M8GcdJ8WwzPdqkbY+z15DYacxoyybPA99U2/TpdWyX+ZrChzLGvC0xHvAndZztnzraNb/m2m7DZ/SxdjrxI/PUVSfF023H6461ccImv99LzKTGq9vFHmV8b27evLmVz+EDdtlf6MPrfu75BO/YncqnMOhxpA9z8rWvfW1rPGlrfvgInKnoCjGnYOgvGERHdEFcrqnLNX0hMfXU5T4LTfrShtREzuKXLwBt0m9su+58gqDD17ZFNDbMLy8C20QV/OpN67RQwC4LOt8JvhtJzefxu9bfA/ogiLpvbJD3d2jkOOOF8/nejH4Sw9iPdsSblHa5J88JR8qwET8pOykf48mmdVI82+yetP4wx4wniXGCE4ny/CMe7BDPXGqMdpmvOXwy5vjBbx40KYvtEZNxTjrebW1PwmecV7AJPolxbEP5tnjSbyofY+1x9DV9OxbqEMcdG3PJvIw2e66wE8xpl9d/KRt90n7qoWPEAFt8T/t7k3hPimcKF8sOE4EzFV18ibIJ9XXIzrFrCAa5cg1UkDzHsn1UTl33pw1tSdjgPkf6tOunnLEfbXNk3v7iN3XEPr4aGWNaB+CPS41Ac3gcKIsi/IVjp52yGIfn2G8uw/u0yXeo60c+53uScnJsT/WB5+H+V77ylc13Mn3zXSOmqe8QvpKILf3IEyv1Xdc203cq73HgOzby3TwpnimbKeu+sZe6EaeMMf7p22sG9WMfxp/1Bbsn1cc2/UZ82lfqczISnMMP7omnx0dZ+mGrYyFGBEM4kLF2/xGfMR5iT+p+iYW6sbzjSd+pfJdYiTljTI4/+rI/McaUZ3xzMVEfe5mHHm/Gmjax23M9jjU+mSMecBBx6Rd72+KZwsWyw0XgTEUXw85iMX4xDxcSIxOBOxFgQYTLLNRTiYWTxfQ0E/byycJ8mva1JQLHjABi6W5PVs8SL9aWbSejZ+lb28shcOaia7mh6EkELhcCeVrup+TLNUJHIwLng0CfNh3CgUCfluUE7XyQ0etZI6DoOmuEtS8CIiACIiACIiACq9VK0SUNREAEREAEREAERGABBBRdC4CsCxEQAREQAREQARG41KKLX3w+7V9uvkiU4Rcz+X2guV/+vkhjMVYREAEREAERuOgILC66tv0rL36ZMH9i4hCBzb8kO+3Y8i88+WfC/JPh/F0x/ORv7Jy2T+2JgAiIgAiIgAgsi8CiomubqDrpn+QvC8u0t7MQQIjQ/DkAMMgf2ksE+YN7uTcXAREQAREQARG4mAgsJrpOElU5AaMdr8T48Bd780fi+p/15p/70if/1Db/rD796ccJUlKXp23s0JZrXsPhJz4jhrDBdcqT04fUtqmL/fjelm8TVX0Cht3+p8SJfQqDYEKfxJgYqOMPxhLjOA7adN/4bxxiZ8xpg83g1/M14pN5oQ9joi05p3zE1P4yzqlYE0Ni7n6pMxcBERABERCBQ0FgMdHFhjgKgIDAptmvFbNJt3ihbzZr+tEHm/kvN+hPWRLX4x++Q1RhA/tJY7+U02bsPyeQxrER664CYBxX/JMTA0Kk4+36kzCYO5kDg8SHjWDfvwOGz/HUrX2P1/Ttv/4/YtLtiStjSizgwHxjJ2Me54s+tKe8E32nBGa38VoEREAEREAEzhuBRURXb+zjgKc2UjbVbMBpT7tsxpSx0fZpStolp57PmFo4UR/xQTuuc6IynriM/mOXWHO6030RB7um9tvxYJt459JJGPRYY4NxtJhscTqKtKn/Lyx2xhw7c7+LRpxT2DSmtOHTY25c0r9P+8YYvBcBERABERCBQ0bgzEUXG+vU6URAYWNls+3UQiDlo3AbBULaJZ+r782duIiPRBwtlEbB0WIgPshHsdF1d3s9+pjCoW3OjZE2LWi6Dz54bZsUPLgfRdr4H7Kmz1Q+4hVb2O8Ty8arx5ux9Jgpy/xM+bRMBERABERABC4SAmcuuqZEVQBig82rrZSRs1H3iQab83jylU29+/V1NvEu4xpb+BxfnXX7KX8tBhAC6d/CIb5GAZLyMR9fbSL6GHtSC6KpmLZhMCe6WvTgp8fd1/TfJpYTY/IWaO27x9C40Y8xRQBmLN2+46E9/SnrxHjgSgvmrvdaBERABERABA4FgTMVXXOiisFv29TZeHmVyGbKa6UWYNTlVVNyhB2JTXzqVR99Oo3iZq5vn9CMttsm/hMLefdrv32NPeLoeDOOtIugwOauGEzhk9ewsRdbiTvxjmNMeeKZy9sONuhHzJQzz7kPRsTz/vvvb8aO8KINH64T3xgP/Rv32O6yuRgtFwEREAEREIHzRuDMRNc2UcWg2ZDnNsvxhOO8QTpG/8xf/w7dIWIAf+CRSQREQAREQAQuAgJnJrrudfCc/uRExFdG94rivfVDxAT78VTp3izaSwREQAREQAREIAgcnOhKYOYiIAIiIAIiIAIicJkQUHRdptl0LCIgAiIgAiIgAgeLgKLrYKfGwERABERABERABC4TAoquyzSbjkUEREAEREAEROBgEVB0HezUGJgIiIAIiIAIiMBlQkDRdZlm07GIgAiIgAiIgAgcLAKKroOdGgMTAREQAREQARG4TAgoui7TbDoWERABERABERCBg0VA0XWwU2NgIiACIiACIiAClwkBRddlmk3HIgIiIAIiIAIicLAIKLoOdmoMTAREQAREQARE4DIhoOi6TLPpWERABERABERABA4WAUXXwU6NgYmACIiACIiACFwmBBRdl2k2HYsIiIAIiIAIiMDBIqDoOtipMTAREAEREAEREIHLhICi6zLNpmMRAREQAREQARE4WAQUXQc7NQYmAiIgAiIgAiJwmRA4c9H18ss/snrkkY+tHnvsH1vduPHXLxN2jkUEREAEREAEREAEdkbgTEUXIuvpp79v9eGH314LLq5v3vw7q8cf/yfXQoz81q0b689YNjcCbD311MfX/RF0UwmbV69+cu13qp4y+ioE59Cx/NgQuHXr1urq1aurDz/8cHLozz333OrGjRuTdRaKgAiIgAjshsCZiq5XX/3zm9MtxNKLL/7QRoA9+eQ/tRZbCTNi6u23fzpFW3MEHfb3SR3fPnbsKwIXHYFtourtt99evfzyyxd9iMYvAiIgAueOwJmKrpde+hNrYYWQ4hUjJ1SIqymB1adiqacPn6kTrTnRxQlX+2qE6cPpVuqvX/+zG1HY7bwWgWNCYJuoGk/AuH/88cdXjzzyyObz2GOPrU/BOCV76qmnNuVpg33SVD22sDmXpvrE7le+8pUVvrHfMcUfNsd4U0ceO8k56Usa/TIuyhCf23xSH3v4iB9y7FPXY6Z9bMf3mHPCiM/YTd52uk3mI3amxkL7sTx2iZU0Ytf4xPaYz9nE9knztQ2fN998847xj/Gkf8YRHDIHKSfPQ8RZzFdjkDkitlyPmPV94oET4J/vU+Idx5K5SnlzKWU/+ZM/Ock7cOj2HUeuR0yDYeIZOZJ46J+xpA859pqrI0hpowAADLdJREFU3I8pcXe/+KPtnM+pWDuesV/bnOob/oxj6fKe6443fnusqf+LP/Mzq9MSXh9rQwSK6PrGN35l/aqPPCdd1CHEEEhJXLe46hOv5577o3eIoznRhT1EW/uijFeOiD5yEvZ9vbiGwh9HjAALEQsOi8dUmjoBo89LL720bv7qq6/e9toROy+++OLaHgtPFh8a9323m/LbZe2Pchayd999d92EhbMXQdpmw+L6ySef3MSHT8ZKOanj4Z4xpQ67Y+xZpLf5bDtZcGNnHDN2Ttr01oFOxPrGG29sYsUP40zs5JlTfOKjY2gMOqYRj3HuR0wS25jjP/ygbtf56ljoN+IzxtfzhQ+4mNR1lGX8XI9+0vY056sxYBy7CK6p2LHDXJN6XjOOzGXGxJzRjnvquCeN2DHW1K0bzPyIXXLSGM+27xftsz7Qb+REz9fofm6+sLPNZ+YysbbP9sF44r/HmHgTO3UjVsSQ7xftuv+Ic8cTjrZO2vd6UnS9994vrcUVYqeFEPe8YkQ8jYKIgeTEilOpKXF0t6ILkdVCDh9TYo5ykwgcCwLjxtrjZgFhwxgTi0dETy8qtOvFlTa0TeIagZQnPhauXVIWq7TthQ0bvUDTJgtn8vTrOq4ZW2Ihz1gZA5tk13GdeLf5ZAFG5KRvbOKvx0E57eY2hY55jJv7xr2v0y9ljVXqOp+br3GupsbTdvq6x0l5x7ANu+43hQ9liYO8sR3nbBSzxNB9w5mzmq/Grx8KGqep6zGeHuc4fupiO9jlO8f4GmvqI7LwQR2YnZSaH7SNH65P+n7RJjzETsQj5eN8EE+nsT7ztc3niF2wid0Rv/Cnx5h4sYUvErE1d7huEd39g/+cT8axr9Dq/pOiC0HFCdaUeKI8nz71Qhz1qdfU714pujKt5iJwbwiwAGThGS2wkLDYsPiMqRc+rrtNL67dDhtZFPGJ7yyko/3xfmwbu9jLqVr6UJYNJQto13X7rm9bbCwRlembvNt1WXxmAaYdcXbKOBg/7XsD63ZT13OxTsWTGLDT/abszs3XuHlM9Z0ryzhTv+t8pd8cPj2WqXGD6S64Nu7B6rTnK2PZxqXg03niSVnscA+OxDmV0g5/iBtwuH79+uahp/HK92/KzljWWFEXP1z3fHDfPmInMY92wom02/bw1323+Ryx637hVPxN8XsqfsqIdVua+w7RhxgQaOSJvUXTvtd3iK4psdTBI5wef/yfWD355O+47fUhgiunUn0iNvad+0X6udeLCDvqvgvGd30Tg0kEjg0BFgoWZhaVqTS3CPbCNrVIbVuU8cfiRxoX3akYUja2zeJFLCxosUl7fBADadxcum4q9rbLdacs0if57PGPcXP/9NNPr2PEdrdtX+P1GGvPAW17rmiLDxZ5Ur+G5B5MGq+OIeOnXW9Ya0MTtlI+5uO4Y/ck7LbhM2KAz9jlmjExv6Qe07pg+NEYdNsx7m3xDCbvuE1sU3Hf0bgKRtw7pr6mC7YpI7W/zH/KYp62fHLilfJteeNDu44BHKlP6u8XZc3T0c5UbOFs7CXv+drmc8Su/XfclHMSSt6p8ezyMVb6jad2waHb0i6vQpsH+wqt7n+H6ELQ9J+M4HXemBBC+QX71CG08ickeLWIjfx5CcQYp2b9Sf/ul/p+Ndl9sUc8sRvf5iJwDAj0Rj2OlwWExa0Ti0a/Nuvjdtqy4FKW1zq5J2cx5Kh/rOsj+vbV17FDf4RPYiC/efPmegNJGf477jHm1LEY4rvHwDW+kmjb9YmdvmA35TPjpB8Yxg+2Yi8+qKfdSRjEBm3xCQZgwf3ceLIBMJaOiT7xH1wzrtynnr4po1/3DUZTefrc7Xxtw+f999+fna/gExxjB/+MfRx/j6PrTmu+wCQxJCZsJ54pzFIWThAjNmInfTPWzAc5fcZ2Pa6eT8r7d//idy6P3fjJ3GZcc9+vjCNx555+fGf7u5OxJM6OfawjzpN8pk9yfJOmsAv3qc/Y6Je41x0nvkOpT5/YyT15sCNv39S1aNr3+g7R9d3BfPdfEypuMoXmInC+CGShnoqCBYKFgcWt01w5iyRC4DwSvnmCXTKdh88lx3eWvsTuLNGdt53Tl20PWvO9rTltBPYVWt1/UnSddsDaEwEREIE8PfNkmifvs0blPHye9ZiWsi92SyF9u58+GeLUxXT+CLRo2vda0XX+82kEIiACIiACIiACB4rAvkKr+yu6DnSSDUsEREAEREAEROD8EWjRtO+1ouv859MIREAEREAEREAEDhSBfYVW91d0HegkG5YIiIAIiIAIiMD5I9Ciad/rUxVdH374/60+85lfWF279vdODaXYfP31f3gqNvklxc985jOrj33sY+vPJz/5ydW3vvWtO2xT9vnPf/6OfxF2R8M9C8Z4iGsqprl4Xn/99dlx0Adb2KRdJ8YWDNrnVDxdj422+/GPf3z19a9/vU3f9fUvfuF/Xf3pf/xHV2/+T393tu8/+vAfra79yIt3tPl/vv3/rp78gb+y7k/OfVL6YPvz3/vfrP7PX/u/UmUuAiIgAiIgAjshsK/Q6v6nKrp2iv4uG5226Ip7RMi1a9dye2o5fz17FxGCf8QfIgcRc+XKlU0M9P/Sl760ud/lgv7YmUr4GkUXfn/qp35qIyrx+dnPfnb17W9/ey02sRWMaItIo4xr2mWM5J/61Kcm66ZimStDeG0TXXP9Uo6g+ukfevY20ZU6hBh1iq4gYi4CIiACIrArAi2a9r3eiK6f/JtfW33840+tPvnJq6svfemXVx/72CPrT59aff7zr63LyHPNyRbCiJOo9KGO9K1vfbi2l3LafP3r31r7oQx/b775m7e1wT/9SN02Nro+gix1iWXd+YQfERRTzXIKFFHUbRAeOT3ilIe2CA/ESJ+gcTo0dQqUdm0bm6PoQrwlbYsnbfYVXdgZBeMURieVBZ8eX2Lclue0i1MpPn1qdeOX/8G6jHLaTaV7EV19Sha/+OoE9lMnj93GaxEQAREQgcuLwL5Cq/tvRBeFETmjaGrhxTUiB/HzwQf/9+qzn/0b636Bm/r0Txn3XUabOYE09o+wGl8vppz2pNy3n/ifyqfEQ7dDHPVJUOpamCAwOOXJqQ9tuj59knOyhhjDd6cIFerGV3lpNxdP6k9DdBFXxzaF0dT4RtFITPSdGmviHXPEVL8C5NSrhRftKTtN0YWtnK7lVaSia5wZ70VABETguBFo0bTv9R2i6xOfuHqHiGqBhMjp06ZxKkbRRD1iLnZz+tUiCqGU0yryFk4RU90em9x3n1xvi61jnRIUXT8nchBYnGBFII2vKOdECaclnJpMpVG09Cu7tJ+LJ/WHJrqIi5g58drl1AsB1IJqSgSdtujCXk64yEfBFWzNRUAEREAEjheBfYVW9z9RdCFuRtHVomichinRRRv68Jmy10Jp7L9NdPF6EkF3L2kUXaNYOknk4JM2CClEU9JoJ+XkCLQp4TWKLtqOdk6K5zRE1+hzxIi45soo7xTBNZZ3m74+D9EV//iO+MrJV+rMRUAEREAEjhuBFk37Xt8huhAyEVU5lUIIJY2iKOXJ5+rz6pITqbYXMUb/+It/ykbRFftTbalrAZeYpvJRPIyCY0rkjCJrvMdP28HHKLIQXuPveo2ia8ruVDw9rn1FFzEQK36SRowop56Tq4ipqVM56u7m1SJ2ET79OpFTp76nzWmedE2dpI3CD0w4odzlpC6YmYuACIiACFwuBPYVWt3/DtH1qU/93Owv0kfo5FVeXvlFGKU8eQugtOkypqVtUpdf4m/h1a8Su3/3jc/ENDflEQ15PZg8QigbbcrJUzfVN+Ij/vr149xmHR/U868Fydsf17Gbtl2/LZ7um98h674RgeRdHpuMYxzn+IvkHVPXpXxu3MFozHPS9Etffn0ttDh1yu93RRzlJCp5BNn4ijD1iDY+ue+cPlN2+ZMUlCcxBz2+lJuLgAiIgAgcDwItmva9nhRdiBmTCBw7AgjTiN9jx8Lxi4AIiMCxIrCv0Or+G9GVPxmRE6M+aTpWoB23CIiACIiACIjAcSPQomnf643owpBJBERABERABERABETgtxHYV2h1f0XXb+PqlQiIgAiIgAiIgAjchkCLpn2vbxNd+xqz/82VGIiBHJADckAOyAE5MMUBRdcHEmOKGJbJCzkgB+SAHJADp8sBRZeiy9M5OSAH5IAckANyYAEOKLoWANknhdN9UhBP8ZQDckAOyIGLyAFFl6LLpxs5IAfkgByQA3JgAQ4ouhYA+SKqcWP2KVIOyAE5IAfkwOlyQNGl6PLpRg7IATkgB+SAHFiAA4quBUD2SeF0nxTEUzzlgByQA3LgInLg/wdn8s1twi4nAAAAAABJRU5ErkJggg==;" parent="1" vertex="1">
          <mxGeometry x="4402" y="1370.31" width="488.51" height="260" as="geometry" />
        </mxCell>
        <mxCell id="q94nttZm7VbdmEVS4brj-10" value="" style="shape=image;verticalLabelPosition=bottom;labelBackgroundColor=#ffffff;verticalAlign=top;aspect=fixed;imageAspect=0;image=data:image/png,iVBORw0KGgoAAAANSUhEUgAAAO4AAAC1CAYAAABYp8MWAAAgAElEQVR4Ae2d6bNsVXmH/Tv8mDJVpiplJSYVp8SRqFG0FOOEihqHlGgcohgHNMSSQsEYCRiMCoojQeSCmOKaUOIUxCheNXKduOIEH/3o1516Wp72d9+zu0/3PX3POfucd1X1XXuv9c7v+1trd5/ude93wy/vHfrVMegamFYN3K8TNq2Edb46X9RAA7efOPqJa4I10MCdYNJ61+1dt4HbwO0dd4I10MCdYNJ6x+0dt4HbwO0dd4I10MCdYNJ6x+0dd1vgHvnFPcMHvvo/w0vOf9vwiMc/Ybj//e8/e/3xwx42nPXyvx0uuu764TN33b3vVu1rf3xieMNllw8f+vo3dtW2t3zoynmMnv3KV81j88nv/2A446xnzOf++fM376pdDfaDBfalwP3knT8cXvSmNw+/94AHzAtO4Gb/sDPOGP7l5i/si0I88vNfDe/67A0DNv3Zox49/PvXvr6rdjVwDxZA9uuCtxC4H/vu94czX3DOUsAmeB/+l4+f7cx77ShABbDY1sBtEO11PZ4u/aPAvf7nvxpe8c4L56Blxz3nvH8YPnz7Nwd2NB6fP/ad/xteedG7ht9/4APndM973d8P15342a7ucDUwDdwGa62Jg3g/Ctwrvvy14cEPf8QckOdeeNFw/c9+uQWQAPiN779iePpLXjq885prh08d/+EoDYDnPfJDHvOYmcw/fPCfDE8554XDxTd8brYQ1MDy/s/dnPeJnz7+o+EfP/aJ4Yxn/PXssR3+Z537qpMeg3mfDa18tecRFj0vv+Adc5q3fPDDwz994lPDn/7FI2dy/+q5Zw/vv/XLcx/w+eIbbxrOetnLB3QiEx9e8Ibzhiv/91tzurR/J4/KyEQ2nx+gi57F8PIvfmm2WKaeXKB47/yBr942PPPcV878gO/VF79n+MweL6Jpb19vdkEdBe7r//XyeXE/8klPHj56x3dGi3S7ZFD4r33v+5a+R37Oq18z8F46ZSVwKconPue5c3sSkIDJD3lOBbgsHgISuSxWLFrY8onv3TlbkFJfXvOk8aYPfHDLgnYqwGUBvPA/rjvJltTFEw9xzMUzgctbgic869knxeilb3v7wJNTxrWvNwuevYznFuBe99OfD89//RvmRQCwTnXlPv+qjy4FrcV59mteO//0lWAkcKVZ1GMrNp8KcFMm4Pibt5w/e9RHFjbl/Ng1PPiYCTwV4PKpve/Lx/Qwhq53fPLTc10J3MrDE8Rlt3xxTpv29fXBAO8W4F77k58Oz3zFufOi5dHyVJJ99bHvDY992tPmcp76ohf/9j3yL+4ZrvnhT4ZXvevdc1BTlO++/oa5ngrcxz39rOHS/7pl9ljN7v/UF75oLpcdmT+1aGMW9NiHU/moTMG/7O0XDPzpSH56bMEmAYOt2MzOyGM/vggWfMRX+dcFLrsiu6PyeNxVHjqxzzn+/Kat6SfzfDh46Rdu2fJIrV3dHwzAmsctwK1/bzxV4F702SPzgnv0U546fPTbJz9u89jHDmdRunNiWAL3Dx70oOF9R/97DgzmU/ZOgEuxX/mNk9+rAqQXv/mtc7uwMR9R0Y8v+KTt7/jUNXP71gUuj+QucOyUvFc1OfQ5/9DHPm7+d+kK3L979yUN2kP0ZZotwL3mR3ed9N7uVIGbn0oDhLH3WwnAxz/zWfMPtxK4f/7EJw5XffOOk4o553cCXJ4seMJIoPABG7YISmzMea4ruPFVmnWBWwGo3kU9vqOr8r3nc5+f26At3R+sXTbzuQW4vJ/lfa2Fc6rvcfORdBH4FwFw0biGL5vPgt7uUTm/2aTs+sQhUJy3X+TfXgF3kZ3a2/3BAvEW4JLg/FR57HFylSLgzxGCfyc7bt1R0b0p4I4tKJ/+wY+HJz//BXPbd3PHHXu6WBTr7RaoRXw9fjAAPArcdf6Oe/6VHxme9LznD2/98FWzL2XwAQ7Fwfs+gbuT97i7Ddz6qfrpfo979bHvDo8+8ymzWPGBGN/9XgVcDdyDAcBVcj1GMwrc+sERBcV3lvlQBmDyGvvm1NNf+rLZp68ouuqb3x4edeaZc/Ce6qfKOwHuHz3kocNlt9w6+3DJP2ktesTN4PBlkt36VLkuFDzh8L1vvqHGn6XOu+z9c1uedPbz5p8DNHAbuKMr/LrfVc4vQwACwM0uLADcfcf6c85740lflVz2KIzsZfP8GohPX6seH4tXAS5/csn3+VWW9/iWf1vFtnXf48LDn7ryiyDKz77qauA2cEeBS0HxjaZVCphf4rz3P49u+XMEO/d235w6+7WvG/gkG32+lgETmmXzgI6/d2bRc70OcNGxyjenWJjYGbWb/lSAyyLHFznye99pP6Dle+H5Z6kG7u/qJeN/WK5HH5XTeQrz37701ZO+a0xR+XtcHiv9UkDyeU1Rjn1Xme//XnLj57cUPnzLgLnK/Ee+dWz27S93MR7Z+V4yvqyy42o7QBn7rjLfuz6d31X2O90AmV9ojX2nu4HbwD1px7Bouz/chdH539/533bH7QTu7wR2fg5nfhq48d66QXA4QTDFvDdwG7j9VmmCNdDAnWDSprhDtM2bfZpp4DZwe8edYA00cCeYtN69Nrt7TTGeDdwGbu+4E6yBBu4EkzbFHaJt3uxTQgO3gds77gRroIE7waT17rXZ3WuK8WzgNnB7x51gDTRwJ5i0Ke4QbfNmnxIauA3c3nEnWAMN3AkmrXevze5eU4xnA7eB2zvuBGuggTvBpE1xh2ibN/uU0MBt4PaOO8EaaOBOMGm9e21295piPBu4DdzecSdYAw3cCSZtijtE27zZp4QGbgO3d9wJ1sAW4A7dOgIdgV2PwLpPJIceuL/+9a+HG2+8cZaou+66a7j22mt3PWmtsCOwEeDecccdwwUXXHDS65JLLhko8oPYPv7xj898Pcg+rpu33/zmN8MVV1wxiwvxYVG78MILZ/c333zzrBaIV60TeKgTeXPe+I7VFzq2a2mTcrEJ23babr311i1y8AObtRsd2rApvdq9EeAijODystV7x7s/uBHIpxG8BCB33nnnzGGfTijkG264YVbQjsEHEJnjaYb7HENABQr0WW+Lojpm05VXXjnTtYhnlXHtrLTYxCLk4sD9qrZWWcvuNwbcGlgdc8VxxaMfW5GcdyXF8VyxcYIkwHv77bfPV2iTpx5XNmmVKx1y2AEct1evchwnCYwts0fZY7zwJa9y6U1ojjmOncjlPuOl7WM7lbYmb5UN/ypN3epf5S0BMb/tttvm4pGRsQHECSTiJbCh415Q64PCrCfvU7ZjYz2xpzZtqSPzYt1IV+snY0veMq7Ji//oS3+OHj06B7L5M67ooWHLpZdeOq9r5o2dNmW/MeBWZ7JA7rnnnoGXbVnQcZrg0pLOQOoMPUk2KdwTXAIALUHgmoY87DNIjMEnLUVhw251MMa1vnDtXLUHHeh3PnXKB4+60J1FKx86s0jl1T74BNEyW/UPemOEPu63a+jMQuXeGCzjRbaLLYWXBS1f2uOYfcbHMXt8sC6QsequCa1xRpaLJePUiDVBz5w6iDE0tGoXNLnAaKPj6MNec5f5lJa+5gP9xhnd5jl5vN4IcDVYp+kTKNxTCK5StSgcp4fPpsMEjiAzZzCZYzEwoTjJC12MSaesOiYfdFzT0MPulvakTcvsMUnqy17dqSuTRrJSp8lDBjwmMOO6qq1pF7sBfMsaOsaKchmPc6mLMePlPD3+JJByDttyx3au1k8+gUizqMemsdiO2ZZj8mU9qgM7oa3NcXpyRhy5Np5cZ32lH9atMrNWHMt+I8DV4BS8rEgMEMFJEGdSLSDA6e4pn3M6S2AAh8GUTnuSnrG0N3Xmtbz2yhizB5qqU77sa2E7l7zqoaflPYBGBm2ZrTOC+/5x0cixZdfIdSFbRjc2l7rS7qRdFANoFunOfKWsVa7TJunHbFukw0XVuC+zU/uRT13D4xjyrWNkQJNxZj4XrWVxgn8jwNU4A8P9okcZDMQp+jQOR+CBl8Y8q53OZrBTHzLciQ1EFjiymIfOlslMG9Ap+KV1Z1xmD7R1ocIGXtmUlWPpl+MJZMawl5c7L2PLbFUOfbUr58aukZsFxL35GqPPsbR7zD5oM/bJy3XmIucy3zm+ynXalPTE0lqrtVfrp96nnRmfHFeXYzUetT6wJZ9ExuKELJ4e4N0xcFGY72sQnI8AgCYfVfJ9DwGjKHIe3rvvvnsmQ9qkO3LkyPxxA9k0dYzR6yh0Op76uE57CUrOY9+999670B7oaTUO2rZsjmSiO/Vxnbzys4BBn23MVmJFq75qZ/Ivujae2GJMF9E6Lg/x4qlEv9Rb7Ukfa+yQscgP5KzSsmbwI2XCX2OfcvXFvKSt8Ka9xkf/vE/9jtV8IR8+5VW6tFl5xnPHwF0liPuFBqczQdrF6mahOLYfeneL3B32g11tw+5HgLpNIB8q4O5+uE9doyssq7Kr7KlLa84pR4BaYNfPJ64G7pQz2rYf2gg0cA9t6tvxKUdgx8BdV0DTb/Z3lh3PjucqNbDl10GrMDVNF1fXwN7WQAN3gj+ibtDsLWj2Q/wbuA3ctf/4vx8K97Db0MBt4DZwJ1gDDdwJJu2w7zbt/71DA7eB2zvuBGuggTvBpPWO0x9ONXAbuL3jTrAGGrgTTFrvuL3jNnAbuL3jTrAGGrgTTFrvuL3jbgHulL+o3bZ3BKYagXUX4wbuVDM9Ebv57XH//nj7ZDVwt4/RoaTwKBZ+yM9ZYJwS0m3/RKCBu39ysW8s4QykPOyvd8F9k5q5IRsBbj1cy0Ow0OJcHsjmGAXhNTy86oFZ3iMLemiuvvrqLYfMJR20uWPUuXpQGDbYqj1pkzS1z2NmPNPKMXWnPcisdIzlK+Ol38znuUNVpvPHjx+fH+AHL80DyVJu9cN75GqfY/b6pa1j9qBTfcx72B48xlqfjI9xT3nqpE9f8cETL5fZk/z1Wv3YpL9eV5n6akxq/Rhjdeg7fPiHb8ikVdn4Cz0tbdouTxsBLko92IxrHOOehqEeCD0bKPPQnjhxwqmZEz6Wpcwqq8rFefnmwu67YC6PvqyHrxEwkpIykWVAuWZuWYPf852h496k4GNNHveMZ6z0F136gm3Q2pCbhcI9r7Rd/YxnS59yvF5jE7bT12asHK/2EDNoPJXSWDMu2ODFXmOgrIyFY/ToSECnzu3sSTn12nhjGwDLeGU8Gc+5lJO5YhxZ+u69fkOLH8oai4Gyx47ydY5+I8DVIFcmV1EUkAxWD+cwGucsTGhIoPOuNFUmCcrEVrnyIa/ypj0mSX32Vb5JRVbaivyxBv2i/1kB2eqx1yZjgR4XOHzzPGTkZssYMC5dHU+dFr0+pbxF1xkn+WvM9aUuLJkL5ad/jGGfBSyNsfCevvLl3Cr2JH1eIxe/9AF7smU8K4gytvAn77IY42/1WZ3Vl7EYSku/EeCmkwjNBOQ1dCQ5/xOkNIZrd4WUSZDhY07HUy58BsWESKdMxmk1CbPB8g+0gqhMjd4mPTa68wo6xtQ/KqA8hUhTfWRcP7lOvcQrDzLPAqKwsEF7lL9qryzsySeXMX70QDfWnGPeXSjp0jfHx2KQc9vZI23trS9iiF21ZTy1GxpimQtV1pMyqyzvjaP39vB58D9ji2ySnn4jwK3BTQcyGYzjNEnjujYM9n8zSJmMwwcgGKelXO6lhzZBB10GWrrU7a7l2CqBkzZ1c62+1JOJh2ZMPvFI4EFnvKCnITM/NMoYpL4aA4rNxWQmaMk/yMwdRH9gwZ4K/ixcaBYVJ3PYiB3sdGP5T380scaFe/lXsUc5tU9dNT/Q5nz6lLRpCzw1r9xbz8zXOiPOvKofjo/Z7A6/Y+DioI8b2TOOATnGNSsLPcG/6aabtswbsEV8PEKQ/Drvo6dBr/PYYgPIOZ/AzrmUKW/tCTo2IU85ypA/adSLnzSSm49s9REp4+scAEC2suwZO3bs2Nwex+GTXr3VD+8p0rSHa2y01Zw6n3aqN2MOfy1kx1LfGK/xZM6YbmeP82N9xg+7zQ/2qku/vKenSaud9NIyX+OT8U698ClzjI/55LVOjOmOgTvzpv/Z1QiQUBOYiuuKnnN9Pe0IkPNcIBq4085nW38IIsBuy+7Mbm9r4BqJ7jsCE4pAA3dCyWpTOwJGYMfAXVdA0/dPzLoGdr8Gtvw6qJOw+0nomHfM162BBm7/kH7tP/6vW2RNv/mFqYHbwG3gTrAGGrgTTFrvYJvfwaYW0wZuA7d33AnWQAN3gkmb2u7Q9m7+CaGB28DtHXeCNdDAnWDSegfb/A42tZg2cBu4veNOsAYauBNM2tR2h7Z3808IDdwGbu+4E6yBLcD1S8/ddwQ6ArsXgXWfShq4u5eb1tQRWBiBBu7C0OzuhEek1CNLdteK1bRxGkMeqyJXPbYlj5kZO/Jl2bEveayL8rv/XQQauL+LxZ5fAQYKduxYmj03LgzIA9NieHamVB7UxxlLHm7HNYcEcpqDNI4hA58TrFyPLQ6p7zBfbwS4BJnV08PMTESekUMSoJGOJNbDs3LeYzpyFU95Yyu4K7z2eJ8J9tAtdWkP8rSx+gENuqGhlzftkdc5+1VBaEFzaiLAyJZxwif8g562zhy0NG2lNx4ZK+QDOMb0XX2ZD31EDo341FMgzTP8+JY0jmEXdNkYq3HI+cN+vRHgkgBXUQJKcmtR13sLmqSbeHjzwDNoKCIbdPIxlkVQd4E8UlN+ew4u52VLG/Ka+SwqdKetaY/6s+Dq0aXqG+uVnT6pf9HJ+OhadQ65CXjtRUfNX5Ur+LR7UWzT90W0YzRpi3zYW4+rda7703CuMgUISF15a1HUoNekWRS1gOGrY1kECXh0YoM7Qu4myKnzuagg09UfOoodvbzYiZVp78Ki3Qn8tKn6nffpV42XcpPe63Xnkj6vUz+y64KTtNU+baFP37kfoyW+yM+W8h2vshzv/rcR2MiOa5ABLYWcgMrrsaBn0jLRY3zqUU4WQcqphQidYJQ3++RNG9wFoU1dyVuv60JU58fuiZkLAb2P6tWP5F02lz7Ik/R1vsY6F5xKm3KUbV99r3KhqzlkLOPPPTpdMJXd/ckR2AhwSRjvidx9MjkkOh95uGeHo19WFMwjDxoaReAHHbpgoVQ5tWCQRXGMtbTHeeTySrCPyag7E/xZ9Mpb1mNr6oE2/eLahp/EAB6uF81Bj0zoaMnHfY2P+mbE9+mHh1b9Tt4qNwEIXT7Gp2ztcswFn3tkUh/UUDbsYEHLp6OcP2zXOwYuQWeXSNDmrkFAmXNH8bHVRDBOMgCBH4Ygk0by5HMXMrGMC2z4uXeHlMdendUW5nNupvS+wh4rOn1VbhZR2sq8PihzrKeA0+f0TdlVZxb0srmML/YkX51jXn3mij7p5M+xlFttMV/6XeODfFv6nTKdp0e+Nub4Yb3eMXAPUuDcMXK3Okj+TdUXFgsW0rpTT9WfTdjdwL0virnqs7p32z8RIB/u+PvHqr21pIG7t/Fv7R2BU4pAA/eUwtZMHYG9jcCOgbuugKbf/G8tO6Yd0+1qYMuvg7Zj6Pkuqq6Bva+BBu4Ef0TdwNl74Ox1Dhq4Ddw+AWOCNdDAnWDS9nq1b/17v+M3cBu4veNOsAYauBNMWu94e7/j7XUOGrgN3N5xJ1gDDdwJJm2vV/vWv/c7fgO3gds77gRroIE7waT1jrf3O95e56CB28DtHXeCNbAFuHv7VevW3hE4nBFYdwdv4B7OOmmv91kEGrj7LCFtTkdglQg0cFeJUtN0BPZZBDYCXA8Y46AvX3nUSD1gLI+GqYeIwc+hYMePHz/pIDXiphx4vFYffR78lnJzHN3SckAdurjHh3p4W9XJffU1ZS/KbeVBn/HJI3MY0wZ4bNoMXx6Ylj4yl/PqpM9YfeUrX5mfD60O5/GFuBuTRfZoV/barR32eWhc+uG4PnA6pnrhzRrRPmU6p05lYY9jxil1Zq7Uq0x76OVBBrq168iRI7PYETdp4FOX8RibyzyrK+2Rd9V+I8BFmQetcY2zi45DxYE8VhR6gsiLufwfERxXJglizJZ66hGj0tCTzDyEO21dRydy0vaUk/rGrpM27YY279Nn5igCAcY984zZpK9+1PuMQfVDucZ2mT3qHeu1xbllR9Xm0bbwUczqx3aPoVWWPXM1B9QMPtE46I94QcdYHn2LX85ZLxmLtKnmyyOGkUEdZk7IhzlZlq+xnKQv+rhKvxHgYpCrEgmoKwnOuMrQ66QGGsSxpBAoXpzyR7BMELxcC8gM9DJ7avCQDa9NOWM6GSNp+lJXWmXUfpk90hITfEyZ1TZo65jgqOPVVmwWGAKFMXcrc7DMHucW9VWGsdTujJ16mcP3WhPYqL3MGXN6afXZOqCnRgQD18mX/mpb6jGWNV+pEx31fG/tsM/45BjXi2KQPKtcbwS4aRxKcc7gEeRcnXJV00ADlnIEGP/Hj0dzGmz5slC4hsegm3RoneM6dXCftq6iE194JZ/2LOqX6ZQHe7NAqm1Jp2/aS48Od4Ux3hor7Kchix0rn3Qcr/bMGJb8k/mptplD2JnDHlvyOeYRucvqxxzgO/LICz0+VR3KrX3GxbmaL+QZ87yWnjHs1B7H6ZO+zudc8qxyvRHgVoPS8QwM4+wo9LZMcMqBhkSY8KSDN3XkXF5DR3CQY0sdzkND205nFtE6Qa8603b0Mu8qjq3VHnyqdNynDVVHzkGb4Mhr6AAJY7ZF9jg/1te4p495DS9x5EWDj5rIHOX8svrJOeOWY+knurAjFzfG3DRmxtz3T41lysS2fFrIWCEfO1bJF6qqHu55WjU2aVO93jFwSTwrc30xTsOZfDyAjkTlh0/QajSGHzt2bMbjI7fJhfemm26a8Vd93OvwmE3MjdmiHD+0GdPphxImDFnwSVuDmvdjtsDLuH4pR/u8R07yq99Yabu9fNqnHoqJ64svvni4/PLLT8oVPObH2CpnzJ70zWvp0EFueapCBvfmJG1inJcxYLdn4XI8QZyynUfH7bffPqdHTtIxT2xrnPSrxhW52pnxZky75QXE2Kst5sRYJH/OKUc+emVWXmRs13YM3O0UbHqeBOWqpnyS5Ptdx1btc0VdlWcv6UishZZ2jO0eOb8fr8ln7vb70ca0qe7iObeb15MD7ukIzn5JxunwbT/LzB2x7j77zW6fjtwxxxbO3bS5gbub0W5dHYENRaCBu6FAtpiOwG5GYMfAXVdA0/dvQ7sGdr8Gtvw6qJOw+0nomHfM162BBu4Ef0S9bpKb/uAtDA3cBm6fgDHBGmjgTjBpvYMevB103Zw2cBu4veNOsAYauBNM2rqrc9MfvB26gdvA7R13gjXQwJ1g0noHPXg76Lo5beA2cHvHnWANNHAnmLR1V+emP3g7dAO3gds77gRrYAtwd/OL1a2rI9AR+G0E1n0qauB25Zy2COSBBp45ddqUrSB4v9mTJm8EuPVHxv7YOI/uSKV93REYi0D+sH6vf6iOffvNnozZRoCLQMDrSYF5ncr6uiPQEdhMBDYG3Dw7KK8xc+ygrDwQzMPM3Km3O8ZkbIdPHvVxaBi20CPbVZwxD0hjXFu0A3rmkekhZlddddWchzOfPBQMunvvvXeuw4PK8Bt5vFy5fQLRvu0OBZPPuNBX+TmXMahxV7d2wZdj2IRsD2FLPfpqnLS/2iNd2pRyki9tNe5j9pBrWsqGzoPO5U2dyM7/kcE5dWb9pH3I8gXPMntmRu3hP6cFuBQc7w+y+X6hgrrSrnr+U93Vl8lBZx7LWd8/UVAUBjK12/Ofc6zqyMPZql8WgDFAPi/aqj5CW3UaR+bQeeLEiZnMMdr5xDDMDtJDFq3GTtAy7hwxQj73+CJQoOXehk+M2fRTOfQ0dCuDe2Qjh/lKm/ZAi8wEmDqTL+PC9ZjcjOWyfKVc9Fd7GNvrtjHgZlBMXjpnsRKwBBH3rGyuipmg5K/XlS9XRwKPHGXSW1zYycqbc85nMi2EHMOv5Eud6TMFyU6NDBs2MQaPtji3rK86EzTwca9Nac+y+GSuLEryQ3POhQv96KDPWGhzHXMxq+NpZ7VXncis9lQQqZc+dVhf0Bt35olJ1Qfvsnwtsyf17+X1xoBroeNMXuscYwQ1g+IcSeU1NidN7SttJiITCl/OWZBVHvcp00LIsfSrFpRz+EHxpU51MefjmmPb9cqVTru8z15a/PcgeeazmLnXNuyscXcOvwEh80ePHp3FJmOhXunV4+cc2OACXfXLa6+MMXvGdMpnX3PheOVVD/PGaixf0o3Zo+y97jcCXBwlALZaXAkkgyKtweG+zkkz1lfaTFJew2uSuK5zjLlLKDMLwTHo0q/0yTl2efyhpU7uGecFH3T0q7TUOSZXGdjMjo5/1TZ1S4tt0JqzMR9TnjYgFx7maOhCjvcpp8ZZGdqALIG9zJ6kg5f7Gj/0I6O2tIe5tAl7FuVrmT1Vx17d7xi4JNJHkewJih90uMsQSGh4fLn77rtnvY93FBdz0i4LiLSpTz51MGfBVrnVZu7HZCof2exg3GMv7yt9BINXecigKYsY+D82cE2BaZ/3i/yEFhptsJdPHY7TI9u2aN5xbKZpD/54Qr+xpNC5RnalZ8zcJV3aoxz0VBrnltkDSGnGF9nyzSaWzCl3zB7lQUOTltjyvznAU/3VV/Xudb8R4BpgneGeFa3b4YgA4BcE6bFPMjnW15uJwI6B63uaNCcfSXK8rzsCHYHNRGDHwN2MGS2lI9ARWCcCDdx1otW0HYF9EoEdA3ddAU1/8H7r2Tnd/znd8uugTtr+T1rnqHPUwJ3gj6gbuA3cBm4Dt0/AmGANNHAnmLTecXvHbeA2cHvHnWANNHAnmLTecXvHbeA2cHvHnWANNHAnmLTecXvHbeA2cHvHnWANNHAnmLTecXvHbeA2cHvHnWANNHAnmLTecXvHbeA2cHvHnWANNHAnmLTecXvHbeA2cHvHnWAN/MnAgiwAAAAFSURBVD/wXtE22CACRAAAAABJRU5ErkJggg==;" parent="1" vertex="1">
          <mxGeometry x="4077" y="904" width="282.45" height="214.81" as="geometry" />
        </mxCell>
        <mxCell id="q94nttZm7VbdmEVS4brj-11" value="" style="shape=image;verticalLabelPosition=bottom;labelBackgroundColor=#ffffff;verticalAlign=top;aspect=fixed;imageAspect=0;image=data:image/png,iVBORw0KGgoAAAANSUhEUgAAAMYAAABqCAYAAADnRS7IAAAQRUlEQVR4Ae2d+ZNdRRXH+Tv40cISS4oq0dICRIilLMpusYVFEILFIjsUOyMStoAmBAxbUoQsjGHJBKhKBCRoMEYhIBQJCIGAGH/kR35t63Ot7/X7evq+mTdzZ/LmvXOrJn3v7e5zTn/7fM/pvu++l33GPv9Pir/AIHyg0wf2CUA6AQk8Ag98IIgRGTNWDAUfCGIUQImsEVkjiBHEiIxR8IEgRgGUyBiRMYIYQYzIGAUfCGIUQImMERkjiBHEiIxR8IEgRgGUyBiRMYIYQYzIGAUfCGIUQImMERkjiBHEiIxR8IEJibHmvffTD0/+adp33327/h165FHpzCuvSg+++lpa/689QwV2jtH9L24cN/5nPv403fT4ivTAy38cVxcZqv8yVGvEEHG+st9+lQMMEzm6EQMclr7yajrq1NOqwFIiTRBjCIgBQQ465NC07E+vD01k7EaMbnVBiP4jhOak54xRinhP79qdrn/40fT1Aw+sl1uX3Xvf0BBDYJbKIEb/On9pvnSvFWIgbN1Hn6RTLrq4JsaFI7ePI8a6Dz9OVy1+IB1+7LFVu6/uv3869uxz0siqNYk1uIxSeeNjy2t5nC//+5vprKuvSQcc9K3q/rwTTky3Pbm62BcZLGMe3/ZGOv/mW9J3582r+tD3uHN+lu4dez6t/+zf43TSD2e+4jeLE/JZGpIFv3nwwdX4Fm96adweqsn5wUBLzLzM8Xnu08/TvRteSCcvuLAeHzaffc211biFiZcu/8ZHH0+/Wr02ffuw71c2H3nKqWne8SdU+hnDPc+NjRsrmLMvlG1g7PKH+bw1Yoz+c1c66fwLapDziV/xxvbEZGkS8pK+q9/d0TExTgwc5JAfHVnsf+aVVydI5xOJo+HccuxcH9enX3Z5WrPjg45+j7z+13TYMccU9dCntIeaLjEYt2OX20oAISMzJh+jEwOyK2DQn+Xsgltvq8dxwS23pueyQLD8b2/WmIIt1y5/mM9bIcZT73+Yrl36UIcTjjy5ugYZpz3l4kvqSconXtfnXHtdR/R3YqhNU3n5ffd3RPKbVzzRYU9Tv/mXX5FYCuIEOA4ORFuWhXc+/WzljGSWu58dqx0v30NNhxjoxoYm+3QfQjImd1YnhtpR0vbnN96clr6yuSII935w4olp5dvvdvRnjtSPTPzMJ5911LuuYTvvmRgCslv54/lndkR/0rgiN5Hptxv/UC1jiIC/Xjva6HA5MSAXk6sl0vHnnldPrE88bbiWjbRjSUW/0Q8+SpfefU9tD3ZpmeEO/p3Dj0i/e+3PtaM4aZDreyjvR53vw7rV4WyODbZgGzZONEb65sRYcOtIR+YkIJ184S8qHHyc9PVlVF43bCQojbd1YkAKlk1SxgQzYXLSGx55rK6jTV5/i0VFJ8YRxx2fnnjrHx19fSngDnnXs+trfaV+EJKIKpsULcl8Pznr7Po+DgOpbl87mla+/U7XPYl/1jNZYkC28264qdaHTflyiTEzBtmKLcLWidG0FPKs4Mspx86DimQPe9kaMVgOsD7PN7QsFU675NJ6YjXBTSWTrUlxYsh5VUeZb/hpz/2L7lhY68Px8rU1bZw87H3W7vygIilLsibb2NiybyELuB3dskK3OnT6vgubXC7nOXkYm9o4MXjwAR6qU9lEACfML+9ZVI1dfaKcxI8hNE0sk8rEEFVxJEqcJo94bRHDCaOJy2WLGO4wpX70J6qLAER7OTvLD55iaVxq4yVPqO57/sXaCZswQs9U6zRGyqbx+H2CD3h4P87ZNxBUNEcs3XwZxV5q8aaXx/XL5Qzbdc8Zw5cJkODihXfVDoYz8doDyyMBmTuvLwXUpqn0jMETpKezR7pNGYP1vxy5l4zhdqx69710zdIHq0e2kuUlS0aCA32m6vz50m06GaMpAGCf72NYTj26dVv9NIqnYTxR9LHH+TQyhsB78p330tGnn1E7Io8MO8gziXW0ZOWlE6O0hvZlAqRkU48MyCcn7mWPkevXNQ7MmE66YEEtl805S0faTJUYHs2xdzp7jG7E8IcR7CcuW/T/wHHdQ8uCFG28ROhOL8dZ8tIr9ZMlJpgP7RRNaeOOigPzaJdMwn4EZ8bp6ZendScG9f50icn2R8C+gVzxxlv1h4h5v25PpXjBT5/euzyNEyJACGR+7+ij64cMvRBj4e+fqcat/cAdo+vqZRvYTPWpVDdikMHZR2A3Or72jQOq81Kw0ViHvZzWUkrgsUG85K67K7ABnz+cX0sqSAJZVNdUTudzDNeHXpZ0OEGTLt13nZDVP1PgaZoIzt7DP6vxft2IQX/fYEuv9gTIZZmo+00lY7l9zVMd0d33GN2IwTyxjxDppYNPvUtvHGheh7lshRgAyKe3rLsFOpH14S1/qSdyok+UIQ7LMp8MzxhskH3JJj2UU/3ke/4VV45bX2PDRCTGDre1GzEIGvrQ0G0WMYTdRJ98V3u37JPrXoiR72ewpbSncfyH+bw1YgDiog0vdiyp/FNl6omOvCvl7yDx3hT3qMsnwomBI/H6xtVLllbvAzGxU31XiveRsDV/tCz9RFHe34IgvI6BLkpeHcdBc1u7EQOZ2H3RHXdW71shi3egeEDgDxN4kFF6V4onZLwjJtu87IUY9GM/gX7+SktFlz3s5xMSY28ClBOj9Dhyb9o3l3SzvGQpKGL4h31zaRyzZWsQo/BEYrbAn2k9kIGsmD/kYL+i12Bm2oa5Kj+IMcDEaNr4+2cwc9VxZ9ruIMYAEyP/cJVlFHul2HRP/OWpIMYgE+PjT9O5199QPbZm+XTMGfP/99DB3kyY6cg7V+X3NTHmKqhh98QRud8xCmIMcMbod+frZ/uCGEGM4mck/ey0s2FbECOIEcQo+EAQowDKbESk0NHf+5AgRhAjMkbBB4IYBVAimvd3NJ+N+QliBDEiYxR8IIhRAGU2IlLo6O+sFMQIYkTGKPhAEKMASkTz/o7mszE/QYwgRmSMgg8EMQqgzEZECh39nZWCGEGMyBgFHwhiFECJaN7f0Xw25ieIEcSIjFHwgSBGAZTZiEiho7+zUldipDgCgQFCoJdgFMQYoIkf9KF8+eWXaWxsLFFO5WiVGBixbNmyNDIy0vG3aNGi9MUXX0zFvugTCEwagVWrVnX43caNGyfdN2/YKjEQ7kz181xxXAcCbSKwffv2BDHaOlonBplhw4YNlX1+zg0YnGcTH0zO+IULF6Zdu3ZNONY8U5G11A8byFjSC4Ac3od7tEffypUrq6yHjK1bt9b9POt5X+SWxsA91y29lLKFUvelX2MWVtixc+fOyjbaKwpKtvpPBTvZgk6WHbIr16H7Gqd0676X6iv7qWMMYDbRkeMqudgpW7mnMYMZ80K5bt26tHz58noMPl/oFb70F8bd7JlRYmDM5s2bO/RzzX3AFYFkuLeljjYTHQJTYHEtp6T/kiVLKn3I8Tqu3QaBr3ZMpk8o9XKM3CbsRrb6+tqWse7YsaOqQx8yvK1spYHbwLXL9TrkMPHc48hxnix29PW2roM6nA3ZOnB26eQegQNbdDBO2tPOsaKPCKO2TSXYCL/cHvkOfdEjUtCHuXKd1GO/2uIHsjWfh5ItrRMDg+Tg+cAwQBOBcQCrg2sGqijhTqk2pbKkQ+0cyKZ7TBiguT5s4ZpSRz5hspPSJyQfB/XYyIEu78e5R6+83m1y3LAXnWDNkev0flWDhn8Yk+YKGR5EkI1tub3u4LJJ4rnevXt3R8CTfdRxlOS6vdihtiIa/Rx/ZAgD2nMtElRKsva5nbQp3VNfytaJ4c7o51LKPQbJYDQpqmOyNeF5ndrkZbcB5nUOruTgtEy+T3jJNoFPe59I7isjIDPv6xho7NKdl26vO4js3rNnT+283hY5U8EOHQpGkEDYI8+dMreTa9lE6Uc+fuq6BS/vyzk2KWA6dsID+ZACLJRZSjrVvmSn6nLdft0qMQAAcHXkk+cG5WDhmOqb10leqczTOXLk5JTI0oF8vwZQ1qWA53W08UiO3ZCB0m2jH/2Ro8PruecY+ERTR3/u6VwTzbVPNnqxTxE9n+ypYlcptn/cVtevJo61z6XqKWUrNnI4xt6u6dzxy+0RBuhw/blOroUVenxJWJqzki2tEQOj87TLNQ61bdu2qk7OxuCpI1qRein5Y0BMMnVqWzLa7wE8baUbO3QAAvpVJ8LovnSgF/26xj6cVHJ1H7nqK5mUue3cQ4YwUb30eF/a+X3sJVpL9/r16ztsc/2qk/xesRNO6oddjp/sl72q8/uOjeRpfukn21TXVEom42eMuqbUHEuW44UuDteZ2+TtsUl9mmzhfqvEwAA/uIb1c+3II/tcsz/snT4CrRHDlwEyq5SOVdevpSJVHj371d6wa2YQaI0YM2NeSA0E9g4CQYy9g3to7XMEWiNGL4KibX+/Rh3z09v8dH27NsDsDczAa3DwCmLEF5V6eow5LOQPYgQxghgFHwhiFEAZlqgY42xe+gUxghiRMQo+EMQogBKRtDmSDgs2QYwgRmSMgg8EMQqgDEtUjHE2Z8YgRhAjMkbBB4IYBVAikjZH0mHBJogRxIiMUfCBrsTo83fCwrxAoCcEesl2s0oMvsVV+o5HT6OLxoHAFBHoK2L4l4T4opC+ijrFsUW3QGDKCPQNMfgeLsSIIxDoBwRaJUYe8Sf7xXOA4Jccmn5Jzn8AIP/KqX8JnjplGu+jzONfip/oC/ElufqivsvO7REGlLk+/egAcqijlL3qpy/8g4nu0c/PJVf29IMjDZoNrRIDcPwnT5jAyfwYghyNydfB98XzH9FSHT9WQB8d7uTc197Ez9XWf0pF95pK5PJXkuN93J68LePw353K8dFvKOX9kO/4ef1c/C694zUXzlslBpOnKEgkzH/GpAmQEgncEfLo7QRCZl7PtQ4nAveVPVTfrdTvKLmD0j7X5/YomjN+/cmeHB9lC2Tm/eiTE4B7ZBR+M4n2ccwcAq0SI3egfGKbhlFqJ1k4gy8ZaOsROJeZy6I/f8jDgXHOyRxOTPoqsk9kT67ff4pHY5J+2ca195OtmzZtqu6rPW0INk5E1UXZLgKtEsMnFzNzR2gyXY4gp+VavyTnzkN9/st/uUwygmcF2eCZI+9Tuna9Pi6/X7LH65HrSyeXQ52TxvsJD2zmnIOSAEGZj7FqEP+0ikBrxGBitXTwkvuTOby/L8FwPl+eIVsbVEVQ11eKptxzsnSzpyQT+bKpmz3okC2MB72yd8uWLXWdHFtyR0dH6zr1JzBwztj5rwk4R6brnyy23cYbdWUEWiNGWfzeu6voTEnkneyBs5VIpP3GZOVEu7mNwMASAwcnyiq7zO1pCutnG4GBJcZsAxn6BguBIMZgzWeMpiUEWiNGL4KibXyHYZB8oOvbtYM00BhLELcXHwhiFL6k0guA0XYwCRfECGLEN/gKPhDEKIASWWAws0Av8xrECGJExij4QBCjAEovkSXaDmZ2CWIEMSJjFHwgiFEAJbLAYGaBXuY1iBHEiIxR8IEgRgGUXiJLtB3M7BLECGJExij4QBCjAEpkgcHMAr3MaxAjiBEZo+AD/wUHWeQqJ/V81wAAAABJRU5ErkJggg==;" parent="1" vertex="1">
          <mxGeometry x="2871" y="1191.81" width="184" height="98.5" as="geometry" />
        </mxCell>
        <mxCell id="q94nttZm7VbdmEVS4brj-12" value="&lt;h1&gt;Exception&lt;/h1&gt;&lt;div&gt;Содержит ошибки, которые обрабатываются в классах&lt;/div&gt;" style="text;html=1;strokeColor=none;fillColor=none;spacing=5;spacingTop=-20;whiteSpace=wrap;overflow=hidden;rounded=0;sketch=0;fontColor=#1A1A1A;" parent="1" vertex="1">
          <mxGeometry x="3737" y="805" width="190" height="120" as="geometry" />
        </mxCell>
        <mxCell id="q94nttZm7VbdmEVS4brj-13" value="&lt;pre style=&quot;background-color: #ffffff ; color: #000000 ; font-family: &amp;#34;courier new&amp;#34; ; font-size: 9 0pt&quot;&gt;&lt;span style=&quot;color: #808000&quot;&gt;@PostMapping&lt;/span&gt;(&lt;span style=&quot;color: #008000 ; font-weight: bold&quot;&gt;&quot;/account&quot;&lt;/span&gt;)  &lt;span style=&quot;color: #808080 ; font-style: italic&quot;&gt;без спецификации пути,&lt;/span&gt;&lt;/pre&gt;&lt;pre style=&quot;background-color: #ffffff ; color: #000000 ; font-family: &amp;#34;courier new&amp;#34; ; font-size: 9 0pt&quot;&gt;&lt;span style=&quot;color: #808080 ; font-style: italic&quot;&gt; говорит нам, что метод createAccount()&lt;/span&gt;&lt;/pre&gt;&lt;pre style=&quot;background-color: #ffffff ; color: #000000 ; font-family: &amp;#34;courier new&amp;#34; ; font-size: 9 0pt&quot;&gt;&lt;span style=&quot;color: #808080 ; font-style: italic&quot;&gt; обслуживает POST запросы по пути /account&lt;/span&gt;&lt;/pre&gt;" style="text;whiteSpace=wrap;html=1;fontColor=#1A1A1A;" parent="1" vertex="1">
          <mxGeometry x="4359.45" y="784.9999999999999" width="388" height="99" as="geometry" />
        </mxCell>
        <mxCell id="q94nttZm7VbdmEVS4brj-14" value="&lt;pre style=&quot;background-color: #ffffff ; color: #000000 ; font-family: &amp;#34;courier new&amp;#34; ; font-size: 9 0pt&quot;&gt;&lt;span style=&quot;color: #808080 ; font-style: italic&quot;&gt;@GetMapping(&quot;/accountByAgeAndName&quot;) говорит — &lt;/span&gt;&lt;/pre&gt;&lt;pre style=&quot;background-color: #ffffff ; color: #000000 ; font-family: &amp;#34;courier new&amp;#34; ; font-size: 9 0pt&quot;&gt;&lt;span style=&quot;color: #808080 ; font-style: italic&quot;&gt;метод getAccountByAgeAndName() должен быть вызван,&lt;/span&gt;&lt;/pre&gt;&lt;pre style=&quot;background-color: #ffffff ; color: #000000 ; font-family: &amp;#34;courier new&amp;#34; ; font-size: 9 0pt&quot;&gt;&lt;span style=&quot;color: #808080 ; font-style: italic&quot;&gt; когда кто-то вызывает метод GET на пути /accountByAgeAndName&lt;/span&gt;&lt;/pre&gt;&lt;pre style=&quot;background-color: #ffffff ; color: #000000 ; font-family: &amp;#34;courier new&amp;#34; ; font-size: 9 0pt&quot;&gt;&lt;span style=&quot;color: #808080 ; font-style: italic&quot;&gt;&lt;br&gt;&lt;/span&gt;&lt;span style=&quot;color: #808080 ; font-style: italic&quot;&gt;public AccountDTO getAccountByAgeAndName&lt;/span&gt;&lt;/pre&gt;&lt;pre style=&quot;background-color: #ffffff ; color: #000000 ; font-family: &amp;#34;courier new&amp;#34; ; font-size: 9 0pt&quot;&gt;&lt;span style=&quot;color: #808080 ; font-style: italic&quot;&gt;(@RequestParam Integer age,    //используются для доступа к значениям параметров значения из запроса&lt;br&gt;&lt;/span&gt;&lt;span style=&quot;color: #808080 ; font-style: italic&quot;&gt;@RequestParam String name) {&lt;/span&gt;&lt;/pre&gt;" style="text;whiteSpace=wrap;html=1;fontColor=#1A1A1A;" parent="1" vertex="1">
          <mxGeometry x="4374" y="904" width="745" height="179" as="geometry" />
        </mxCell>
        <mxCell id="q94nttZm7VbdmEVS4brj-15" value="&lt;pre style=&quot;background-color: #ffffff ; color: #000000 ; font-family: &amp;#34;courier new&amp;#34; ; font-size: 9 0pt&quot;&gt;&lt;span style=&quot;color: #808000&quot;&gt;@RequestMapping&lt;/span&gt;(value = &lt;span style=&quot;color: #008000 ; font-weight: bold&quot;&gt;&quot;/hello&quot;&lt;/span&gt;, method = RequestMethod.&lt;span style=&quot;color: #660e7a ; font-weight: bold ; font-style: italic&quot;&gt;GET&lt;/span&gt;)    &lt;span style=&quot;color: #808080 ; font-style: italic&quot;&gt;предназначена для того,&lt;/span&gt;&lt;/pre&gt;&lt;pre style=&quot;background-color: #ffffff ; color: #000000 ; font-family: &amp;#34;courier new&amp;#34; ; font-size: 9 0pt&quot;&gt;&lt;span style=&quot;color: #808080 ; font-style: italic&quot;&gt;чтобы задать методам нашего контроллера адреса, &lt;/span&gt;&lt;/pre&gt;&lt;pre style=&quot;background-color: #ffffff ; color: #000000 ; font-family: &amp;#34;courier new&amp;#34; ; font-size: 9 0pt&quot;&gt;&lt;span style=&quot;color: #808080 ; font-style: italic&quot;&gt;по которым они будут доступны на клиенте&lt;br&gt;&lt;/span&gt;&lt;span style=&quot;color: #000080 ; font-weight: bold&quot;&gt;public &lt;/span&gt;String helloSpring() {&lt;br&gt;    &lt;span style=&quot;color: #000080 ; font-weight: bold&quot;&gt;return &lt;/span&gt;&lt;span style=&quot;color: #008000 ; font-weight: bold&quot;&gt;&quot;Bank project&quot;&lt;/span&gt;;&lt;br&gt;}&lt;/pre&gt;" style="text;whiteSpace=wrap;html=1;fontColor=#1A1A1A;" parent="1" vertex="1">
          <mxGeometry x="4436" y="1078" width="644" height="148" as="geometry" />
        </mxCell>
        <mxCell id="8-rb0V-c5dHq6XPJ8ipe-4" value="&lt;font style=&quot;font-size: 20px&quot;&gt;postgreSQL&lt;/font&gt;" style="ellipse;shape=cloud;whiteSpace=wrap;html=1;fillColor=#dae8fc;strokeColor=#6c8ebf;" vertex="1" parent="1">
          <mxGeometry x="1271" y="1141" width="308" height="185" as="geometry" />
        </mxCell>
        <mxCell id="8-rb0V-c5dHq6XPJ8ipe-38" style="edgeStyle=orthogonalEdgeStyle;rounded=0;orthogonalLoop=1;jettySize=auto;html=1;strokeColor=#000000;strokeWidth=8;fontSize=20;" edge="1" parent="1" source="8-rb0V-c5dHq6XPJ8ipe-6" target="8-rb0V-c5dHq6XPJ8ipe-36">
          <mxGeometry relative="1" as="geometry" />
        </mxCell>
        <mxCell id="8-rb0V-c5dHq6XPJ8ipe-50" style="edgeStyle=orthogonalEdgeStyle;rounded=0;orthogonalLoop=1;jettySize=auto;html=1;strokeColor=#000000;strokeWidth=8;fontSize=20;" edge="1" parent="1" source="8-rb0V-c5dHq6XPJ8ipe-6" target="q94nttZm7VbdmEVS4brj-3">
          <mxGeometry relative="1" as="geometry" />
        </mxCell>
        <mxCell id="8-rb0V-c5dHq6XPJ8ipe-6" value="&lt;font style=&quot;font-size: 20px&quot;&gt;RabbitMQ&lt;/font&gt;" style="shape=step;perimeter=stepPerimeter;whiteSpace=wrap;html=1;fixedSize=1;fillColor=#ffe6cc;strokeColor=#d79b00;" vertex="1" parent="1">
          <mxGeometry x="930" y="1675" width="166" height="116" as="geometry" />
        </mxCell>
        <mxCell id="8-rb0V-c5dHq6XPJ8ipe-26" style="edgeStyle=orthogonalEdgeStyle;rounded=0;orthogonalLoop=1;jettySize=auto;html=1;strokeColor=#000000;strokeWidth=8;fontSize=20;" edge="1" parent="1" source="8-rb0V-c5dHq6XPJ8ipe-7" target="8-rb0V-c5dHq6XPJ8ipe-8">
          <mxGeometry relative="1" as="geometry" />
        </mxCell>
        <mxCell id="8-rb0V-c5dHq6XPJ8ipe-7" value="Repository" style="rounded=1;whiteSpace=wrap;html=1;fontSize=20;" vertex="1" parent="1">
          <mxGeometry x="3087" y="1179.31" width="159" height="85" as="geometry" />
        </mxCell>
        <mxCell id="8-rb0V-c5dHq6XPJ8ipe-35" style="edgeStyle=orthogonalEdgeStyle;rounded=0;orthogonalLoop=1;jettySize=auto;html=1;strokeColor=#000000;strokeWidth=8;fontSize=20;" edge="1" parent="1" source="8-rb0V-c5dHq6XPJ8ipe-8" target="8-rb0V-c5dHq6XPJ8ipe-13">
          <mxGeometry relative="1" as="geometry">
            <mxPoint x="3932" y="1239.31" as="targetPoint" />
            <Array as="points">
              <mxPoint x="3604" y="1222.31" />
              <mxPoint x="3604" y="1103.31" />
              <mxPoint x="3921" y="1103.31" />
              <mxPoint x="3921" y="1239.31" />
            </Array>
          </mxGeometry>
        </mxCell>
        <mxCell id="8-rb0V-c5dHq6XPJ8ipe-8" value="Service" style="rounded=1;whiteSpace=wrap;html=1;fontSize=20;" vertex="1" parent="1">
          <mxGeometry x="3386" y="1174.31" width="180" height="95" as="geometry" />
        </mxCell>
        <mxCell id="8-rb0V-c5dHq6XPJ8ipe-24" style="edgeStyle=orthogonalEdgeStyle;rounded=0;orthogonalLoop=1;jettySize=auto;html=1;entryX=0.5;entryY=1;entryDx=0;entryDy=0;strokeColor=#000000;strokeWidth=8;fontSize=20;" edge="1" parent="1" source="8-rb0V-c5dHq6XPJ8ipe-9" target="8-rb0V-c5dHq6XPJ8ipe-13">
          <mxGeometry relative="1" as="geometry" />
        </mxCell>
        <mxCell id="8-rb0V-c5dHq6XPJ8ipe-9" value="DTO" style="rounded=1;whiteSpace=wrap;html=1;fontSize=20;" vertex="1" parent="1">
          <mxGeometry x="3974" y="1490.62" width="156" height="80" as="geometry" />
        </mxCell>
        <mxCell id="8-rb0V-c5dHq6XPJ8ipe-17" style="edgeStyle=orthogonalEdgeStyle;rounded=0;orthogonalLoop=1;jettySize=auto;html=1;fontSize=20;strokeWidth=8;" edge="1" parent="1" source="8-rb0V-c5dHq6XPJ8ipe-10" target="8-rb0V-c5dHq6XPJ8ipe-16">
          <mxGeometry relative="1" as="geometry" />
        </mxCell>
        <mxCell id="8-rb0V-c5dHq6XPJ8ipe-10" value="Application" style="rounded=1;whiteSpace=wrap;html=1;fontSize=20;" vertex="1" parent="1">
          <mxGeometry x="3676" y="1177.81" width="167" height="88" as="geometry" />
        </mxCell>
        <mxCell id="8-rb0V-c5dHq6XPJ8ipe-27" style="edgeStyle=orthogonalEdgeStyle;rounded=0;orthogonalLoop=1;jettySize=auto;html=1;strokeColor=#000000;strokeWidth=8;fontSize=20;" edge="1" parent="1" source="8-rb0V-c5dHq6XPJ8ipe-11" target="8-rb0V-c5dHq6XPJ8ipe-8">
          <mxGeometry relative="1" as="geometry">
            <mxPoint x="3428.4000244140625" y="998.81" as="targetPoint" />
            <Array as="points">
              <mxPoint x="3476" y="999.31" />
            </Array>
          </mxGeometry>
        </mxCell>
        <mxCell id="8-rb0V-c5dHq6XPJ8ipe-28" style="edgeStyle=orthogonalEdgeStyle;rounded=0;orthogonalLoop=1;jettySize=auto;html=1;strokeColor=#000000;strokeWidth=8;fontSize=20;" edge="1" parent="1" source="8-rb0V-c5dHq6XPJ8ipe-11" target="8-rb0V-c5dHq6XPJ8ipe-13">
          <mxGeometry relative="1" as="geometry">
            <mxPoint x="4094" y="998.81" as="targetPoint" />
            <Array as="points">
              <mxPoint x="4052" y="999.31" />
            </Array>
          </mxGeometry>
        </mxCell>
        <mxCell id="8-rb0V-c5dHq6XPJ8ipe-11" value="Exception" style="rounded=1;whiteSpace=wrap;html=1;fontSize=20;" vertex="1" parent="1">
          <mxGeometry x="3688" y="951.31" width="159" height="95" as="geometry" />
        </mxCell>
        <mxCell id="8-rb0V-c5dHq6XPJ8ipe-25" style="edgeStyle=orthogonalEdgeStyle;rounded=0;orthogonalLoop=1;jettySize=auto;html=1;strokeColor=#000000;strokeWidth=8;fontSize=20;" edge="1" parent="1" source="8-rb0V-c5dHq6XPJ8ipe-12" target="8-rb0V-c5dHq6XPJ8ipe-8">
          <mxGeometry relative="1" as="geometry" />
        </mxCell>
        <mxCell id="8-rb0V-c5dHq6XPJ8ipe-12" value="Entity" style="rounded=1;whiteSpace=wrap;html=1;fontSize=20;" vertex="1" parent="1">
          <mxGeometry x="3394" y="1454.31" width="164" height="92" as="geometry" />
        </mxCell>
        <mxCell id="8-rb0V-c5dHq6XPJ8ipe-34" style="edgeStyle=orthogonalEdgeStyle;rounded=0;orthogonalLoop=1;jettySize=auto;html=1;strokeColor=#000000;strokeWidth=8;fontSize=20;" edge="1" parent="1" source="8-rb0V-c5dHq6XPJ8ipe-13" target="8-rb0V-c5dHq6XPJ8ipe-29">
          <mxGeometry relative="1" as="geometry" />
        </mxCell>
        <mxCell id="8-rb0V-c5dHq6XPJ8ipe-13" value="Controller" style="rounded=1;whiteSpace=wrap;html=1;fontSize=20;" vertex="1" parent="1">
          <mxGeometry x="3975" y="1189.31" width="154" height="103.5" as="geometry" />
        </mxCell>
        <mxCell id="8-rb0V-c5dHq6XPJ8ipe-33" style="edgeStyle=orthogonalEdgeStyle;rounded=0;orthogonalLoop=1;jettySize=auto;html=1;strokeColor=#000000;strokeWidth=8;fontSize=20;" edge="1" parent="1" source="8-rb0V-c5dHq6XPJ8ipe-16" target="8-rb0V-c5dHq6XPJ8ipe-30">
          <mxGeometry relative="1" as="geometry">
            <mxPoint x="3759.5" y="1793.976748046875" as="targetPoint" />
            <Array as="points">
              <mxPoint x="3760" y="1764.31" />
            </Array>
          </mxGeometry>
        </mxCell>
        <mxCell id="8-rb0V-c5dHq6XPJ8ipe-16" value="&lt;font style=&quot;font-size: 20px&quot;&gt;Spring&lt;/font&gt;" style="shape=tape;whiteSpace=wrap;html=1;fillColor=#60a917;strokeColor=#2D7600;fontColor=#ffffff;" vertex="1" parent="1">
          <mxGeometry x="3672" y="1479.81" width="175" height="121" as="geometry" />
        </mxCell>
        <mxCell id="8-rb0V-c5dHq6XPJ8ipe-32" style="edgeStyle=orthogonalEdgeStyle;rounded=0;orthogonalLoop=1;jettySize=auto;html=1;strokeColor=#000000;strokeWidth=8;fontSize=20;" edge="1" parent="1" source="8-rb0V-c5dHq6XPJ8ipe-29" target="8-rb0V-c5dHq6XPJ8ipe-30">
          <mxGeometry relative="1" as="geometry" />
        </mxCell>
        <mxCell id="8-rb0V-c5dHq6XPJ8ipe-29" value="&lt;font style=&quot;font-size: 20px&quot;&gt;Postman&lt;/font&gt;" style="ellipse;whiteSpace=wrap;html=1;fillColor=#f0a30a;strokeColor=#BD7000;fontColor=#ffffff;" vertex="1" parent="1">
          <mxGeometry x="4262" y="1186.56" width="177" height="109" as="geometry" />
        </mxCell>
        <mxCell id="8-rb0V-c5dHq6XPJ8ipe-30" value="&lt;font style=&quot;font-size: 20px&quot;&gt;postgreSQL&lt;/font&gt;" style="ellipse;shape=cloud;whiteSpace=wrap;html=1;fillColor=#dae8fc;strokeColor=#6c8ebf;" vertex="1" parent="1">
          <mxGeometry x="4225" y="1679.31" width="251" height="121" as="geometry" />
        </mxCell>
        <mxCell id="8-rb0V-c5dHq6XPJ8ipe-36" value="Mail" style="shape=note;whiteSpace=wrap;html=1;backgroundOutline=1;darkOpacity=0.05;fontSize=20;" vertex="1" parent="1">
          <mxGeometry x="1245" y="1638.5" width="131" height="189" as="geometry" />
        </mxCell>
        <mxCell id="8-rb0V-c5dHq6XPJ8ipe-51" value="&lt;font style=&quot;font-size: 20px&quot;&gt;postgreSQL&lt;/font&gt;" style="ellipse;shape=cloud;whiteSpace=wrap;html=1;fillColor=#dae8fc;strokeColor=#6c8ebf;" vertex="1" parent="1">
          <mxGeometry x="468" y="1118.81" width="308" height="185" as="geometry" />
        </mxCell>
        <mxCell id="8-rb0V-c5dHq6XPJ8ipe-52" value="&lt;font style=&quot;font-size: 20px&quot;&gt;postgreSQL&lt;/font&gt;" style="ellipse;shape=cloud;whiteSpace=wrap;html=1;fillColor=#dae8fc;strokeColor=#6c8ebf;" vertex="1" parent="1">
          <mxGeometry x="708" y="1381" width="308" height="185" as="geometry" />
        </mxCell>
      </root>
    </mxGraphModel>
  </diagram>
</mxfile>
